<svg width="201" height="201" viewBox="0 0 201 201" fill="none" xmlns="http://www.w3.org/2000/svg">
<path d="M199.664 100.874C199.664 155.664 155.244 200.084 100.454 200.084C45.6644 200.084 1.23438 155.674 1.23438 100.874C1.23438 46.0741 45.6544 1.66406 100.444 1.66406C155.234 1.66406 199.654 46.0841 199.654 100.874H199.664Z" fill="#0F4872" stroke="white" stroke-width="1.5" stroke-miterlimit="10"/>
<path d="M28.1372 72.7772L19.6172 69.1972L20.1572 67.9072L28.6772 71.4872L28.1372 72.7772ZM30.1272 68.0372L24.2172 69.5972L21.4972 64.7072L22.1672 63.1172L24.8072 68.0872L30.8072 66.3972L30.1172 68.0372H30.1272Z" fill="white"/>
<path d="M35.5269 58.1791L33.5969 57.7791L31.7169 60.8991L32.9769 62.4091L32.2169 63.6791L26.0469 56.0091L26.6269 55.0391L36.2869 56.9191L35.5269 58.1791ZM28.1369 56.5791L30.8969 59.9391L32.3769 57.4791L28.1369 56.5791Z" fill="white"/>
<path d="M38.2453 48.4081L36.9153 50.0381L39.7353 52.3481L38.8453 53.4281L31.6953 47.5681L33.9153 44.8581C35.0553 43.4581 36.7153 43.3281 37.9553 44.3481C39.2053 45.3681 39.3853 47.0081 38.2353 48.4081H38.2453ZM34.8453 45.7181L33.5653 47.2881L35.9553 49.2481L37.2353 47.6781C37.8553 46.9181 37.8253 46.0481 37.0753 45.4381C36.3153 44.8081 35.4653 44.9581 34.8453 45.7281V45.7181Z" fill="white"/>
<path d="M43.2188 36.9881L48.6287 42.8581L47.5988 43.8081L42.1888 37.9381L40.3188 39.6581L39.4688 38.7281L44.2388 34.3281L45.0887 35.2581L43.2188 36.9781V36.9881Z" fill="white"/>
<path d="M56.777 36.4053L53.837 38.3753L48.707 30.6953L49.877 29.9153L51.897 32.9353L53.677 31.7453C55.147 30.7653 56.747 31.0653 57.667 32.4453C58.587 33.8253 58.247 35.4353 56.787 36.4053H56.777ZM54.267 32.8553L52.587 33.9753L54.307 36.5453L55.987 35.4253C56.837 34.8553 57.017 34.0353 56.487 33.2353C55.957 32.4453 55.117 32.2953 54.267 32.8553ZM60.147 34.1553L55.017 26.4753L56.187 25.6953L61.317 33.3753L60.157 34.1553H60.147Z" fill="white"/>
<path d="M77.4467 26.3466L76.2367 24.7966L72.7867 25.9866V27.9466L71.3867 28.4366L71.5667 18.5966L72.6367 18.2266L78.8567 25.8466L77.4467 26.3366V26.3466ZM72.8167 20.3866L72.7967 24.7366L75.4867 23.8066L72.8267 20.3866H72.8167Z" fill="white"/>
<path d="M88.5078 22.6064C88.0178 23.5164 87.2778 24.0264 86.1478 24.2364L82.9578 24.8364L81.2578 15.7564L84.4478 15.1564C85.5778 14.9464 86.4578 15.1564 87.2378 15.8164C88.0578 16.5064 88.2878 17.6264 88.5578 19.0764C88.8278 20.5264 89.0178 21.6564 88.5078 22.5964V22.6064ZM86.1978 16.7464C85.7278 16.3764 85.1778 16.2964 84.5278 16.4164L82.8678 16.7264L84.1078 23.3564L85.7678 23.0464C86.4178 22.9264 86.9078 22.6464 87.2078 22.1264C87.5578 21.5464 87.4378 20.6964 87.1878 19.3464C86.9378 17.9964 86.7378 17.1564 86.1978 16.7464Z" fill="white"/>
<path d="M94.9389 23.1281L94.3789 13.9081L95.7789 13.8281L96.3389 23.0481L94.9389 23.1281Z" fill="white"/>
<path d="M107.808 23.2775L103.988 16.5075L103.548 22.9975L102.148 22.9075L102.768 13.6875L104.048 13.7775L107.868 20.5375L108.308 14.0675L109.708 14.1575L109.088 23.3775L107.808 23.2875V23.2775Z" fill="white"/>
<path d="M120.228 24.2772C119.418 24.9172 118.538 25.0972 117.408 24.8472L114.238 24.1372L116.258 15.1172L119.428 15.8272C120.558 16.0772 121.278 16.6172 121.728 17.5372C122.208 18.4972 121.978 19.6172 121.658 21.0572C121.338 22.4972 121.058 23.6072 120.218 24.2772H120.228ZM120.418 17.9772C120.138 17.4472 119.658 17.1572 119.008 17.0072L117.358 16.6372L115.878 23.2272L117.528 23.5972C118.178 23.7372 118.738 23.6772 119.208 23.3272C119.758 22.9372 119.988 22.1072 120.288 20.7672C120.588 19.4272 120.738 18.5772 120.408 17.9872L120.418 17.9772Z" fill="white"/>
<path d="M125.445 27.0809L128.765 18.4609L134.275 20.5809L133.825 21.7509L129.625 20.1309L128.655 22.6509L132.245 24.0309L131.795 25.1909L128.205 23.8109L127.205 26.4009L131.405 28.0209L130.955 29.1909L125.445 27.0709V27.0809Z" fill="white"/>
<path d="M139.447 33.5672L139.407 29.4972L135.937 31.6272L134.527 30.8472L139.327 28.0972L139.177 22.8672L140.587 23.6472L140.567 27.4172L143.777 25.4172L145.187 26.1972L140.667 28.8372L140.877 34.3672L139.457 33.5772L139.447 33.5672Z" fill="white"/>
<path d="M155.066 45.6937L159.296 41.1937L154.666 43.0137L153.906 42.3037L155.406 37.5337L151.176 42.0337L150.156 41.0737L156.486 34.3438L157.506 35.3037L155.536 41.3438L161.406 38.9738L162.426 39.9338L156.096 46.6637L155.076 45.7038L155.066 45.6937Z" fill="white"/>
<path d="M162.739 54.7084L163.809 53.0684L161.569 50.1884L159.709 50.8284L158.789 49.6484L168.159 46.6484L168.849 47.5384L163.639 55.8884L162.719 54.7084H162.739ZM166.889 48.3984L162.769 49.7784L164.519 52.0184L166.899 48.3984H166.889Z" fill="white"/>
<path d="M170.888 60.7709L169.848 58.9409L166.678 60.7409L165.988 59.5209L174.018 54.9609L175.748 58.0109C176.638 59.5809 176.168 61.1709 174.778 61.9709C173.388 62.7709 171.778 62.3409 170.888 60.7809V60.7709ZM174.618 58.5609L173.618 56.8009L170.938 58.3309L171.938 60.0909C172.428 60.9509 173.238 61.2309 174.088 60.7509C174.948 60.2609 175.108 59.4209 174.618 58.5709V58.5609Z" fill="white"/>
<path d="M171.988 71.7656C171.478 70.4756 171.418 69.4356 171.928 68.2756L173.118 68.7956C172.738 69.6656 172.808 70.4656 173.148 71.3356C173.598 72.4756 174.328 72.9256 175.178 72.5856C175.568 72.4356 175.828 72.2156 175.938 71.8956C176.048 71.6056 176.038 71.2656 175.938 70.8156L175.688 69.7456C175.518 69.0056 175.528 68.3756 175.738 67.8556C175.958 67.2856 176.428 66.8456 177.138 66.5656C178.638 65.9756 180.078 66.6656 180.778 68.4556C181.228 69.6056 181.248 70.5056 180.848 71.5056L179.708 71.0056C180.008 70.2756 179.918 69.5856 179.628 68.8456C179.228 67.8356 178.458 67.5056 177.678 67.8156C177.368 67.9356 177.108 68.1356 177.008 68.4456C176.898 68.7356 176.878 69.0356 176.988 69.5356L177.238 70.6256C177.428 71.4556 177.418 71.9656 177.228 72.4756C176.988 73.0956 176.488 73.5756 175.738 73.8656C174.158 74.4856 172.708 73.5756 171.998 71.7656H171.988Z" fill="white"/>
<path d="M19.8555 135.893L18.3555 132.473L26.8155 128.773L28.2555 132.063C28.9355 133.613 28.4655 135.013 27.0955 135.613C26.2355 135.983 25.4455 135.863 24.7555 135.283C24.7255 136.283 24.3155 136.993 23.3455 137.413C21.8855 138.053 20.5455 137.483 19.8455 135.893H19.8555ZM23.5355 134.133L22.6555 132.123L20.0755 133.253L20.9555 135.263C21.3255 136.123 22.0655 136.433 22.8555 136.083C23.6355 135.743 23.9055 134.983 23.5355 134.133ZM27.0655 132.463L26.2355 130.563L23.8055 131.623L24.6355 133.523C25.0055 134.383 25.6855 134.703 26.4555 134.373C27.2255 134.043 27.4355 133.323 27.0655 132.463Z" fill="white"/>
<path d="M33.7447 156.414C32.9047 156.324 32.1547 155.924 31.5247 155.134C30.8947 154.344 30.6647 153.524 30.7647 152.684C30.9047 151.404 31.6047 150.814 33.1147 149.604C34.6247 148.394 35.3547 147.834 36.6347 147.974C37.4747 148.064 38.2247 148.464 38.8547 149.254C39.4847 150.044 39.7147 150.864 39.6147 151.704C39.4747 152.984 38.7747 153.574 37.2647 154.784C35.7547 155.994 35.0247 156.554 33.7447 156.404V156.414ZM38.2947 151.464C38.3547 150.964 38.2247 150.464 37.8847 150.034C37.5347 149.594 37.0847 149.364 36.5747 149.314C35.9047 149.264 35.4147 149.544 33.9847 150.694C32.5547 151.834 32.1847 152.254 32.0847 152.914C32.0247 153.414 32.1447 153.914 32.4847 154.354C32.8347 154.794 33.2947 155.014 33.8047 155.064C34.4747 155.124 34.9547 154.844 36.3847 153.694C37.8147 152.554 38.2047 152.134 38.2947 151.464Z" fill="white"/>
<path d="M42.777 166.716L45.477 163.716L42.697 161.216L39.997 164.216L38.957 163.276L45.147 156.406L46.187 157.346L43.537 160.286L46.317 162.786L48.967 159.846L50.017 160.796L43.827 167.666L42.777 166.716Z" fill="white"/>
<path d="M54.4159 175.227L58.7159 168.507L56.4759 167.077L54.9059 169.537C52.8159 172.807 51.3859 173.297 49.8259 172.297L49.3359 171.987L50.0159 170.927L50.2259 171.057C51.0859 171.607 52.0659 171.467 53.8659 168.647L56.0159 165.297L60.5859 168.217L55.6059 175.997L54.4259 175.237L54.4159 175.227Z" fill="white"/>
<path d="M67.6266 181.867L67.7666 179.908L64.4166 178.457L63.0866 179.908L61.7266 179.317L68.5066 172.188L69.5466 172.637L68.9666 182.457L67.6166 181.878L67.6266 181.867ZM68.2266 174.337L65.2666 177.527L67.8966 178.667L68.2266 174.337Z" fill="white"/>
<path d="M80.8164 185.955L82.4464 179.445L76.7964 184.955L75.5664 184.645L77.8064 175.675L79.1664 176.015L77.5364 182.515L83.1664 177.015L84.4164 177.325L82.1764 186.295L80.8164 185.955ZM81.2564 175.975C80.2364 175.715 79.4864 175.065 79.7364 173.805L80.7564 174.065C80.6564 174.655 80.9364 175.015 81.4564 175.155C81.9764 175.295 82.3964 175.095 82.5864 174.525L83.6064 174.775C83.2364 176.005 82.2664 176.235 81.2464 175.975H81.2564Z" fill="white"/>
<path d="M95.2255 187.977L95.5455 183.957L91.8255 183.667L91.5055 187.687L90.1055 187.577L90.8255 178.367L92.2255 178.477L91.9155 182.427L95.6455 182.717L95.9555 178.767L97.3655 178.877L96.6455 188.087L95.2355 187.977H95.2255Z" fill="white"/>
<path d="M116.826 186.624L116.606 185.494C113.926 185.904 112.576 184.794 112.116 182.424C111.656 180.084 112.596 178.624 115.136 177.994L114.966 177.114L116.346 176.844L116.516 177.724C119.096 177.344 120.526 178.334 120.986 180.674C121.456 183.044 120.636 184.584 117.996 185.214L118.216 186.344L116.836 186.614L116.826 186.624ZM115.356 179.174C113.556 179.594 113.176 180.584 113.496 182.214C113.816 183.814 114.586 184.604 116.376 184.334L115.356 179.174ZM117.746 184.064C119.496 183.634 119.916 182.614 119.606 181.014C119.286 179.384 118.556 178.614 116.726 178.914L117.746 184.074V184.064Z" fill="white"/>
<path d="M133.755 180.643C133.415 181.413 132.805 182.013 131.855 182.373C130.905 182.733 130.065 182.703 129.285 182.353C128.115 181.833 127.755 180.973 127.065 179.173C126.375 177.363 126.065 176.493 126.585 175.323C126.925 174.553 127.535 173.953 128.485 173.593C129.435 173.233 130.275 173.263 131.055 173.613C132.225 174.133 132.585 174.983 133.275 176.793C133.965 178.603 134.275 179.473 133.745 180.643H133.755ZM130.435 174.803C129.975 174.593 129.465 174.563 128.945 174.763C128.425 174.963 128.065 175.323 127.865 175.793C127.615 176.413 127.735 176.973 128.385 178.683C129.035 180.393 129.325 180.873 129.925 181.163C130.385 181.373 130.895 181.413 131.415 181.213C131.935 181.013 132.295 180.643 132.495 180.173C132.755 179.553 132.635 179.013 131.975 177.303C131.325 175.593 131.045 175.093 130.435 174.803Z" fill="white"/>
<path d="M143.107 172.832L141.287 173.882L143.117 177.042L141.907 177.742L137.277 169.742L140.307 167.982C141.867 167.082 143.467 167.532 144.277 168.922C145.087 170.312 144.677 171.912 143.117 172.822L143.107 172.832ZM140.867 169.122L139.117 170.132L140.667 172.802L142.417 171.792C143.267 171.302 143.547 170.482 143.057 169.632C142.567 168.782 141.717 168.622 140.867 169.112V169.122Z" fill="white"/>
<path d="M158.666 166.059L154.716 161.309L155.956 166.129L155.156 166.789L150.606 164.709L154.556 169.459L153.476 170.359L147.566 163.259L148.636 162.369L154.386 165.059L152.756 158.939L153.836 158.039L159.746 165.139L158.656 166.039L158.666 166.059Z" fill="white"/>
<path d="M168.845 155.404L167.015 154.694L164.645 157.464L165.635 159.164L164.675 160.284L159.855 151.704L160.585 150.844L169.795 154.284L168.845 155.394V155.404ZM161.825 152.604L163.995 156.374L165.855 154.194L161.815 152.604H161.825Z" fill="white"/>
<path d="M168.736 141.713L175.506 145.933L174.766 147.123L167.996 142.903L166.656 145.063L165.586 144.393L169.016 138.883L170.086 139.553L168.746 141.713H168.736Z" fill="white"/>
<path d="M180.197 137.285L171.707 133.635L174.047 128.195L175.207 128.695L173.427 132.845L175.907 133.915L177.427 130.385L178.567 130.875L177.047 134.405L179.597 135.505L181.377 131.355L182.537 131.855L180.197 137.295V137.285Z" fill="white"/>
<path d="M63.8453 153.031V149.331C63.8453 148.391 63.3053 147.981 62.6253 147.981C61.9453 147.981 61.3653 148.401 61.3653 149.271V153.031H60.1453V149.331C60.1453 148.391 59.6053 147.981 58.9253 147.981C58.2453 147.981 57.6653 148.401 57.6653 149.331V153.031H56.4453V146.961H57.6453V147.571C58.0553 147.131 58.6553 146.891 59.2653 146.891C60.0153 146.891 60.6053 147.191 60.9853 147.781C61.4753 147.181 62.0853 146.891 62.8853 146.891C63.5053 146.891 64.0553 147.091 64.4153 147.441C64.8853 147.891 65.0653 148.471 65.0653 149.151V153.031H63.8453Z" fill="white"/>
<path d="M70.2144 153.031V152.481C69.7744 152.921 69.3544 153.101 68.5944 153.101C67.8344 153.101 67.3344 152.921 66.9644 152.551C66.6544 152.231 66.4844 151.761 66.4844 151.251C66.4844 150.231 67.1944 149.501 68.5944 149.501H70.1844V149.071C70.1844 148.291 69.8144 147.931 68.8544 147.931C68.2044 147.931 67.8744 148.101 67.5244 148.531L66.7344 147.781C67.2944 147.111 67.8844 146.891 68.8944 146.891C70.5744 146.891 71.3944 147.611 71.3944 148.971V153.031H70.1944H70.2144ZM70.1944 150.351H68.7944C68.0544 150.351 67.6844 150.661 67.6844 151.221C67.6844 151.781 68.0344 152.081 68.8344 152.081C69.2644 152.081 69.6144 152.031 69.9344 151.731C70.1244 151.551 70.1944 151.261 70.1944 150.831V150.341V150.351Z" fill="white"/>
<path d="M77.5769 152.561C77.2369 152.901 76.7269 153.101 76.1069 153.101C75.4869 153.101 74.9569 152.941 74.5169 152.411V155.481H73.2969V146.961H74.4969V147.611C74.9569 147.061 75.4569 146.891 76.0969 146.891C76.7369 146.891 77.2469 147.091 77.5769 147.431C78.1669 148.031 78.2569 149.001 78.2569 149.991C78.2569 150.981 78.1569 151.961 77.5769 152.561ZM75.7869 147.981C74.6769 147.981 74.5169 148.911 74.5169 149.991C74.5169 151.071 74.6769 152.011 75.7869 152.011C76.8969 152.011 77.0469 151.071 77.0469 149.991C77.0469 148.911 76.8969 147.981 75.7869 147.981Z" fill="white"/>
<path d="M81.8742 153.101C80.8842 153.101 80.0442 152.931 79.3242 152.231L80.1242 151.431C80.6142 151.931 81.2742 152.061 81.8742 152.061C82.6242 152.061 83.2042 151.801 83.2042 151.221C83.2042 150.801 82.9742 150.561 82.3942 150.501L81.4242 150.421C80.2742 150.311 79.6342 149.811 79.6342 148.741C79.6342 147.541 80.6542 146.891 81.9242 146.891C82.8442 146.891 83.6142 147.081 84.1742 147.571L83.4042 148.351C83.0242 148.031 82.4842 147.911 81.9142 147.911C81.1742 147.911 80.8142 148.221 80.8142 148.691C80.8142 149.111 81.0542 149.321 81.6542 149.381L82.5042 149.451C83.7642 149.561 84.4142 150.111 84.4142 151.171C84.4142 152.441 83.3342 153.101 81.8942 153.101H81.8742Z" fill="white"/>
<path d="M85.8438 153.038V151.578H87.3037V153.038H85.8438Z" fill="white"/>
<path d="M92.4761 153.031V152.481C92.0361 152.921 91.6161 153.101 90.8561 153.101C90.0961 153.101 89.5961 152.921 89.2261 152.551C88.9161 152.231 88.7461 151.761 88.7461 151.251C88.7461 150.231 89.4561 149.501 90.8561 149.501H92.4461V149.071C92.4461 148.291 92.0761 147.931 91.1161 147.931C90.4661 147.931 90.1361 148.101 89.7861 148.531L88.9961 147.781C89.5561 147.111 90.1461 146.891 91.1561 146.891C92.8361 146.891 93.6561 147.611 93.6561 148.971V153.031H92.4561H92.4761ZM92.4561 150.351H91.0561C90.3161 150.351 89.9461 150.661 89.9461 151.221C89.9461 151.781 90.2961 152.081 91.0961 152.081C91.5261 152.081 91.8761 152.031 92.1961 151.731C92.3861 151.551 92.4561 151.261 92.4561 150.831V150.341V150.351Z" fill="white"/>
<path d="M99.0334 153.036V152.386C98.5834 152.936 98.0934 153.106 97.4334 153.106C96.8234 153.106 96.2834 152.906 95.9534 152.566C95.3634 151.966 95.2734 150.996 95.2734 149.996C95.2734 148.996 95.3734 148.036 95.9534 147.436C96.2934 147.096 96.8134 146.896 97.4234 146.896C98.0734 146.896 98.5734 147.056 99.0134 147.576V144.516H100.233V153.036H99.0334ZM97.7534 147.986C96.6434 147.986 96.4834 148.916 96.4834 149.996C96.4834 151.076 96.6434 152.016 97.7534 152.016C98.8634 152.016 99.0134 151.076 99.0134 149.996C99.0134 148.916 98.8534 147.986 97.7534 147.986Z" fill="white"/>
<path d="M102.137 145.774V144.484H103.427V145.774H102.137ZM102.177 153.034V146.964H103.397V153.034H102.177Z" fill="white"/>
<path d="M109.024 153.031V149.331C109.024 148.391 108.484 147.981 107.804 147.981C107.124 147.981 106.544 148.401 106.544 149.331V153.031H105.324V146.961H106.524V147.571C106.944 147.121 107.534 146.891 108.144 146.891C108.754 146.891 109.284 147.091 109.644 147.441C110.114 147.891 110.254 148.471 110.254 149.151V153.031H109.034H109.024Z" fill="white"/>
<path d="M115.615 153.036V152.386C115.165 152.936 114.675 153.106 114.015 153.106C113.405 153.106 112.865 152.906 112.535 152.566C111.945 151.966 111.855 150.996 111.855 149.996C111.855 148.996 111.955 148.036 112.535 147.436C112.875 147.096 113.395 146.896 114.005 146.896C114.655 146.896 115.155 147.056 115.595 147.576V144.516H116.815V153.036H115.615ZM114.335 147.986C113.225 147.986 113.065 148.916 113.065 149.996C113.065 151.076 113.225 152.016 114.335 152.016C115.445 152.016 115.595 151.076 115.595 149.996C115.595 148.916 115.435 147.986 114.335 147.986Z" fill="white"/>
<path d="M119.644 150.356C119.644 151.406 120.184 152.056 121.184 152.056C121.864 152.056 122.224 151.866 122.654 151.436L123.434 152.166C122.814 152.786 122.224 153.116 121.164 153.116C119.644 153.116 118.434 152.316 118.434 150.006C118.434 148.036 119.454 146.906 121.004 146.906C122.554 146.906 123.574 148.076 123.574 149.846V150.356H119.634H119.644ZM122.204 148.686C122.004 148.236 121.584 147.916 121.004 147.916C120.424 147.916 119.994 148.226 119.794 148.686C119.674 148.946 119.654 149.136 119.634 149.516H122.364C122.344 149.146 122.314 148.956 122.194 148.686H122.204Z" fill="white"/>
<path d="M128.516 153.031L127.246 150.961L125.966 153.031H124.496L126.576 149.931L124.576 146.961H126.046L127.246 148.931L128.426 146.961H129.896L127.906 149.931L129.976 153.031H128.506H128.516Z" fill="white"/>
<path d="M131.184 153.038V151.578H132.644V153.038H131.184Z" fill="white"/>
<path d="M137.887 148.393C137.607 148.113 137.397 147.983 136.977 147.983C136.317 147.983 135.767 148.513 135.767 149.343V153.023H134.547V146.953H135.747V147.613C136.057 147.183 136.677 146.883 137.367 146.883C137.957 146.883 138.397 147.043 138.817 147.453L137.897 148.373L137.887 148.393Z" fill="white"/>
<path d="M143.466 153.031V152.421C143.046 152.871 142.466 153.101 141.846 153.101C141.226 153.101 140.706 152.901 140.356 152.551C139.886 152.101 139.746 151.521 139.746 150.841V146.961H140.966V150.661C140.966 151.611 141.506 152.011 142.186 152.011C142.866 152.011 143.446 151.591 143.446 150.661V146.961H144.666V153.031H143.466Z" fill="white"/>
<path d="M89.7366 50.9844C90.7066 50.9844 91.4966 51.7744 91.4966 52.7444C91.4966 53.7144 90.7066 54.5044 89.7366 54.5044C88.7666 54.5044 87.9766 53.7144 87.9766 52.7444C87.9766 51.7744 88.7666 50.9844 89.7366 50.9844Z" fill="white"/>
<path d="M93.2678 50.9844C94.2378 50.9844 95.0278 51.7744 95.0278 52.7444C95.0278 53.7144 94.2378 54.5044 93.2678 54.5044C92.2978 54.5044 91.5078 53.7144 91.5078 52.7444C91.5078 51.7744 92.2978 50.9844 93.2678 50.9844Z" fill="white"/>
<path d="M100.326 50.9844C101.296 50.9844 102.086 51.7744 102.086 52.7444C102.086 53.7144 101.296 54.5044 100.326 54.5044C99.3564 54.5044 98.5664 53.7144 98.5664 52.7444C98.5664 51.7744 99.3564 50.9844 100.326 50.9844Z" fill="white"/>
<path d="M107.385 50.9844C108.355 50.9844 109.145 51.7744 109.145 52.7444C109.145 53.7144 108.355 54.5044 107.385 54.5044C106.415 54.5044 105.625 53.7144 105.625 52.7444C105.625 51.7744 106.415 50.9844 107.385 50.9844Z" fill="white"/>
<path d="M110.908 50.9844C111.878 50.9844 112.668 51.7744 112.668 52.7444C112.668 53.7144 111.878 54.5044 110.908 54.5044C109.938 54.5044 109.148 53.7144 109.148 52.7444C109.148 51.7744 109.938 50.9844 110.908 50.9844Z" fill="white"/>
<path d="M86.217 54.5156C87.187 54.5156 87.977 55.3056 87.977 56.2756C87.977 57.2456 87.187 58.0356 86.217 58.0356C85.247 58.0356 84.457 57.2456 84.457 56.2756C84.457 55.3056 85.247 54.5156 86.217 54.5156Z" fill="white"/>
<path d="M89.7366 54.5156C90.7066 54.5156 91.4966 55.3056 91.4966 56.2756C91.4966 57.2456 90.7066 58.0356 89.7366 58.0356C88.7666 58.0356 87.9766 57.2456 87.9766 56.2756C87.9766 55.3056 88.7666 54.5156 89.7366 54.5156Z" fill="white"/>
<path d="M103.858 54.5156C104.828 54.5156 105.618 55.3056 105.618 56.2756C105.618 57.2456 104.828 58.0356 103.858 58.0356C102.888 58.0356 102.098 57.2456 102.098 56.2756C102.098 55.3056 102.888 54.5156 103.858 54.5156Z" fill="white"/>
<path d="M107.385 54.5156C108.355 54.5156 109.145 55.3056 109.145 56.2756C109.145 57.2456 108.355 58.0356 107.385 58.0356C106.415 58.0356 105.625 57.2456 105.625 56.2756C105.625 55.3056 106.415 54.5156 107.385 54.5156Z" fill="white"/>
<path d="M110.908 54.5156C111.878 54.5156 112.668 55.3056 112.668 56.2756C112.668 57.2456 111.878 58.0356 110.908 58.0356C109.938 58.0356 109.148 57.2456 109.148 56.2756C109.148 55.3056 109.938 54.5156 110.908 54.5156Z" fill="white"/>
<path d="M93.2678 58.0469C94.2378 58.0469 95.0278 58.8369 95.0278 59.8069C95.0278 60.7769 94.2378 61.5669 93.2678 61.5669C92.2978 61.5669 91.5078 60.7769 91.5078 59.8069C91.5078 58.8369 92.2978 58.0469 93.2678 58.0469Z" fill="white"/>
<path d="M96.7952 58.0469C97.7652 58.0469 98.5552 58.8369 98.5552 59.8069C98.5552 60.7769 97.7652 61.5669 96.7952 61.5669C95.8252 61.5669 95.0352 60.7769 95.0352 59.8069C95.0352 58.8369 95.8252 58.0469 96.7952 58.0469Z" fill="white"/>
<path d="M100.326 58.0469C101.296 58.0469 102.086 58.8369 102.086 59.8069C102.086 60.7769 101.296 61.5669 100.326 61.5669C99.3564 61.5669 98.5664 60.7769 98.5664 59.8069C98.5664 58.8369 99.3564 58.0469 100.326 58.0469Z" fill="white"/>
<path d="M107.385 58.0469C108.355 58.0469 109.145 58.8369 109.145 59.8069C109.145 60.7769 108.355 61.5669 107.385 61.5669C106.415 61.5669 105.625 60.7769 105.625 59.8069C105.625 58.8369 106.415 58.0469 107.385 58.0469Z" fill="white"/>
<path d="M110.908 58.0469C111.878 58.0469 112.668 58.8369 112.668 59.8069C112.668 60.7769 111.878 61.5669 110.908 61.5669C109.938 61.5669 109.148 60.7769 109.148 59.8069C109.148 58.8369 109.938 58.0469 110.908 58.0469Z" fill="white"/>
<path d="M93.2678 61.5781C94.2378 61.5781 95.0278 62.3681 95.0278 63.3381C95.0278 64.3081 94.2378 65.0981 93.2678 65.0981C92.2978 65.0981 91.5078 64.3081 91.5078 63.3381C91.5078 62.3681 92.2978 61.5781 93.2678 61.5781Z" fill="white"/>
<path d="M96.7952 61.5781C97.7652 61.5781 98.5552 62.3681 98.5552 63.3381C98.5552 64.3081 97.7652 65.0981 96.7952 65.0981C95.8252 65.0981 95.0352 64.3081 95.0352 63.3381C95.0352 62.3681 95.8252 61.5781 96.7952 61.5781Z" fill="white"/>
<path d="M100.326 61.5781C101.296 61.5781 102.086 62.3681 102.086 63.3381C102.086 64.3081 101.296 65.0981 100.326 65.0981C99.3564 65.0981 98.5664 64.3081 98.5664 63.3381C98.5664 62.3681 99.3564 61.5781 100.326 61.5781Z" fill="white"/>
<path d="M107.385 61.5781C108.355 61.5781 109.145 62.3681 109.145 63.3381C109.145 64.3081 108.355 65.0981 107.385 65.0981C106.415 65.0981 105.625 64.3081 105.625 63.3381C105.625 62.3681 106.415 61.5781 107.385 61.5781Z" fill="white"/>
<path d="M86.217 65.0938C87.187 65.0938 87.977 65.8838 87.977 66.8538C87.977 67.8238 87.187 68.6137 86.217 68.6137C85.247 68.6137 84.457 67.8238 84.457 66.8538C84.457 65.8838 85.247 65.0938 86.217 65.0938Z" fill="white"/>
<path d="M100.326 65.0938C101.296 65.0938 102.086 65.8838 102.086 66.8538C102.086 67.8238 101.296 68.6137 100.326 68.6137C99.3564 68.6137 98.5664 67.8238 98.5664 66.8538C98.5664 65.8838 99.3564 65.0938 100.326 65.0938Z" fill="white"/>
<path d="M107.385 65.0938C108.355 65.0938 109.145 65.8838 109.145 66.8538C109.145 67.8238 108.355 68.6137 107.385 68.6137C106.415 68.6137 105.625 67.8238 105.625 66.8538C105.625 65.8838 106.415 65.0938 107.385 65.0938Z" fill="white"/>
<path d="M110.908 65.0938C111.878 65.0938 112.668 65.8838 112.668 66.8538C112.668 67.8238 111.878 68.6137 110.908 68.6137C109.938 68.6137 109.148 67.8238 109.148 66.8538C109.148 65.8838 109.938 65.0938 110.908 65.0938Z" fill="white"/>
<path d="M89.7366 68.625C90.7066 68.625 91.4966 69.415 91.4966 70.385C91.4966 71.355 90.7066 72.145 89.7366 72.145C88.7666 72.145 87.9766 71.355 87.9766 70.385C87.9766 69.415 88.7666 68.625 89.7366 68.625Z" fill="white"/>
<path d="M93.2678 68.625C94.2378 68.625 95.0278 69.415 95.0278 70.385C95.0278 71.355 94.2378 72.145 93.2678 72.145C92.2978 72.145 91.5078 71.355 91.5078 70.385C91.5078 69.415 92.2978 68.625 93.2678 68.625Z" fill="white"/>
<path d="M96.7952 68.625C97.7652 68.625 98.5552 69.415 98.5552 70.385C98.5552 71.355 97.7652 72.145 96.7952 72.145C95.8252 72.145 95.0352 71.355 95.0352 70.385C95.0352 69.415 95.8252 68.625 96.7952 68.625Z" fill="white"/>
<path d="M103.858 68.625C104.828 68.625 105.618 69.415 105.618 70.385C105.618 71.355 104.828 72.145 103.858 72.145C102.888 72.145 102.098 71.355 102.098 70.385C102.098 69.415 102.888 68.625 103.858 68.625Z" fill="white"/>
<path d="M107.385 68.625C108.355 68.625 109.145 69.415 109.145 70.385C109.145 71.355 108.355 72.145 107.385 72.145C106.415 72.145 105.625 71.355 105.625 70.385C105.625 69.415 106.415 68.625 107.385 68.625Z" fill="white"/>
<path d="M110.908 68.625C111.878 68.625 112.668 69.415 112.668 70.385C112.668 71.355 111.878 72.145 110.908 72.145C109.938 72.145 109.148 71.355 109.148 70.385C109.148 69.415 109.938 68.625 110.908 68.625Z" fill="white"/>
<path d="M114.436 68.625C115.406 68.625 116.196 69.415 116.196 70.385C116.196 71.355 115.406 72.145 114.436 72.145C113.466 72.145 112.676 71.355 112.676 70.385C112.676 69.415 113.466 68.625 114.436 68.625Z" fill="white"/>
<path d="M86.217 72.1562C87.187 72.1562 87.977 72.9463 87.977 73.9163C87.977 74.8863 87.187 75.6763 86.217 75.6763C85.247 75.6763 84.457 74.8863 84.457 73.9163C84.457 72.9463 85.247 72.1562 86.217 72.1562Z" fill="white"/>
<path d="M93.2678 72.1562C94.2378 72.1562 95.0278 72.9463 95.0278 73.9163C95.0278 74.8863 94.2378 75.6763 93.2678 75.6763C92.2978 75.6763 91.5078 74.8863 91.5078 73.9163C91.5078 72.9463 92.2978 72.1562 93.2678 72.1562Z" fill="white"/>
<path d="M100.326 72.1562C101.296 72.1562 102.086 72.9463 102.086 73.9163C102.086 74.8863 101.296 75.6763 100.326 75.6763C99.3564 75.6763 98.5664 74.8863 98.5664 73.9163C98.5664 72.9463 99.3564 72.1562 100.326 72.1562Z" fill="white"/>
<path d="M107.385 72.1562C108.355 72.1562 109.145 72.9463 109.145 73.9163C109.145 74.8863 108.355 75.6763 107.385 75.6763C106.415 75.6763 105.625 74.8863 105.625 73.9163C105.625 72.9463 106.415 72.1562 107.385 72.1562Z" fill="white"/>
<path d="M114.436 72.1562C115.406 72.1562 116.196 72.9463 116.196 73.9163C116.196 74.8863 115.406 75.6763 114.436 75.6763C113.466 75.6763 112.676 74.8863 112.676 73.9163C112.676 72.9463 113.466 72.1562 114.436 72.1562Z" fill="white"/>
<path d="M89.7366 75.6875C90.7066 75.6875 91.4966 76.4775 91.4966 77.4475C91.4966 78.4175 90.7066 79.2075 89.7366 79.2075C88.7666 79.2075 87.9766 78.4175 87.9766 77.4475C87.9766 76.4775 88.7666 75.6875 89.7366 75.6875Z" fill="white"/>
<path d="M93.2678 75.6875C94.2378 75.6875 95.0278 76.4775 95.0278 77.4475C95.0278 78.4175 94.2378 79.2075 93.2678 79.2075C92.2978 79.2075 91.5078 78.4175 91.5078 77.4475C91.5078 76.4775 92.2978 75.6875 93.2678 75.6875Z" fill="white"/>
<path d="M96.7952 75.6875C97.7652 75.6875 98.5552 76.4775 98.5552 77.4475C98.5552 78.4175 97.7652 79.2075 96.7952 79.2075C95.8252 79.2075 95.0352 78.4175 95.0352 77.4475C95.0352 76.4775 95.8252 75.6875 96.7952 75.6875Z" fill="white"/>
<path d="M100.326 75.6875C101.296 75.6875 102.086 76.4775 102.086 77.4475C102.086 78.4175 101.296 79.2075 100.326 79.2075C99.3564 79.2075 98.5664 78.4175 98.5664 77.4475C98.5664 76.4775 99.3564 75.6875 100.326 75.6875Z" fill="white"/>
<path d="M103.858 75.6875C104.828 75.6875 105.618 76.4775 105.618 77.4475C105.618 78.4175 104.828 79.2075 103.858 79.2075C102.888 79.2075 102.098 78.4175 102.098 77.4475C102.098 76.4775 102.888 75.6875 103.858 75.6875Z" fill="white"/>
<path d="M107.385 75.6875C108.355 75.6875 109.145 76.4775 109.145 77.4475C109.145 78.4175 108.355 79.2075 107.385 79.2075C106.415 79.2075 105.625 78.4175 105.625 77.4475C105.625 76.4775 106.415 75.6875 107.385 75.6875Z" fill="white"/>
<path d="M110.908 75.6875C111.878 75.6875 112.668 76.4775 112.668 77.4475C112.668 78.4175 111.878 79.2075 110.908 79.2075C109.938 79.2075 109.148 78.4175 109.148 77.4475C109.148 76.4775 109.938 75.6875 110.908 75.6875Z" fill="white"/>
<path d="M57.9866 79.2109C58.9566 79.2109 59.7466 80.0009 59.7466 80.9709C59.7466 81.9409 58.9566 82.7309 57.9866 82.7309C57.0166 82.7309 56.2266 81.9409 56.2266 80.9709C56.2266 80.0009 57.0166 79.2109 57.9866 79.2109Z" fill="white"/>
<path d="M65.0452 79.2109C66.0152 79.2109 66.8052 80.0009 66.8052 80.9709C66.8052 81.9409 66.0152 82.7309 65.0452 82.7309C64.0752 82.7309 63.2852 81.9409 63.2852 80.9709C63.2852 80.0009 64.0752 79.2109 65.0452 79.2109Z" fill="white"/>
<path d="M72.0959 79.2109C73.0659 79.2109 73.8559 80.0009 73.8559 80.9709C73.8559 81.9409 73.0659 82.7309 72.0959 82.7309C71.1259 82.7309 70.3359 81.9409 70.3359 80.9709C70.3359 80.0009 71.1259 79.2109 72.0959 79.2109Z" fill="white"/>
<path d="M79.1584 79.2109C80.1284 79.2109 80.9184 80.0009 80.9184 80.9709C80.9184 81.9409 80.1284 82.7309 79.1584 82.7309C78.1884 82.7309 77.3984 81.9409 77.3984 80.9709C77.3984 80.0009 78.1884 79.2109 79.1584 79.2109Z" fill="white"/>
<path d="M93.2678 79.2109C94.2378 79.2109 95.0278 80.0009 95.0278 80.9709C95.0278 81.9409 94.2378 82.7309 93.2678 82.7309C92.2978 82.7309 91.5078 81.9409 91.5078 80.9709C91.5078 80.0009 92.2978 79.2109 93.2678 79.2109Z" fill="white"/>
<path d="M96.7952 79.2109C97.7652 79.2109 98.5552 80.0009 98.5552 80.9709C98.5552 81.9409 97.7652 82.7309 96.7952 82.7309C95.8252 82.7309 95.0352 81.9409 95.0352 80.9709C95.0352 80.0009 95.8252 79.2109 96.7952 79.2109Z" fill="white"/>
<path d="M100.326 79.2109C101.296 79.2109 102.086 80.0009 102.086 80.9709C102.086 81.9409 101.296 82.7309 100.326 82.7309C99.3564 82.7309 98.5664 81.9409 98.5664 80.9709C98.5664 80.0009 99.3564 79.2109 100.326 79.2109Z" fill="white"/>
<path d="M103.858 79.2109C104.828 79.2109 105.618 80.0009 105.618 80.9709C105.618 81.9409 104.828 82.7309 103.858 82.7309C102.888 82.7309 102.098 81.9409 102.098 80.9709C102.098 80.0009 102.888 79.2109 103.858 79.2109Z" fill="white"/>
<path d="M110.908 79.2109C111.878 79.2109 112.668 80.0009 112.668 80.9709C112.668 81.9409 111.878 82.7309 110.908 82.7309C109.938 82.7309 109.148 81.9409 109.148 80.9709C109.148 80.0009 109.938 79.2109 110.908 79.2109Z" fill="white"/>
<path d="M114.436 79.2109C115.406 79.2109 116.196 80.0009 116.196 80.9709C116.196 81.9409 115.406 82.7309 114.436 82.7309C113.466 82.7309 112.676 81.9409 112.676 80.9709C112.676 80.0009 113.466 79.2109 114.436 79.2109Z" fill="white"/>
<path d="M128.557 79.2109C129.527 79.2109 130.317 80.0009 130.317 80.9709C130.317 81.9409 129.527 82.7309 128.557 82.7309C127.587 82.7309 126.797 81.9409 126.797 80.9709C126.797 80.0009 127.587 79.2109 128.557 79.2109Z" fill="white"/>
<path d="M139.135 79.2109C140.105 79.2109 140.895 80.0009 140.895 80.9709C140.895 81.9409 140.105 82.7309 139.135 82.7309C138.165 82.7309 137.375 81.9409 137.375 80.9709C137.375 80.0009 138.165 79.2109 139.135 79.2109Z" fill="white"/>
<path d="M57.9866 82.7422C58.9566 82.7422 59.7466 83.5322 59.7466 84.5022C59.7466 85.4722 58.9566 86.2622 57.9866 86.2622C57.0166 86.2622 56.2266 85.4722 56.2266 84.5022C56.2266 83.5322 57.0166 82.7422 57.9866 82.7422Z" fill="white"/>
<path d="M68.5647 82.7422C69.5347 82.7422 70.3247 83.5322 70.3247 84.5022C70.3247 85.4722 69.5347 86.2622 68.5647 86.2622C67.5947 86.2622 66.8047 85.4722 66.8047 84.5022C66.8047 83.5322 67.5947 82.7422 68.5647 82.7422Z" fill="white"/>
<path d="M107.385 82.7422C108.355 82.7422 109.145 83.5322 109.145 84.5022C109.145 85.4722 108.355 86.2622 107.385 86.2622C106.415 86.2622 105.625 85.4722 105.625 84.5022C105.625 83.5322 106.415 82.7422 107.385 82.7422Z" fill="white"/>
<path d="M114.436 82.7422C115.406 82.7422 116.196 83.5322 116.196 84.5022C116.196 85.4722 115.406 86.2622 114.436 86.2622C113.466 86.2622 112.676 85.4722 112.676 84.5022C112.676 83.5322 113.466 82.7422 114.436 82.7422Z" fill="white"/>
<path d="M117.967 82.7422C118.937 82.7422 119.727 83.5322 119.727 84.5022C119.727 85.4722 118.937 86.2622 117.967 86.2622C116.997 86.2622 116.207 85.4722 116.207 84.5022C116.207 83.5322 116.997 82.7422 117.967 82.7422Z" fill="white"/>
<path d="M121.498 82.7422C122.468 82.7422 123.258 83.5322 123.258 84.5022C123.258 85.4722 122.468 86.2622 121.498 86.2622C120.528 86.2622 119.738 85.4722 119.738 84.5022C119.738 83.5322 120.528 82.7422 121.498 82.7422Z" fill="white"/>
<path d="M142.666 82.7422C143.636 82.7422 144.426 83.5322 144.426 84.5022C144.426 85.4722 143.636 86.2622 142.666 86.2622C141.696 86.2622 140.906 85.4722 140.906 84.5022C140.906 83.5322 141.696 82.7422 142.666 82.7422Z" fill="white"/>
<path d="M57.9866 86.2656C58.9566 86.2656 59.7466 87.0556 59.7466 88.0256C59.7466 88.9956 58.9566 89.7856 57.9866 89.7856C57.0166 89.7856 56.2266 88.9956 56.2266 88.0256C56.2266 87.0556 57.0166 86.2656 57.9866 86.2656Z" fill="white"/>
<path d="M61.5178 86.2656C62.4878 86.2656 63.2778 87.0556 63.2778 88.0256C63.2778 88.9956 62.4878 89.7856 61.5178 89.7856C60.5478 89.7856 59.7578 88.9956 59.7578 88.0256C59.7578 87.0556 60.5478 86.2656 61.5178 86.2656Z" fill="white"/>
<path d="M75.6272 86.2656C76.5972 86.2656 77.3872 87.0556 77.3872 88.0256C77.3872 88.9956 76.5972 89.7856 75.6272 89.7856C74.6572 89.7856 73.8672 88.9956 73.8672 88.0256C73.8672 87.0556 74.6572 86.2656 75.6272 86.2656Z" fill="white"/>
<path d="M79.1584 86.2656C80.1284 86.2656 80.9184 87.0556 80.9184 88.0256C80.9184 88.9956 80.1284 89.7856 79.1584 89.7856C78.1884 89.7856 77.3984 88.9956 77.3984 88.0256C77.3984 87.0556 78.1884 86.2656 79.1584 86.2656Z" fill="white"/>
<path d="M82.6858 86.2656C83.6558 86.2656 84.4458 87.0556 84.4458 88.0256C84.4458 88.9956 83.6558 89.7856 82.6858 89.7856C81.7158 89.7856 80.9258 88.9956 80.9258 88.0256C80.9258 87.0556 81.7158 86.2656 82.6858 86.2656Z" fill="white"/>
<path d="M107.385 86.2656C108.355 86.2656 109.145 87.0556 109.145 88.0256C109.145 88.9956 108.355 89.7856 107.385 89.7856C106.415 89.7856 105.625 88.9956 105.625 88.0256C105.625 87.0556 106.415 86.2656 107.385 86.2656Z" fill="white"/>
<path d="M114.436 86.2656C115.406 86.2656 116.196 87.0556 116.196 88.0256C116.196 88.9956 115.406 89.7856 114.436 89.7856C113.466 89.7856 112.676 88.9956 112.676 88.0256C112.676 87.0556 113.466 86.2656 114.436 86.2656Z" fill="white"/>
<path d="M121.498 86.2656C122.468 86.2656 123.258 87.0556 123.258 88.0256C123.258 88.9956 122.468 89.7856 121.498 89.7856C120.528 89.7856 119.738 88.9956 119.738 88.0256C119.738 87.0556 120.528 86.2656 121.498 86.2656Z" fill="white"/>
<path d="M125.026 86.2656C125.996 86.2656 126.786 87.0556 126.786 88.0256C126.786 88.9956 125.996 89.7856 125.026 89.7856C124.056 89.7856 123.266 88.9956 123.266 88.0256C123.266 87.0556 124.056 86.2656 125.026 86.2656Z" fill="white"/>
<path d="M128.557 86.2656C129.527 86.2656 130.317 87.0556 130.317 88.0256C130.317 88.9956 129.527 89.7856 128.557 89.7856C127.587 89.7856 126.797 88.9956 126.797 88.0256C126.797 87.0556 127.587 86.2656 128.557 86.2656Z" fill="white"/>
<path d="M135.608 86.2656C136.578 86.2656 137.368 87.0556 137.368 88.0256C137.368 88.9956 136.578 89.7856 135.608 89.7856C134.638 89.7856 133.848 88.9956 133.848 88.0256C133.848 87.0556 134.638 86.2656 135.608 86.2656Z" fill="white"/>
<path d="M139.135 86.2656C140.105 86.2656 140.895 87.0556 140.895 88.0256C140.895 88.9956 140.105 89.7856 139.135 89.7856C138.165 89.7856 137.375 88.9956 137.375 88.0256C137.375 87.0556 138.165 86.2656 139.135 86.2656Z" fill="white"/>
<path d="M142.666 86.2656C143.636 86.2656 144.426 87.0556 144.426 88.0256C144.426 88.9956 143.636 89.7856 142.666 89.7856C141.696 89.7856 140.906 88.9956 140.906 88.0256C140.906 87.0556 141.696 86.2656 142.666 86.2656Z" fill="white"/>
<path d="M57.9866 89.7969C58.9566 89.7969 59.7466 90.5869 59.7466 91.5569C59.7466 92.5269 58.9566 93.3169 57.9866 93.3169C57.0166 93.3169 56.2266 92.5269 56.2266 91.5569C56.2266 90.5869 57.0166 89.7969 57.9866 89.7969Z" fill="white"/>
<path d="M61.5178 89.7969C62.4878 89.7969 63.2778 90.5869 63.2778 91.5569C63.2778 92.5269 62.4878 93.3169 61.5178 93.3169C60.5478 93.3169 59.7578 92.5269 59.7578 91.5569C59.7578 90.5869 60.5478 89.7969 61.5178 89.7969Z" fill="white"/>
<path d="M65.0452 89.7969C66.0152 89.7969 66.8052 90.5869 66.8052 91.5569C66.8052 92.5269 66.0152 93.3169 65.0452 93.3169C64.0752 93.3169 63.2852 92.5269 63.2852 91.5569C63.2852 90.5869 64.0752 89.7969 65.0452 89.7969Z" fill="white"/>
<path d="M75.6272 89.7969C76.5972 89.7969 77.3872 90.5869 77.3872 91.5569C77.3872 92.5269 76.5972 93.3169 75.6272 93.3169C74.6572 93.3169 73.8672 92.5269 73.8672 91.5569C73.8672 90.5869 74.6572 89.7969 75.6272 89.7969Z" fill="white"/>
<path d="M96.7952 89.7969C97.7652 89.7969 98.5552 90.5869 98.5552 91.5569C98.5552 92.5269 97.7652 93.3169 96.7952 93.3169C95.8252 93.3169 95.0352 92.5269 95.0352 91.5569C95.0352 90.5869 95.8252 89.7969 96.7952 89.7969Z" fill="white"/>
<path d="M103.858 89.7969C104.828 89.7969 105.618 90.5869 105.618 91.5569C105.618 92.5269 104.828 93.3169 103.858 93.3169C102.888 93.3169 102.098 92.5269 102.098 91.5569C102.098 90.5869 102.888 89.7969 103.858 89.7969Z" fill="white"/>
<path d="M110.908 89.7969C111.878 89.7969 112.668 90.5869 112.668 91.5569C112.668 92.5269 111.878 93.3169 110.908 93.3169C109.938 93.3169 109.148 92.5269 109.148 91.5569C109.148 90.5869 109.938 89.7969 110.908 89.7969Z" fill="white"/>
<path d="M114.436 89.7969C115.406 89.7969 116.196 90.5869 116.196 91.5569C116.196 92.5269 115.406 93.3169 114.436 93.3169C113.466 93.3169 112.676 92.5269 112.676 91.5569C112.676 90.5869 113.466 89.7969 114.436 89.7969Z" fill="white"/>
<path d="M128.557 89.7969C129.527 89.7969 130.317 90.5869 130.317 91.5569C130.317 92.5269 129.527 93.3169 128.557 93.3169C127.587 93.3169 126.797 92.5269 126.797 91.5569C126.797 90.5869 127.587 89.7969 128.557 89.7969Z" fill="white"/>
<path d="M139.135 89.7969C140.105 89.7969 140.895 90.5869 140.895 91.5569C140.895 92.5269 140.105 93.3169 139.135 93.3169C138.165 93.3169 137.375 92.5269 137.375 91.5569C137.375 90.5869 138.165 89.7969 139.135 89.7969Z" fill="white"/>
<path d="M61.5178 93.3281C62.4878 93.3281 63.2778 94.1181 63.2778 95.0881C63.2778 96.0581 62.4878 96.8481 61.5178 96.8481C60.5478 96.8481 59.7578 96.0581 59.7578 95.0881C59.7578 94.1181 60.5478 93.3281 61.5178 93.3281Z" fill="white"/>
<path d="M65.0452 93.3281C66.0152 93.3281 66.8052 94.1181 66.8052 95.0881C66.8052 96.0581 66.0152 96.8481 65.0452 96.8481C64.0752 96.8481 63.2852 96.0581 63.2852 95.0881C63.2852 94.1181 64.0752 93.3281 65.0452 93.3281Z" fill="white"/>
<path d="M68.5647 93.3281C69.5347 93.3281 70.3247 94.1181 70.3247 95.0881C70.3247 96.0581 69.5347 96.8481 68.5647 96.8481C67.5947 96.8481 66.8047 96.0581 66.8047 95.0881C66.8047 94.1181 67.5947 93.3281 68.5647 93.3281Z" fill="white"/>
<path d="M79.1584 93.3281C80.1284 93.3281 80.9184 94.1181 80.9184 95.0881C80.9184 96.0581 80.1284 96.8481 79.1584 96.8481C78.1884 96.8481 77.3984 96.0581 77.3984 95.0881C77.3984 94.1181 78.1884 93.3281 79.1584 93.3281Z" fill="white"/>
<path d="M82.6858 93.3281C83.6558 93.3281 84.4458 94.1181 84.4458 95.0881C84.4458 96.0581 83.6558 96.8481 82.6858 96.8481C81.7158 96.8481 80.9258 96.0581 80.9258 95.0881C80.9258 94.1181 81.7158 93.3281 82.6858 93.3281Z" fill="white"/>
<path d="M86.217 93.3281C87.187 93.3281 87.977 94.1181 87.977 95.0881C87.977 96.0581 87.187 96.8481 86.217 96.8481C85.247 96.8481 84.457 96.0581 84.457 95.0881C84.457 94.1181 85.247 93.3281 86.217 93.3281Z" fill="white"/>
<path d="M93.2678 93.3281C94.2378 93.3281 95.0278 94.1181 95.0278 95.0881C95.0278 96.0581 94.2378 96.8481 93.2678 96.8481C92.2978 96.8481 91.5078 96.0581 91.5078 95.0881C91.5078 94.1181 92.2978 93.3281 93.2678 93.3281Z" fill="white"/>
<path d="M96.7952 93.3281C97.7652 93.3281 98.5552 94.1181 98.5552 95.0881C98.5552 96.0581 97.7652 96.8481 96.7952 96.8481C95.8252 96.8481 95.0352 96.0581 95.0352 95.0881C95.0352 94.1181 95.8252 93.3281 96.7952 93.3281Z" fill="white"/>
<path d="M100.326 93.3281C101.296 93.3281 102.086 94.1181 102.086 95.0881C102.086 96.0581 101.296 96.8481 100.326 96.8481C99.3564 96.8481 98.5664 96.0581 98.5664 95.0881C98.5664 94.1181 99.3564 93.3281 100.326 93.3281Z" fill="white"/>
<path d="M103.858 93.3281C104.828 93.3281 105.618 94.1181 105.618 95.0881C105.618 96.0581 104.828 96.8481 103.858 96.8481C102.888 96.8481 102.098 96.0581 102.098 95.0881C102.098 94.1181 102.888 93.3281 103.858 93.3281Z" fill="white"/>
<path d="M107.385 93.3281C108.355 93.3281 109.145 94.1181 109.145 95.0881C109.145 96.0581 108.355 96.8481 107.385 96.8481C106.415 96.8481 105.625 96.0581 105.625 95.0881C105.625 94.1181 106.415 93.3281 107.385 93.3281Z" fill="white"/>
<path d="M114.436 93.3281C115.406 93.3281 116.196 94.1181 116.196 95.0881C116.196 96.0581 115.406 96.8481 114.436 96.8481C113.466 96.8481 112.676 96.0581 112.676 95.0881C112.676 94.1181 113.466 93.3281 114.436 93.3281Z" fill="white"/>
<path d="M117.967 93.3281C118.937 93.3281 119.727 94.1181 119.727 95.0881C119.727 96.0581 118.937 96.8481 117.967 96.8481C116.997 96.8481 116.207 96.0581 116.207 95.0881C116.207 94.1181 116.997 93.3281 117.967 93.3281Z" fill="white"/>
<path d="M121.498 93.3281C122.468 93.3281 123.258 94.1181 123.258 95.0881C123.258 96.0581 122.468 96.8481 121.498 96.8481C120.528 96.8481 119.738 96.0581 119.738 95.0881C119.738 94.1181 120.528 93.3281 121.498 93.3281Z" fill="white"/>
<path d="M132.076 93.3281C133.046 93.3281 133.836 94.1181 133.836 95.0881C133.836 96.0581 133.046 96.8481 132.076 96.8481C131.106 96.8481 130.316 96.0581 130.316 95.0881C130.316 94.1181 131.106 93.3281 132.076 93.3281Z" fill="white"/>
<path d="M139.135 93.3281C140.105 93.3281 140.895 94.1181 140.895 95.0881C140.895 96.0581 140.105 96.8481 139.135 96.8481C138.165 96.8481 137.375 96.0581 137.375 95.0881C137.375 94.1181 138.165 93.3281 139.135 93.3281Z" fill="white"/>
<path d="M142.666 93.3281C143.636 93.3281 144.426 94.1181 144.426 95.0881C144.426 96.0581 143.636 96.8481 142.666 96.8481C141.696 96.8481 140.906 96.0581 140.906 95.0881C140.906 94.1181 141.696 93.3281 142.666 93.3281Z" fill="white"/>
<path d="M65.0452 96.8516C66.0152 96.8516 66.8052 97.6416 66.8052 98.6116C66.8052 99.5816 66.0152 100.372 65.0452 100.372C64.0752 100.372 63.2852 99.5816 63.2852 98.6116C63.2852 97.6416 64.0752 96.8516 65.0452 96.8516Z" fill="white"/>
<path d="M75.6272 96.8516C76.5972 96.8516 77.3872 97.6416 77.3872 98.6116C77.3872 99.5816 76.5972 100.372 75.6272 100.372C74.6572 100.372 73.8672 99.5816 73.8672 98.6116C73.8672 97.6416 74.6572 96.8516 75.6272 96.8516Z" fill="white"/>
<path d="M86.217 96.8516C87.187 96.8516 87.977 97.6416 87.977 98.6116C87.977 99.5816 87.187 100.372 86.217 100.372C85.247 100.372 84.457 99.5816 84.457 98.6116C84.457 97.6416 85.247 96.8516 86.217 96.8516Z" fill="white"/>
<path d="M89.7366 96.8516C90.7066 96.8516 91.4966 97.6416 91.4966 98.6116C91.4966 99.5816 90.7066 100.372 89.7366 100.372C88.7666 100.372 87.9766 99.5816 87.9766 98.6116C87.9766 97.6416 88.7666 96.8516 89.7366 96.8516Z" fill="white"/>
<path d="M96.7952 96.8516C97.7652 96.8516 98.5552 97.6416 98.5552 98.6116C98.5552 99.5816 97.7652 100.372 96.7952 100.372C95.8252 100.372 95.0352 99.5816 95.0352 98.6116C95.0352 97.6416 95.8252 96.8516 96.7952 96.8516Z" fill="white"/>
<path d="M100.326 96.8516C101.296 96.8516 102.086 97.6416 102.086 98.6116C102.086 99.5816 101.296 100.372 100.326 100.372C99.3564 100.372 98.5664 99.5816 98.5664 98.6116C98.5664 97.6416 99.3564 96.8516 100.326 96.8516Z" fill="white"/>
<path d="M114.436 96.8516C115.406 96.8516 116.196 97.6416 116.196 98.6116C116.196 99.5816 115.406 100.372 114.436 100.372C113.466 100.372 112.676 99.5816 112.676 98.6116C112.676 97.6416 113.466 96.8516 114.436 96.8516Z" fill="white"/>
<path d="M121.498 96.8516C122.468 96.8516 123.258 97.6416 123.258 98.6116C123.258 99.5816 122.468 100.372 121.498 100.372C120.528 100.372 119.738 99.5816 119.738 98.6116C119.738 97.6416 120.528 96.8516 121.498 96.8516Z" fill="white"/>
<path d="M132.076 96.8516C133.046 96.8516 133.836 97.6416 133.836 98.6116C133.836 99.5816 133.046 100.372 132.076 100.372C131.106 100.372 130.316 99.5816 130.316 98.6116C130.316 97.6416 131.106 96.8516 132.076 96.8516Z" fill="white"/>
<path d="M142.666 96.8516C143.636 96.8516 144.426 97.6416 144.426 98.6116C144.426 99.5816 143.636 100.372 142.666 100.372C141.696 100.372 140.906 99.5816 140.906 98.6116C140.906 97.6416 141.696 96.8516 142.666 96.8516Z" fill="white"/>
<path d="M57.9866 100.383C58.9566 100.383 59.7466 101.173 59.7466 102.143C59.7466 103.113 58.9566 103.903 57.9866 103.903C57.0166 103.903 56.2266 103.113 56.2266 102.143C56.2266 101.173 57.0166 100.383 57.9866 100.383Z" fill="white"/>
<path d="M72.0959 100.383C73.0659 100.383 73.8559 101.173 73.8559 102.143C73.8559 103.113 73.0659 103.903 72.0959 103.903C71.1259 103.903 70.3359 103.113 70.3359 102.143C70.3359 101.173 71.1259 100.383 72.0959 100.383Z" fill="white"/>
<path d="M75.6272 100.383C76.5972 100.383 77.3872 101.173 77.3872 102.143C77.3872 103.113 76.5972 103.903 75.6272 103.903C74.6572 103.903 73.8672 103.113 73.8672 102.143C73.8672 101.173 74.6572 100.383 75.6272 100.383Z" fill="white"/>
<path d="M79.1584 100.383C80.1284 100.383 80.9184 101.173 80.9184 102.143C80.9184 103.113 80.1284 103.903 79.1584 103.903C78.1884 103.903 77.3984 103.113 77.3984 102.143C77.3984 101.173 78.1884 100.383 79.1584 100.383Z" fill="white"/>
<path d="M82.6858 100.383C83.6558 100.383 84.4458 101.173 84.4458 102.143C84.4458 103.113 83.6558 103.903 82.6858 103.903C81.7158 103.903 80.9258 103.113 80.9258 102.143C80.9258 101.173 81.7158 100.383 82.6858 100.383Z" fill="white"/>
<path d="M86.217 100.383C87.187 100.383 87.977 101.173 87.977 102.143C87.977 103.113 87.187 103.903 86.217 103.903C85.247 103.903 84.457 103.113 84.457 102.143C84.457 101.173 85.247 100.383 86.217 100.383Z" fill="white"/>
<path d="M96.7952 100.383C97.7652 100.383 98.5552 101.173 98.5552 102.143C98.5552 103.113 97.7652 103.903 96.7952 103.903C95.8252 103.903 95.0352 103.113 95.0352 102.143C95.0352 101.173 95.8252 100.383 96.7952 100.383Z" fill="white"/>
<path d="M100.326 100.383C101.296 100.383 102.086 101.173 102.086 102.143C102.086 103.113 101.296 103.903 100.326 103.903C99.3564 103.903 98.5664 103.113 98.5664 102.143C98.5664 101.173 99.3564 100.383 100.326 100.383Z" fill="white"/>
<path d="M103.858 100.383C104.828 100.383 105.618 101.173 105.618 102.143C105.618 103.113 104.828 103.903 103.858 103.903C102.888 103.903 102.098 103.113 102.098 102.143C102.098 101.173 102.888 100.383 103.858 100.383Z" fill="white"/>
<path d="M121.498 100.383C122.468 100.383 123.258 101.173 123.258 102.143C123.258 103.113 122.468 103.903 121.498 103.903C120.528 103.903 119.738 103.113 119.738 102.143C119.738 101.173 120.528 100.383 121.498 100.383Z" fill="white"/>
<path d="M125.026 100.383C125.996 100.383 126.786 101.173 126.786 102.143C126.786 103.113 125.996 103.903 125.026 103.903C124.056 103.903 123.266 103.113 123.266 102.143C123.266 101.173 124.056 100.383 125.026 100.383Z" fill="white"/>
<path d="M135.608 100.383C136.578 100.383 137.368 101.173 137.368 102.143C137.368 103.113 136.578 103.903 135.608 103.903C134.638 103.903 133.848 103.113 133.848 102.143C133.848 101.173 134.638 100.383 135.608 100.383Z" fill="white"/>
<path d="M139.135 100.383C140.105 100.383 140.895 101.173 140.895 102.143C140.895 103.113 140.105 103.903 139.135 103.903C138.165 103.903 137.375 103.113 137.375 102.143C137.375 101.173 138.165 100.383 139.135 100.383Z" fill="white"/>
<path d="M142.666 100.383C143.636 100.383 144.426 101.173 144.426 102.143C144.426 103.113 143.636 103.903 142.666 103.903C141.696 103.903 140.906 103.113 140.906 102.143C140.906 101.173 141.696 100.383 142.666 100.383Z" fill="white"/>
<path d="M61.5178 103.914C62.4878 103.914 63.2778 104.704 63.2778 105.674C63.2778 106.644 62.4878 107.434 61.5178 107.434C60.5478 107.434 59.7578 106.644 59.7578 105.674C59.7578 104.704 60.5478 103.914 61.5178 103.914Z" fill="white"/>
<path d="M100.326 103.914C101.296 103.914 102.086 104.704 102.086 105.674C102.086 106.644 101.296 107.434 100.326 107.434C99.3564 107.434 98.5664 106.644 98.5664 105.674C98.5664 104.704 99.3564 103.914 100.326 103.914Z" fill="white"/>
<path d="M103.858 103.914C104.828 103.914 105.618 104.704 105.618 105.674C105.618 106.644 104.828 107.434 103.858 107.434C102.888 107.434 102.098 106.644 102.098 105.674C102.098 104.704 102.888 103.914 103.858 103.914Z" fill="white"/>
<path d="M110.908 103.914C111.878 103.914 112.668 104.704 112.668 105.674C112.668 106.644 111.878 107.434 110.908 107.434C109.938 107.434 109.148 106.644 109.148 105.674C109.148 104.704 109.938 103.914 110.908 103.914Z" fill="white"/>
<path d="M117.967 103.914C118.937 103.914 119.727 104.704 119.727 105.674C119.727 106.644 118.937 107.434 117.967 107.434C116.997 107.434 116.207 106.644 116.207 105.674C116.207 104.704 116.997 103.914 117.967 103.914Z" fill="white"/>
<path d="M128.557 103.914C129.527 103.914 130.317 104.704 130.317 105.674C130.317 106.644 129.527 107.434 128.557 107.434C127.587 107.434 126.797 106.644 126.797 105.674C126.797 104.704 127.587 103.914 128.557 103.914Z" fill="white"/>
<path d="M139.135 103.914C140.105 103.914 140.895 104.704 140.895 105.674C140.895 106.644 140.105 107.434 139.135 107.434C138.165 107.434 137.375 106.644 137.375 105.674C137.375 104.704 138.165 103.914 139.135 103.914Z" fill="white"/>
<path d="M57.9866 107.438C58.9566 107.438 59.7466 108.228 59.7466 109.198C59.7466 110.168 58.9566 110.958 57.9866 110.958C57.0166 110.958 56.2266 110.168 56.2266 109.198C56.2266 108.228 57.0166 107.438 57.9866 107.438Z" fill="white"/>
<path d="M68.5647 107.438C69.5347 107.438 70.3247 108.228 70.3247 109.198C70.3247 110.168 69.5347 110.958 68.5647 110.958C67.5947 110.958 66.8047 110.168 66.8047 109.198C66.8047 108.228 67.5947 107.438 68.5647 107.438Z" fill="white"/>
<path d="M72.0959 107.438C73.0659 107.438 73.8559 108.228 73.8559 109.198C73.8559 110.168 73.0659 110.958 72.0959 110.958C71.1259 110.958 70.3359 110.168 70.3359 109.198C70.3359 108.228 71.1259 107.438 72.0959 107.438Z" fill="white"/>
<path d="M79.1584 107.438C80.1284 107.438 80.9184 108.228 80.9184 109.198C80.9184 110.168 80.1284 110.958 79.1584 110.958C78.1884 110.958 77.3984 110.168 77.3984 109.198C77.3984 108.228 78.1884 107.438 79.1584 107.438Z" fill="white"/>
<path d="M82.6858 107.438C83.6558 107.438 84.4458 108.228 84.4458 109.198C84.4458 110.168 83.6558 110.958 82.6858 110.958C81.7158 110.958 80.9258 110.168 80.9258 109.198C80.9258 108.228 81.7158 107.438 82.6858 107.438Z" fill="white"/>
<path d="M93.2678 107.438C94.2378 107.438 95.0278 108.228 95.0278 109.198C95.0278 110.168 94.2378 110.958 93.2678 110.958C92.2978 110.958 91.5078 110.168 91.5078 109.198C91.5078 108.228 92.2978 107.438 93.2678 107.438Z" fill="white"/>
<path d="M96.7952 107.438C97.7652 107.438 98.5552 108.228 98.5552 109.198C98.5552 110.168 97.7652 110.958 96.7952 110.958C95.8252 110.958 95.0352 110.168 95.0352 109.198C95.0352 108.228 95.8252 107.438 96.7952 107.438Z" fill="white"/>
<path d="M103.858 107.438C104.828 107.438 105.618 108.228 105.618 109.198C105.618 110.168 104.828 110.958 103.858 110.958C102.888 110.958 102.098 110.168 102.098 109.198C102.098 108.228 102.888 107.438 103.858 107.438Z" fill="white"/>
<path d="M114.436 107.438C115.406 107.438 116.196 108.228 116.196 109.198C116.196 110.168 115.406 110.958 114.436 110.958C113.466 110.958 112.676 110.168 112.676 109.198C112.676 108.228 113.466 107.438 114.436 107.438Z" fill="white"/>
<path d="M117.967 107.438C118.937 107.438 119.727 108.228 119.727 109.198C119.727 110.168 118.937 110.958 117.967 110.958C116.997 110.958 116.207 110.168 116.207 109.198C116.207 108.228 116.997 107.438 117.967 107.438Z" fill="white"/>
<path d="M121.498 107.438C122.468 107.438 123.258 108.228 123.258 109.198C123.258 110.168 122.468 110.958 121.498 110.958C120.528 110.958 119.738 110.168 119.738 109.198C119.738 108.228 120.528 107.438 121.498 107.438Z" fill="white"/>
<path d="M125.026 107.438C125.996 107.438 126.786 108.228 126.786 109.198C126.786 110.168 125.996 110.958 125.026 110.958C124.056 110.958 123.266 110.168 123.266 109.198C123.266 108.228 124.056 107.438 125.026 107.438Z" fill="white"/>
<path d="M128.557 107.438C129.527 107.438 130.317 108.228 130.317 109.198C130.317 110.168 129.527 110.958 128.557 110.958C127.587 110.958 126.797 110.168 126.797 109.198C126.797 108.228 127.587 107.438 128.557 107.438Z" fill="white"/>
<path d="M132.076 107.438C133.046 107.438 133.836 108.228 133.836 109.198C133.836 110.168 133.046 110.958 132.076 110.958C131.106 110.958 130.316 110.168 130.316 109.198C130.316 108.228 131.106 107.438 132.076 107.438Z" fill="white"/>
<path d="M86.217 110.961C87.187 110.961 87.977 111.751 87.977 112.721C87.977 113.691 87.187 114.481 86.217 114.481C85.247 114.481 84.457 113.691 84.457 112.721C84.457 111.751 85.247 110.961 86.217 110.961Z" fill="white"/>
<path d="M89.7366 110.961C90.7066 110.961 91.4966 111.751 91.4966 112.721C91.4966 113.691 90.7066 114.481 89.7366 114.481C88.7666 114.481 87.9766 113.691 87.9766 112.721C87.9766 111.751 88.7666 110.961 89.7366 110.961Z" fill="white"/>
<path d="M96.7952 110.961C97.7652 110.961 98.5552 111.751 98.5552 112.721C98.5552 113.691 97.7652 114.481 96.7952 114.481C95.8252 114.481 95.0352 113.691 95.0352 112.721C95.0352 111.751 95.8252 110.961 96.7952 110.961Z" fill="white"/>
<path d="M103.858 110.961C104.828 110.961 105.618 111.751 105.618 112.721C105.618 113.691 104.828 114.481 103.858 114.481C102.888 114.481 102.098 113.691 102.098 112.721C102.098 111.751 102.888 110.961 103.858 110.961Z" fill="white"/>
<path d="M107.385 110.961C108.355 110.961 109.145 111.751 109.145 112.721C109.145 113.691 108.355 114.481 107.385 114.481C106.415 114.481 105.625 113.691 105.625 112.721C105.625 111.751 106.415 110.961 107.385 110.961Z" fill="white"/>
<path d="M110.908 110.961C111.878 110.961 112.668 111.751 112.668 112.721C112.668 113.691 111.878 114.481 110.908 114.481C109.938 114.481 109.148 113.691 109.148 112.721C109.148 111.751 109.938 110.961 110.908 110.961Z" fill="white"/>
<path d="M114.436 110.961C115.406 110.961 116.196 111.751 116.196 112.721C116.196 113.691 115.406 114.481 114.436 114.481C113.466 114.481 112.676 113.691 112.676 112.721C112.676 111.751 113.466 110.961 114.436 110.961Z" fill="white"/>
<path d="M128.557 110.961C129.527 110.961 130.317 111.751 130.317 112.721C130.317 113.691 129.527 114.481 128.557 114.481C127.587 114.481 126.797 113.691 126.797 112.721C126.797 111.751 127.587 110.961 128.557 110.961Z" fill="white"/>
<path d="M132.076 110.961C133.046 110.961 133.836 111.751 133.836 112.721C133.836 113.691 133.046 114.481 132.076 114.481C131.106 114.481 130.316 113.691 130.316 112.721C130.316 111.751 131.106 110.961 132.076 110.961Z" fill="white"/>
<path d="M139.135 110.961C140.105 110.961 140.895 111.751 140.895 112.721C140.895 113.691 140.105 114.481 139.135 114.481C138.165 114.481 137.375 113.691 137.375 112.721C137.375 111.751 138.165 110.961 139.135 110.961Z" fill="white"/>
<path d="M142.666 110.961C143.636 110.961 144.426 111.751 144.426 112.721C144.426 113.691 143.636 114.481 142.666 114.481C141.696 114.481 140.906 113.691 140.906 112.721C140.906 111.751 141.696 110.961 142.666 110.961Z" fill="white"/>
<path d="M89.7366 114.492C90.7066 114.492 91.4966 115.282 91.4966 116.252C91.4966 117.222 90.7066 118.012 89.7366 118.012C88.7666 118.012 87.9766 117.222 87.9766 116.252C87.9766 115.282 88.7666 114.492 89.7366 114.492Z" fill="white"/>
<path d="M103.858 114.492C104.828 114.492 105.618 115.282 105.618 116.252C105.618 117.222 104.828 118.012 103.858 118.012C102.888 118.012 102.098 117.222 102.098 116.252C102.098 115.282 102.888 114.492 103.858 114.492Z" fill="white"/>
<path d="M107.385 114.492C108.355 114.492 109.145 115.282 109.145 116.252C109.145 117.222 108.355 118.012 107.385 118.012C106.415 118.012 105.625 117.222 105.625 116.252C105.625 115.282 106.415 114.492 107.385 114.492Z" fill="white"/>
<path d="M110.908 114.492C111.878 114.492 112.668 115.282 112.668 116.252C112.668 117.222 111.878 118.012 110.908 118.012C109.938 118.012 109.148 117.222 109.148 116.252C109.148 115.282 109.938 114.492 110.908 114.492Z" fill="white"/>
<path d="M114.436 114.492C115.406 114.492 116.196 115.282 116.196 116.252C116.196 117.222 115.406 118.012 114.436 118.012C113.466 118.012 112.676 117.222 112.676 116.252C112.676 115.282 113.466 114.492 114.436 114.492Z" fill="white"/>
<path d="M121.498 114.492C122.468 114.492 123.258 115.282 123.258 116.252C123.258 117.222 122.468 118.012 121.498 118.012C120.528 118.012 119.738 117.222 119.738 116.252C119.738 115.282 120.528 114.492 121.498 114.492Z" fill="white"/>
<path d="M128.557 114.492C129.527 114.492 130.317 115.282 130.317 116.252C130.317 117.222 129.527 118.012 128.557 118.012C127.587 118.012 126.797 117.222 126.797 116.252C126.797 115.282 127.587 114.492 128.557 114.492Z" fill="white"/>
<path d="M132.076 114.492C133.046 114.492 133.836 115.282 133.836 116.252C133.836 117.222 133.046 118.012 132.076 118.012C131.106 118.012 130.316 117.222 130.316 116.252C130.316 115.282 131.106 114.492 132.076 114.492Z" fill="white"/>
<path d="M139.135 114.492C140.105 114.492 140.895 115.282 140.895 116.252C140.895 117.222 140.105 118.012 139.135 118.012C138.165 118.012 137.375 117.222 137.375 116.252C137.375 115.282 138.165 114.492 139.135 114.492Z" fill="white"/>
<path d="M142.666 114.492C143.636 114.492 144.426 115.282 144.426 116.252C144.426 117.222 143.636 118.012 142.666 118.012C141.696 118.012 140.906 117.222 140.906 116.252C140.906 115.282 141.696 114.492 142.666 114.492Z" fill="white"/>
<path d="M89.7366 118.023C90.7066 118.023 91.4966 118.813 91.4966 119.783C91.4966 120.753 90.7066 121.543 89.7366 121.543C88.7666 121.543 87.9766 120.753 87.9766 119.783C87.9766 118.813 88.7666 118.023 89.7366 118.023Z" fill="white"/>
<path d="M96.7952 118.023C97.7652 118.023 98.5552 118.813 98.5552 119.783C98.5552 120.753 97.7652 121.543 96.7952 121.543C95.8252 121.543 95.0352 120.753 95.0352 119.783C95.0352 118.813 95.8252 118.023 96.7952 118.023Z" fill="white"/>
<path d="M103.858 118.023C104.828 118.023 105.618 118.813 105.618 119.783C105.618 120.753 104.828 121.543 103.858 121.543C102.888 121.543 102.098 120.753 102.098 119.783C102.098 118.813 102.888 118.023 103.858 118.023Z" fill="white"/>
<path d="M114.436 118.023C115.406 118.023 116.196 118.813 116.196 119.783C116.196 120.753 115.406 121.543 114.436 121.543C113.466 121.543 112.676 120.753 112.676 119.783C112.676 118.813 113.466 118.023 114.436 118.023Z" fill="white"/>
<path d="M128.557 118.023C129.527 118.023 130.317 118.813 130.317 119.783C130.317 120.753 129.527 121.543 128.557 121.543C127.587 121.543 126.797 120.753 126.797 119.783C126.797 118.813 127.587 118.023 128.557 118.023Z" fill="white"/>
<path d="M132.076 118.023C133.046 118.023 133.836 118.813 133.836 119.783C133.836 120.753 133.046 121.543 132.076 121.543C131.106 121.543 130.316 120.753 130.316 119.783C130.316 118.813 131.106 118.023 132.076 118.023Z" fill="white"/>
<path d="M142.666 118.023C143.636 118.023 144.426 118.813 144.426 119.783C144.426 120.753 143.636 121.543 142.666 121.543C141.696 121.543 140.906 120.753 140.906 119.783C140.906 118.813 141.696 118.023 142.666 118.023Z" fill="white"/>
<path d="M86.217 121.555C87.187 121.555 87.977 122.345 87.977 123.315C87.977 124.285 87.187 125.075 86.217 125.075C85.247 125.075 84.457 124.285 84.457 123.315C84.457 122.345 85.247 121.555 86.217 121.555Z" fill="white"/>
<path d="M93.2678 121.555C94.2378 121.555 95.0278 122.345 95.0278 123.315C95.0278 124.285 94.2378 125.075 93.2678 125.075C92.2978 125.075 91.5078 124.285 91.5078 123.315C91.5078 122.345 92.2978 121.555 93.2678 121.555Z" fill="white"/>
<path d="M100.326 121.555C101.296 121.555 102.086 122.345 102.086 123.315C102.086 124.285 101.296 125.075 100.326 125.075C99.3564 125.075 98.5664 124.285 98.5664 123.315C98.5664 122.345 99.3564 121.555 100.326 121.555Z" fill="white"/>
<path d="M103.858 121.555C104.828 121.555 105.618 122.345 105.618 123.315C105.618 124.285 104.828 125.075 103.858 125.075C102.888 125.075 102.098 124.285 102.098 123.315C102.098 122.345 102.888 121.555 103.858 121.555Z" fill="white"/>
<path d="M114.436 121.555C115.406 121.555 116.196 122.345 116.196 123.315C116.196 124.285 115.406 125.075 114.436 125.075C113.466 125.075 112.676 124.285 112.676 123.315C112.676 122.345 113.466 121.555 114.436 121.555Z" fill="white"/>
<path d="M117.967 121.555C118.937 121.555 119.727 122.345 119.727 123.315C119.727 124.285 118.937 125.075 117.967 125.075C116.997 125.075 116.207 124.285 116.207 123.315C116.207 122.345 116.997 121.555 117.967 121.555Z" fill="white"/>
<path d="M121.498 121.555C122.468 121.555 123.258 122.345 123.258 123.315C123.258 124.285 122.468 125.075 121.498 125.075C120.528 125.075 119.738 124.285 119.738 123.315C119.738 122.345 120.528 121.555 121.498 121.555Z" fill="white"/>
<path d="M125.026 121.555C125.996 121.555 126.786 122.345 126.786 123.315C126.786 124.285 125.996 125.075 125.026 125.075C124.056 125.075 123.266 124.285 123.266 123.315C123.266 122.345 124.056 121.555 125.026 121.555Z" fill="white"/>
<path d="M128.557 121.555C129.527 121.555 130.317 122.345 130.317 123.315C130.317 124.285 129.527 125.075 128.557 125.075C127.587 125.075 126.797 124.285 126.797 123.315C126.797 122.345 127.587 121.555 128.557 121.555Z" fill="white"/>
<path d="M132.076 121.555C133.046 121.555 133.836 122.345 133.836 123.315C133.836 124.285 133.046 125.075 132.076 125.075C131.106 125.075 130.316 124.285 130.316 123.315C130.316 122.345 131.106 121.555 132.076 121.555Z" fill="white"/>
<path d="M139.135 121.555C140.105 121.555 140.895 122.345 140.895 123.315C140.895 124.285 140.105 125.075 139.135 125.075C138.165 125.075 137.375 124.285 137.375 123.315C137.375 122.345 138.165 121.555 139.135 121.555Z" fill="white"/>
<path d="M142.666 121.555C143.636 121.555 144.426 122.345 144.426 123.315C144.426 124.285 143.636 125.075 142.666 125.075C141.696 125.075 140.906 124.285 140.906 123.315C140.906 122.345 141.696 121.555 142.666 121.555Z" fill="white"/>
<path d="M89.7366 125.086C90.7066 125.086 91.4966 125.876 91.4966 126.846C91.4966 127.816 90.7066 128.606 89.7366 128.606C88.7666 128.606 87.9766 127.816 87.9766 126.846C87.9766 125.876 88.7666 125.086 89.7366 125.086Z" fill="white"/>
<path d="M96.7952 125.086C97.7652 125.086 98.5552 125.876 98.5552 126.846C98.5552 127.816 97.7652 128.606 96.7952 128.606C95.8252 128.606 95.0352 127.816 95.0352 126.846C95.0352 125.876 95.8252 125.086 96.7952 125.086Z" fill="white"/>
<path d="M100.326 125.086C101.296 125.086 102.086 125.876 102.086 126.846C102.086 127.816 101.296 128.606 100.326 128.606C99.3564 128.606 98.5664 127.816 98.5664 126.846C98.5664 125.876 99.3564 125.086 100.326 125.086Z" fill="white"/>
<path d="M103.858 125.086C104.828 125.086 105.618 125.876 105.618 126.846C105.618 127.816 104.828 128.606 103.858 128.606C102.888 128.606 102.098 127.816 102.098 126.846C102.098 125.876 102.888 125.086 103.858 125.086Z" fill="white"/>
<path d="M107.385 125.086C108.355 125.086 109.145 125.876 109.145 126.846C109.145 127.816 108.355 128.606 107.385 128.606C106.415 128.606 105.625 127.816 105.625 126.846C105.625 125.876 106.415 125.086 107.385 125.086Z" fill="white"/>
<path d="M110.908 125.086C111.878 125.086 112.668 125.876 112.668 126.846C112.668 127.816 111.878 128.606 110.908 128.606C109.938 128.606 109.148 127.816 109.148 126.846C109.148 125.876 109.938 125.086 110.908 125.086Z" fill="white"/>
<path d="M114.436 125.086C115.406 125.086 116.196 125.876 116.196 126.846C116.196 127.816 115.406 128.606 114.436 128.606C113.466 128.606 112.676 127.816 112.676 126.846C112.676 125.876 113.466 125.086 114.436 125.086Z" fill="white"/>
<path d="M125.026 125.086C125.996 125.086 126.786 125.876 126.786 126.846C126.786 127.816 125.996 128.606 125.026 128.606C124.056 128.606 123.266 127.816 123.266 126.846C123.266 125.876 124.056 125.086 125.026 125.086Z" fill="white"/>
<path d="M128.557 125.086C129.527 125.086 130.317 125.876 130.317 126.846C130.317 127.816 129.527 128.606 128.557 128.606C127.587 128.606 126.797 127.816 126.797 126.846C126.797 125.876 127.587 125.086 128.557 125.086Z" fill="white"/>
<path d="M132.076 125.086C133.046 125.086 133.836 125.876 133.836 126.846C133.836 127.816 133.046 128.606 132.076 128.606C131.106 128.606 130.316 127.816 130.316 126.846C130.316 125.876 131.106 125.086 132.076 125.086Z" fill="white"/>
<path d="M135.608 125.086C136.578 125.086 137.368 125.876 137.368 126.846C137.368 127.816 136.578 128.606 135.608 128.606C134.638 128.606 133.848 127.816 133.848 126.846C133.848 125.876 134.638 125.086 135.608 125.086Z" fill="white"/>
<path d="M86.217 128.602C87.187 128.602 87.977 129.392 87.977 130.362C87.977 131.332 87.187 132.122 86.217 132.122C85.247 132.122 84.457 131.332 84.457 130.362C84.457 129.392 85.247 128.602 86.217 128.602Z" fill="white"/>
<path d="M93.2678 128.602C94.2378 128.602 95.0278 129.392 95.0278 130.362C95.0278 131.332 94.2378 132.122 93.2678 132.122C92.2978 132.122 91.5078 131.332 91.5078 130.362C91.5078 129.392 92.2978 128.602 93.2678 128.602Z" fill="white"/>
<path d="M96.7952 128.602C97.7652 128.602 98.5552 129.392 98.5552 130.362C98.5552 131.332 97.7652 132.122 96.7952 132.122C95.8252 132.122 95.0352 131.332 95.0352 130.362C95.0352 129.392 95.8252 128.602 96.7952 128.602Z" fill="white"/>
<path d="M100.326 128.602C101.296 128.602 102.086 129.392 102.086 130.362C102.086 131.332 101.296 132.122 100.326 132.122C99.3564 132.122 98.5664 131.332 98.5664 130.362C98.5664 129.392 99.3564 128.602 100.326 128.602Z" fill="white"/>
<path d="M110.908 128.602C111.878 128.602 112.668 129.392 112.668 130.362C112.668 131.332 111.878 132.122 110.908 132.122C109.938 132.122 109.148 131.332 109.148 130.362C109.148 129.392 109.938 128.602 110.908 128.602Z" fill="white"/>
<path d="M117.967 128.602C118.937 128.602 119.727 129.392 119.727 130.362C119.727 131.332 118.937 132.122 117.967 132.122C116.997 132.122 116.207 131.332 116.207 130.362C116.207 129.392 116.997 128.602 117.967 128.602Z" fill="white"/>
<path d="M128.557 128.602C129.527 128.602 130.317 129.392 130.317 130.362C130.317 131.332 129.527 132.122 128.557 132.122C127.587 132.122 126.797 131.332 126.797 130.362C126.797 129.392 127.587 128.602 128.557 128.602Z" fill="white"/>
<path d="M142.666 128.602C143.636 128.602 144.426 129.392 144.426 130.362C144.426 131.332 143.636 132.122 142.666 132.122C141.696 132.122 140.906 131.332 140.906 130.362C140.906 129.392 141.696 128.602 142.666 128.602Z" fill="white"/>
<path d="M89.7366 132.133C90.7066 132.133 91.4966 132.923 91.4966 133.893C91.4966 134.863 90.7066 135.653 89.7366 135.653C88.7666 135.653 87.9766 134.863 87.9766 133.893C87.9766 132.923 88.7666 132.133 89.7366 132.133Z" fill="white"/>
<path d="M100.326 132.133C101.296 132.133 102.086 132.923 102.086 133.893C102.086 134.863 101.296 135.653 100.326 135.653C99.3564 135.653 98.5664 134.863 98.5664 133.893C98.5664 132.923 99.3564 132.133 100.326 132.133Z" fill="white"/>
<path d="M103.858 132.133C104.828 132.133 105.618 132.923 105.618 133.893C105.618 134.863 104.828 135.653 103.858 135.653C102.888 135.653 102.098 134.863 102.098 133.893C102.098 132.923 102.888 132.133 103.858 132.133Z" fill="white"/>
<path d="M107.385 132.133C108.355 132.133 109.145 132.923 109.145 133.893C109.145 134.863 108.355 135.653 107.385 135.653C106.415 135.653 105.625 134.863 105.625 133.893C105.625 132.923 106.415 132.133 107.385 132.133Z" fill="white"/>
<path d="M110.908 132.133C111.878 132.133 112.668 132.923 112.668 133.893C112.668 134.863 111.878 135.653 110.908 135.653C109.938 135.653 109.148 134.863 109.148 133.893C109.148 132.923 109.938 132.133 110.908 132.133Z" fill="white"/>
<path d="M114.436 132.133C115.406 132.133 116.196 132.923 116.196 133.893C116.196 134.863 115.406 135.653 114.436 135.653C113.466 135.653 112.676 134.863 112.676 133.893C112.676 132.923 113.466 132.133 114.436 132.133Z" fill="white"/>
<path d="M117.967 132.133C118.937 132.133 119.727 132.923 119.727 133.893C119.727 134.863 118.937 135.653 117.967 135.653C116.997 135.653 116.207 134.863 116.207 133.893C116.207 132.923 116.997 132.133 117.967 132.133Z" fill="white"/>
<path d="M128.557 132.133C129.527 132.133 130.317 132.923 130.317 133.893C130.317 134.863 129.527 135.653 128.557 135.653C127.587 135.653 126.797 134.863 126.797 133.893C126.797 132.923 127.587 132.133 128.557 132.133Z" fill="white"/>
<path d="M132.076 132.133C133.046 132.133 133.836 132.923 133.836 133.893C133.836 134.863 133.046 135.653 132.076 135.653C131.106 135.653 130.316 134.863 130.316 133.893C130.316 132.923 131.106 132.133 132.076 132.133Z" fill="white"/>
<path d="M139.135 132.133C140.105 132.133 140.895 132.923 140.895 133.893C140.895 134.863 140.105 135.653 139.135 135.653C138.165 135.653 137.375 134.863 137.375 133.893C137.375 132.923 138.165 132.133 139.135 132.133Z" fill="white"/>
<path d="M86.217 135.664C87.187 135.664 87.977 136.454 87.977 137.424C87.977 138.394 87.187 139.184 86.217 139.184C85.247 139.184 84.457 138.394 84.457 137.424C84.457 136.454 85.247 135.664 86.217 135.664Z" fill="white"/>
<path d="M93.2678 135.664C94.2378 135.664 95.0278 136.454 95.0278 137.424C95.0278 138.394 94.2378 139.184 93.2678 139.184C92.2978 139.184 91.5078 138.394 91.5078 137.424C91.5078 136.454 92.2978 135.664 93.2678 135.664Z" fill="white"/>
<path d="M96.7952 135.664C97.7652 135.664 98.5552 136.454 98.5552 137.424C98.5552 138.394 97.7652 139.184 96.7952 139.184C95.8252 139.184 95.0352 138.394 95.0352 137.424C95.0352 136.454 95.8252 135.664 96.7952 135.664Z" fill="white"/>
<path d="M100.326 135.664C101.296 135.664 102.086 136.454 102.086 137.424C102.086 138.394 101.296 139.184 100.326 139.184C99.3564 139.184 98.5664 138.394 98.5664 137.424C98.5664 136.454 99.3564 135.664 100.326 135.664Z" fill="white"/>
<path d="M107.385 135.664C108.355 135.664 109.145 136.454 109.145 137.424C109.145 138.394 108.355 139.184 107.385 139.184C106.415 139.184 105.625 138.394 105.625 137.424C105.625 136.454 106.415 135.664 107.385 135.664Z" fill="white"/>
<path d="M114.436 135.664C115.406 135.664 116.196 136.454 116.196 137.424C116.196 138.394 115.406 139.184 114.436 139.184C113.466 139.184 112.676 138.394 112.676 137.424C112.676 136.454 113.466 135.664 114.436 135.664Z" fill="white"/>
<path d="M117.967 135.664C118.937 135.664 119.727 136.454 119.727 137.424C119.727 138.394 118.937 139.184 117.967 139.184C116.997 139.184 116.207 138.394 116.207 137.424C116.207 136.454 116.997 135.664 117.967 135.664Z" fill="white"/>
<path d="M125.026 135.664C125.996 135.664 126.786 136.454 126.786 137.424C126.786 138.394 125.996 139.184 125.026 139.184C124.056 139.184 123.266 138.394 123.266 137.424C123.266 136.454 124.056 135.664 125.026 135.664Z" fill="white"/>
<path d="M139.135 135.664C140.105 135.664 140.895 136.454 140.895 137.424C140.895 138.394 140.105 139.184 139.135 139.184C138.165 139.184 137.375 138.394 137.375 137.424C137.375 136.454 138.165 135.664 139.135 135.664Z" fill="white"/>
<path d="M142.666 135.664C143.636 135.664 144.426 136.454 144.426 137.424C144.426 138.394 143.636 139.184 142.666 139.184C141.696 139.184 140.906 138.394 140.906 137.424C140.906 136.454 141.696 135.664 142.666 135.664Z" fill="white"/>
<path d="M68.567 51.2266C61.877 51.2266 56.457 56.6466 56.457 63.3366C56.457 70.0266 61.877 75.4466 68.567 75.4466C75.257 75.4466 80.677 70.0266 80.677 63.3366C80.677 56.6466 75.257 51.2266 68.567 51.2266ZM68.567 71.8066C63.897 71.8066 60.097 68.0066 60.097 63.3366C60.097 58.6666 63.897 54.8666 68.567 54.8666C73.237 54.8666 77.037 58.6666 77.037 63.3366C77.037 68.0066 73.237 71.8066 68.567 71.8066Z" fill="white"/>
<path d="M132.075 51.2266C125.385 51.2266 119.965 56.6466 119.965 63.3366C119.965 70.0266 125.385 75.4466 132.075 75.4466C138.765 75.4466 144.185 70.0266 144.185 63.3366C144.185 56.6466 138.765 51.2266 132.075 51.2266ZM132.075 71.8066C127.405 71.8066 123.605 68.0066 123.605 63.3366C123.605 58.6666 127.405 54.8666 132.075 54.8666C136.745 54.8666 140.545 58.6666 140.545 63.3366C140.545 68.0066 136.745 71.8066 132.075 71.8066Z" fill="white"/>
<path d="M68.567 114.734C61.877 114.734 56.457 120.154 56.457 126.844C56.457 133.534 61.877 138.954 68.567 138.954C75.257 138.954 80.677 133.534 80.677 126.844C80.677 120.154 75.257 114.734 68.567 114.734ZM68.567 135.314C63.897 135.314 60.097 131.514 60.097 126.844C60.097 122.174 63.897 118.374 68.567 118.374C73.237 118.374 77.037 122.174 77.037 126.844C77.037 131.514 73.237 135.314 68.567 135.314Z" fill="white"/>
<path d="M73.6573 63.2369C73.6573 66.1069 71.3373 68.4269 68.4673 68.4269C65.5973 68.4269 63.2773 66.1069 63.2773 63.2369C63.2773 60.3669 65.5973 58.0469 68.4673 58.0469C71.3373 58.0469 73.6573 60.3669 73.6573 63.2369Z" fill="white"/>
<path d="M137.165 63.2369C137.165 66.1069 134.845 68.4269 131.975 68.4269C129.105 68.4269 126.785 66.1069 126.785 63.2369C126.785 60.3669 129.105 58.0469 131.975 58.0469C134.845 58.0469 137.165 60.3669 137.165 63.2369Z" fill="white"/>
<path d="M73.6573 126.745C73.6573 129.615 71.3373 131.935 68.4673 131.935C65.5973 131.935 63.2773 129.615 63.2773 126.745C63.2773 123.875 65.5973 121.555 68.4673 121.555C71.3373 121.555 73.6573 123.875 73.6573 126.745Z" fill="white"/>
</svg>
