<svg width="199" height="199" viewBox="0 0 199 199" fill="none" xmlns="http://www.w3.org/2000/svg">
<path d="M198.529 99.3663C198.529 44.5763 154.109 0.15625 99.3193 0.15625C44.5293 0.15625 0.109375 44.5763 0.109375 99.3663C0.109375 154.156 44.5293 198.576 99.3193 198.576C154.109 198.576 198.529 154.156 198.529 99.3663Z" fill="white"/>
<path d="M52.1906 113.904H23.9506V123.194H17.3906V108.234H21.5906C21.8706 108.134 22.1306 108.004 22.3806 107.864C23.0506 107.484 23.6005 106.934 24.0605 106.234C24.5105 105.504 24.8606 104.664 25.1106 103.714C25.3906 102.734 25.6205 101.664 25.7905 100.514C25.9305 99.3642 26.0506 98.3041 26.1606 97.3641C26.3006 96.3841 26.4006 95.4241 26.4706 94.4741C26.5406 93.4941 26.5906 92.4841 26.6306 91.4341C26.7006 90.3541 26.7306 89.1041 26.7306 87.7041C26.7706 86.3041 26.7806 84.6941 26.7806 82.8741C26.8106 81.0541 26.8306 78.9041 26.8306 76.4141H52.6606V108.234H58.7506V123.194H52.1906V113.904ZM30.0906 108.234H46.1006V82.0841H32.9806C32.9106 84.3941 32.8606 86.4441 32.8206 88.2241C32.8206 90.0141 32.7806 91.6741 32.7206 93.2141C32.6806 94.7241 32.6006 96.1941 32.4606 97.6241C32.3206 99.0241 32.1106 100.544 31.8306 102.194C31.6606 103.284 31.3806 104.524 30.9906 105.924C30.7506 106.734 30.4506 107.504 30.1006 108.234M82.2706 107.864C82.2706 108.604 82.3606 109.124 82.5306 109.444C82.7406 109.754 83.1306 109.914 83.6906 109.914H84.3206C84.5606 109.914 84.8406 109.874 85.1606 109.804V113.954C84.9506 114.024 84.6706 114.094 84.3206 114.164C84.0006 114.274 83.6706 114.354 83.3206 114.424C82.9706 114.494 82.6206 114.544 82.2706 114.584C81.9206 114.624 81.6206 114.634 81.3806 114.634C80.1606 114.634 79.1406 114.384 78.3406 113.894C77.5306 113.404 77.0106 112.544 76.7606 111.324C75.5706 112.474 74.1006 113.314 72.3506 113.844C70.6406 114.374 68.9706 114.634 67.3606 114.634C66.1406 114.634 64.9606 114.454 63.8406 114.104C62.7206 113.784 61.7206 113.314 60.8506 112.684C60.0106 112.014 59.3305 111.194 58.8005 110.214C58.3105 109.204 58.0706 108.024 58.0706 106.694C58.0706 105.014 58.3706 103.654 58.9606 102.594C59.5906 101.544 60.3906 100.724 61.3806 100.124C62.4006 99.5241 63.5206 99.1141 64.7406 98.8641C66.0006 98.5841 67.2606 98.3741 68.5206 98.2341C69.6006 98.0241 70.6406 97.8841 71.6206 97.8141C72.6006 97.7141 73.4606 97.5541 74.1906 97.3441C74.9606 97.1341 75.5506 96.8241 75.9806 96.4041C76.4306 95.9441 76.6606 95.2841 76.6606 94.4141C76.6606 93.6441 76.4706 93.0142 76.0806 92.5242C75.7306 92.0342 75.2706 91.6641 74.7206 91.4241C74.1906 91.1441 73.6005 90.9641 72.9305 90.9041C72.2705 90.8041 71.6405 90.7441 71.0405 90.7441C69.3605 90.7441 67.9806 91.0941 66.8906 91.7941C65.8106 92.4941 65.1905 93.5741 65.0505 95.0441H59.0706C59.1706 93.2941 59.6006 91.8441 60.3306 90.6841C61.0606 89.5241 61.9906 88.6041 63.1106 87.9041C64.2706 87.2041 65.5606 86.7141 67.0006 86.4341C68.4406 86.1541 69.9106 86.0142 71.4106 86.0142C72.7406 86.0142 74.0506 86.1541 75.3506 86.4341C76.6506 86.7141 77.8005 87.1741 78.8105 87.8041C79.8605 88.4341 80.7006 89.2542 81.3306 90.2742C81.9606 91.2542 82.2706 92.4642 82.2706 93.8942V107.854V107.864ZM76.2905 100.304C75.3805 100.904 74.2605 101.264 72.9305 101.404C71.6005 101.504 70.2706 101.684 68.9406 101.924C68.3106 102.034 67.7006 102.184 67.1006 102.394C66.5106 102.574 65.9806 102.834 65.5306 103.184C65.0806 103.504 64.7105 103.934 64.4305 104.494C64.1905 105.024 64.0605 105.664 64.0605 106.434C64.0605 107.094 64.2506 107.664 64.6406 108.114C65.0306 108.564 65.4806 108.934 66.0006 109.214C66.5606 109.454 67.1506 109.634 67.7806 109.734C68.4506 109.844 69.0406 109.894 69.5706 109.894C70.2406 109.894 70.9506 109.804 71.7206 109.634C72.4906 109.464 73.2106 109.164 73.8706 108.744C74.5706 108.324 75.1506 107.804 75.6006 107.164C76.0506 106.494 76.2806 105.694 76.2806 104.744V100.284L76.2905 100.304ZM84.9906 109.594C85.9006 109.594 86.7605 109.274 87.5605 108.654C88.4005 108.024 89.0006 107.114 89.3506 105.924C89.5606 105.264 89.7206 104.614 89.8206 103.984C89.9606 103.324 90.0706 102.614 90.1306 101.884C90.2406 101.154 90.3106 100.324 90.3406 99.4141C90.3706 98.5041 90.4106 97.4542 90.4406 96.2642C90.4706 95.0742 90.4906 93.7241 90.4906 92.2241C90.5206 90.6841 90.5405 88.8642 90.5405 86.7642H113.061V113.904H107.081V91.2241H96.6306C96.6306 93.4941 96.5906 95.5142 96.5306 97.2642C96.4906 98.9742 96.4306 100.504 96.3206 101.834C96.2506 103.164 96.1506 104.334 96.0106 105.354C95.8706 106.334 95.6805 107.214 95.4305 107.974C95.1905 108.854 94.8706 109.674 94.4906 110.444C94.1406 111.174 93.6006 111.824 92.8606 112.384C92.1606 112.914 91.2006 113.324 89.9706 113.644C88.7806 113.964 87.2006 114.114 85.2506 114.114C84.6906 114.114 84.2206 114.094 83.8306 114.064C83.4506 114.064 83.0605 114.034 82.6805 113.964V109.454C83.0705 109.524 83.4005 109.574 83.6805 109.614H84.9906V109.594ZM132.431 97.9441C132.361 96.9941 132.151 96.0841 131.801 95.2141C131.481 94.3341 131.031 93.5841 130.431 92.9541C129.871 92.2841 129.171 91.7641 128.331 91.3741C127.531 90.9541 126.621 90.7441 125.601 90.7441C124.581 90.7441 123.591 90.9341 122.711 91.3241C121.871 91.6741 121.131 92.1841 120.501 92.8441C119.911 93.4741 119.421 94.2241 119.031 95.1041C118.681 95.9841 118.491 96.9241 118.451 97.9441H132.411H132.431ZM118.471 101.884C118.471 102.934 118.611 103.954 118.891 104.934C119.201 105.914 119.661 106.774 120.251 107.504C120.841 108.244 121.601 108.834 122.511 109.284C123.421 109.704 124.501 109.914 125.771 109.914C127.521 109.914 128.921 109.544 129.971 108.814C131.051 108.044 131.861 106.904 132.391 105.404H138.061C137.741 106.874 137.201 108.184 136.431 109.344C135.661 110.494 134.731 111.484 133.651 112.284C132.571 113.054 131.341 113.634 129.981 114.014C128.651 114.434 127.251 114.644 125.781 114.644C123.641 114.644 121.751 114.294 120.111 113.594C118.461 112.894 117.061 111.914 115.911 110.654C114.791 109.394 113.931 107.884 113.341 106.144C112.781 104.394 112.501 102.464 112.501 100.364C112.501 98.4341 112.801 96.6241 113.391 94.9041C114.021 93.1541 114.901 91.6341 116.011 90.3341C117.171 89.0041 118.551 87.9541 120.161 87.1841C121.771 86.4141 123.591 86.0341 125.621 86.0341C127.761 86.0341 129.661 86.4941 131.341 87.4041C133.051 88.2841 134.471 89.4541 135.591 90.9241C136.711 92.3941 137.521 94.0942 138.011 96.0142C138.541 97.9042 138.681 99.8642 138.431 101.894H118.481L118.471 101.884ZM157.151 97.9441C157.081 96.9941 156.871 96.0841 156.521 95.2141C156.201 94.3341 155.751 93.5841 155.161 92.9541C154.601 92.2841 153.901 91.7641 153.061 91.3741C152.251 90.9541 151.341 90.7441 150.331 90.7441C149.321 90.7441 148.321 90.9341 147.441 91.3241C146.601 91.6741 145.861 92.1841 145.231 92.8441C144.641 93.4741 144.141 94.2241 143.761 95.1041C143.411 95.9841 143.221 96.9241 143.181 97.9441H157.141H157.151ZM143.191 101.884C143.191 102.934 143.331 103.954 143.611 104.934C143.931 105.914 144.381 106.774 144.971 107.504C145.561 108.244 146.321 108.834 147.231 109.284C148.141 109.704 149.221 109.914 150.491 109.914C152.241 109.914 153.641 109.544 154.691 108.814C155.771 108.044 156.581 106.904 157.101 105.404H162.771C162.461 106.874 161.911 108.184 161.141 109.344C160.371 110.504 159.441 111.484 158.361 112.284C157.271 113.054 156.051 113.634 154.681 114.014C153.351 114.434 151.951 114.644 150.481 114.644C148.351 114.644 146.451 114.294 144.811 113.594C143.161 112.894 141.761 111.914 140.611 110.654C139.491 109.394 138.631 107.884 138.041 106.144C137.481 104.394 137.201 102.464 137.201 100.364C137.201 98.4341 137.501 96.6241 138.091 94.9041C138.721 93.1541 139.601 91.6341 140.711 90.3341C141.871 89.0041 143.251 87.9541 144.861 87.1841C146.471 86.4141 148.291 86.0341 150.321 86.0341C152.461 86.0341 154.361 86.4941 156.041 87.4041C157.751 88.2841 159.171 89.4541 160.291 90.9241C161.411 92.3941 162.211 94.0942 162.701 96.0142C163.231 97.9042 163.371 99.8642 163.121 101.894H143.171L143.191 101.884Z" fill="#181716"/>
<path d="M175.531 75.5234H181.251L166.181 114.793H160.461L175.531 75.5234Z" fill="#E94B50"/>
</svg>
