<svg width="199" height="199" viewBox="0 0 199 199" fill="none" xmlns="http://www.w3.org/2000/svg">
<path d="M198.912 99.3663C198.912 44.5763 154.492 0.15625 99.7021 0.15625C44.9121 0.15625 0.492188 44.5763 0.492188 99.3663C0.492188 154.156 44.9121 198.576 99.7021 198.576C154.492 198.576 198.912 154.156 198.912 99.3663Z" fill="white"/>
<path d="M48.9509 106.855L46.371 103.235L43.771 106.855H40.2109L44.5809 100.775L40.401 94.9453H43.9609L46.371 98.2953L48.7909 94.9453H52.3209L48.141 100.755L52.511 106.855H48.9509Z" fill="#181716"/>
<path d="M65.5831 94.8948V106.905H62.4731V105.485C61.6031 106.565 60.3031 107.235 58.5531 107.235C55.3531 107.235 52.7031 104.475 52.7031 100.895C52.7031 97.3148 55.3531 94.5547 58.5531 94.5547C60.3131 94.5547 61.6131 95.2247 62.4731 96.3047V94.8848H65.5831V94.8948ZM62.4731 100.905C62.4731 98.8847 61.0532 97.5148 59.1232 97.5148C57.1932 97.5148 55.8031 98.8847 55.8031 100.905C55.8031 102.925 57.2232 104.295 59.1232 104.295C61.0232 104.295 62.4731 102.925 62.4731 100.905Z" fill="#181716"/>
<path d="M79.2256 94.9187V106.859H76.2056V100.079L70.5656 106.859H68.2656V94.9187H71.2855V101.699L76.9255 94.9187H79.2256ZM70.2855 90.7188H77.2356V93.3988H70.2855V90.7188Z" fill="#181716"/>
<path d="M93.0693 106.855H89.9794V97.8253H85.2094V106.855H82.1094V94.9453H93.0693V106.855Z" fill="#181716"/>
<path d="M104.277 107.063V111.653H101.267V107.063C97.5672 106.533 95.3672 104.023 95.3672 100.893C95.3672 97.7628 97.5672 95.2428 101.267 94.7228V90.1328H104.277V94.7228C107.977 95.2528 110.177 97.7628 110.177 100.893C110.177 104.023 107.987 106.533 104.277 107.063ZM101.267 104.123V97.6627C99.4072 98.0727 98.4072 99.2928 98.4072 100.893C98.4072 102.493 99.4072 103.693 101.267 104.123ZM107.117 100.893C107.117 99.2928 106.137 98.0927 104.277 97.6627V104.093C106.137 103.683 107.117 102.473 107.117 100.883" fill="#181716"/>
<path d="M122.48 100.895C122.48 104.645 119.88 107.235 116.22 107.235C113.74 107.235 111.71 105.985 110.75 104.115L113.35 102.605C113.76 103.545 114.76 104.265 116.26 104.265C117.62 104.265 118.7 103.475 119.17 102.295H115.11V99.5048H119.17C118.69 98.3248 117.62 97.5347 116.26 97.5347C114.83 97.5347 113.83 98.2347 113.37 99.1647L110.77 97.6547C111.77 95.7847 113.78 94.5547 116.24 94.5547C119.87 94.5547 122.47 97.1448 122.47 100.895H122.48Z" fill="#181716"/>
<path d="M132.309 106.858L127.909 101.448V106.858H124.789V94.9375H127.909V100.188L132.069 94.9375H135.789L130.929 100.828L135.939 106.858H132.309Z" fill="#181716"/>
<path d="M146.703 97.8976H142.983V106.858H139.903V97.8976H136.133V94.9375H146.703V97.8976Z" fill="#181716"/>
<path d="M147.281 100.895C147.281 97.3148 150.091 94.5547 153.611 94.5547C157.131 94.5547 159.961 97.3148 159.961 100.895C159.961 104.475 157.131 107.235 153.611 107.235C150.091 107.235 147.281 104.475 147.281 100.895ZM156.871 100.895C156.871 98.9448 155.451 97.5747 153.611 97.5747C151.771 97.5747 150.371 98.9448 150.371 100.895C150.371 102.845 151.781 104.215 153.611 104.215C155.441 104.215 156.871 102.845 156.871 100.895Z" fill="#181716"/>
<path d="M175.151 100.883C175.151 104.453 172.501 107.213 169.281 107.213C167.521 107.213 166.251 106.563 165.381 105.463V111.672H162.281V94.9025H165.381V96.3125C166.251 95.2125 167.521 94.5625 169.281 94.5625C172.511 94.5625 175.151 97.3226 175.151 100.883ZM172.051 100.883C172.051 98.8726 170.631 97.5026 168.701 97.5026C166.771 97.5026 165.381 98.8726 165.381 100.883C165.381 102.893 166.801 104.263 168.701 104.263C170.601 104.263 172.051 102.903 172.051 100.883Z" fill="#181716"/>
<path d="M188.218 94.9453V106.855H185.198V100.085L179.558 106.855H177.258V94.9453H180.278V101.715L185.918 94.9453H188.218Z" fill="#181716"/>
<path d="M26.8575 94.3228C28.6475 89.9628 30.7575 84.9728 30.3475 80.1328C21.3675 86.1928 14.3475 96.9028 11.1875 107.343C14.5975 108.033 17.8475 107.623 21.1675 106.743C19.9475 110.513 19.0676 113.933 18.5076 118.573C26.6976 114.953 36.4675 102.063 37.3275 92.7228C33.8275 92.7228 30.1675 93.1028 26.8575 94.3228ZM22.0975 112.763C22.5775 110.793 23.2975 108.573 24.1875 105.883C26.2675 104.993 27.6675 103.023 28.1875 100.803C24.3275 103.273 19.4276 105.653 14.7476 104.893C17.5576 97.8828 22.0975 90.6828 27.2175 86.3728C25.6175 91.5428 23.2975 96.3428 20.7875 101.103C22.6975 100.143 24.2375 99.4228 25.4375 97.4628C27.8975 96.6528 32.4675 95.5028 34.1075 95.4828C32.3575 102.013 27.0275 108.493 22.0875 112.753" fill="#FABD55"/>
</svg>
