<svg  viewBox="0 0 284 284" fill="none" xmlns="http://www.w3.org/2000/svg">
<path d="M283.129 141.564C283.129 63.3759 219.743 0 141.564 0C63.3858 0 0 63.3759 0 141.564C0 219.753 63.3759 283.129 141.564 283.129C219.753 283.129 283.129 219.753 283.129 141.564Z" fill="white"/>
<path fill-rule="evenodd" clip-rule="evenodd" d="M37 121.041C39.4902 121.041 41.7583 120.943 43.9966 121.105C44.5914 121.149 45.3072 121.888 45.6819 122.484C48.9452 127.739 52.1392 133.028 55.357 138.305C55.6683 138.811 55.9934 139.308 56.4475 140.011C56.8618 139.409 57.2127 138.967 57.5022 138.487C60.7458 133.146 63.9992 127.815 67.1932 122.446C67.8059 121.406 68.4978 120.947 69.733 121.005C71.781 121.107 73.837 121.035 76 121.035V160.998H68.4006V135.858L67.9506 135.736C67.5937 136.241 67.2091 136.739 66.8899 137.257C63.8433 142.25 60.8033 147.245 57.7699 152.243C56.61 154.143 56.3622 154.141 55.1726 152.192C52.1948 147.315 49.2208 142.431 46.2509 137.54C45.8486 136.812 45.2954 136.181 44.6291 135.689V161H37V121.041Z" fill="#0099FF"/>
<path fill-rule="evenodd" clip-rule="evenodd" d="M120.321 130.218L113.986 134.015C109.733 127.945 102.292 127.33 97.2857 129.983C92.0212 132.769 89.4579 139.217 91.0392 145.595C92.5358 151.656 97.8437 155.571 104.25 155.34C110.049 155.135 114.244 152.153 115.149 147.362H103.757V140.655H122.63C124.137 147.53 120.921 155.673 115.169 159.619C105.525 166.236 91.3271 162.802 85.759 152.267C81.8155 144.844 82.1034 137.253 86.597 130.185C91.0392 123.192 97.6209 120.397 105.555 121.107C111.746 121.664 116.634 124.636 120.321 130.218Z" fill="#0099FF"/>
<path fill-rule="evenodd" clip-rule="evenodd" d="M239.779 160.998C239.779 155.758 239.779 150.657 239.767 145.559C239.783 144.644 239.72 143.728 239.58 142.824C239.13 140.269 237.673 138.958 235.239 138.79C232.866 138.628 230.786 139.948 230.145 142.275C229.812 143.604 229.649 144.968 229.661 146.337C229.607 151.173 229.643 156.014 229.643 160.976H222.372C222.372 160.322 222.372 159.637 222.372 158.951C222.372 153.909 222.439 148.862 222.322 143.818C222.25 140.755 220.727 139.122 218.078 138.816C216.925 138.662 215.755 138.92 214.774 139.542C213.793 140.164 213.064 141.112 212.717 142.217C212.389 143.346 212.225 144.516 212.228 145.691C212.174 150.081 212.206 154.471 212.206 158.861V160.954H205V132.889H212.146C212.182 133.689 212.218 134.416 212.27 135.48C214.509 133.093 217.093 131.955 220.18 132.005C223.349 132.059 225.917 133.235 227.834 135.987C230.276 132.927 233.495 131.815 237.261 132.025C242.251 132.303 246.471 135.892 246.79 141.093C247.192 147.668 246.893 154.285 246.893 161L239.779 160.998Z" fill="#282828"/>
<path fill-rule="evenodd" clip-rule="evenodd" d="M164.99 130.445C162.83 131.711 160.671 132.975 158.529 134.223C152.981 127.565 144.49 126.616 138.734 131.897C133.442 136.762 133.302 146.593 138.397 151.74C142.669 156.052 152.756 157.795 158.555 149.766L165 153.523C160.681 161.123 151.126 164.678 142.033 162.238C132.873 159.783 126.937 151.658 127.001 141.677C127.06 132.12 133.151 124.034 142.027 121.727C151.18 119.348 160.862 122.954 164.992 130.447" fill="#0099FF"/>
<path fill-rule="evenodd" clip-rule="evenodd" d="M169 147.444C169 138.746 175.57 131.992 184.017 132C192.373 132 199.045 138.929 199 147.547C198.955 156.166 192.265 163.039 183.92 163C175.495 162.963 169 156.194 169 147.442M191.628 147.648C191.698 142.995 188.578 139.493 184.233 139.366C179.794 139.237 176.357 142.674 176.268 147.325C176.178 151.977 179.495 155.554 183.922 155.617C188.261 155.675 191.559 152.27 191.63 147.65" fill="#282828"/>
</svg>
