<svg width="24" height="24" viewBox="0 0 24 24" fill="none" xmlns="http://www.w3.org/2000/svg">
<g opacity="0.5">
<mask id="mask0_204_8812" style="mask-type:luminance" maskUnits="userSpaceOnUse" x="0" y="0" width="24" height="24">
<path d="M23.512 0.820312H0.832031V23.4903H23.512V0.820312Z" fill="white"/>
</mask>
<g mask="url(#mask0_204_8812)">
<path d="M23.512 12.1603C23.512 18.4203 18.4321 23.5003 12.1721 23.5003C5.91212 23.5003 0.832031 18.4203 0.832031 12.1603C0.832031 5.90031 5.91212 0.820312 12.1721 0.820312C18.4321 0.820312 23.512 5.90031 23.512 12.1603Z" fill="#5BC5F2"/>
</g>
</g>
<path d="M14.1516 18.0738C14.1516 19.1738 13.2616 20.0538 12.1716 20.0538C11.0816 20.0538 10.1914 19.1638 10.1914 18.0738C10.1914 16.9838 11.0816 16.0938 12.1716 16.0938C13.2616 16.0938 14.1516 16.9838 14.1516 18.0738Z" fill="white"/>
<path d="M14.1516 12.1597C14.1516 13.2597 13.2616 14.1397 12.1716 14.1397C11.0816 14.1397 10.1914 13.2497 10.1914 12.1597C10.1914 11.0697 11.0816 10.1797 12.1716 10.1797C13.2616 10.1797 14.1516 11.0697 14.1516 12.1597Z" fill="white"/>
<path d="M14.1516 6.23781C14.1516 7.33781 13.2616 8.21781 12.1716 8.21781C11.0816 8.21781 10.1914 7.32781 10.1914 6.23781C10.1914 5.14781 11.0816 4.25781 12.1716 4.25781C13.2616 4.25781 14.1516 5.14781 14.1516 6.23781Z" fill="white"/>
</svg>
