<svg width="199" height="199" viewBox="0 0 199 199" fill="none" xmlns="http://www.w3.org/2000/svg">
<path d="M199.006 99.3663C199.006 44.5763 154.586 0.15625 99.796 0.15625C45.006 0.15625 0.585938 44.5763 0.585938 99.3663C0.585938 154.156 45.006 198.576 99.796 198.576C154.586 198.576 199.006 154.156 199.006 99.3663Z" fill="white"/>
<path d="M149.034 116.684H152.504C152.824 116.684 153.084 116.424 153.084 116.104V114.954C153.084 114.194 152.714 113.534 152.154 113.114C152.374 112.824 152.514 112.464 152.514 112.074C152.514 111.124 151.734 110.344 150.784 110.344C149.834 110.344 149.054 111.124 149.054 112.074C149.054 112.464 149.194 112.824 149.414 113.114C148.844 113.534 148.484 114.204 148.484 114.954V116.104C148.484 116.424 148.744 116.684 149.064 116.684M151.954 115.534H149.644V114.954C149.644 114.314 150.164 113.804 150.794 113.804C151.424 113.804 151.954 114.324 151.954 114.954V115.534ZM150.224 112.064C150.224 111.744 150.484 111.484 150.804 111.484C151.124 111.484 151.384 111.744 151.384 112.064C151.384 112.384 151.124 112.644 150.804 112.644C150.484 112.644 150.224 112.384 150.224 112.064Z" fill="#181716"/>
<path d="M182.162 113.106C182.382 112.816 182.522 112.456 182.522 112.066C182.522 111.106 181.742 110.336 180.792 110.336C179.842 110.336 179.062 111.116 179.062 112.066C179.062 112.456 179.202 112.816 179.422 113.106C178.862 113.526 178.492 114.196 178.492 114.956V116.106C178.492 116.426 178.752 116.686 179.072 116.686H182.532C182.852 116.686 183.112 116.426 183.112 116.106V114.956C183.112 114.196 182.742 113.536 182.182 113.106M180.232 112.066C180.232 111.746 180.492 111.486 180.812 111.486C181.132 111.486 181.392 111.746 181.392 112.066C181.392 112.386 181.132 112.646 180.812 112.646C180.492 112.646 180.232 112.386 180.232 112.066ZM181.962 115.526H179.652V114.946C179.652 114.306 180.172 113.796 180.812 113.796C181.452 113.796 181.972 114.316 181.972 114.946V115.526H181.962Z" fill="#181716"/>
<path d="M149.034 88.3892H152.504C152.824 88.3892 153.084 88.1291 153.084 87.8091V86.6591C153.084 85.8991 152.714 85.2391 152.154 84.8091C152.374 84.5191 152.514 84.1592 152.514 83.7692C152.514 82.8192 151.734 82.0391 150.784 82.0391C149.834 82.0391 149.054 82.8192 149.054 83.7692C149.054 84.1592 149.194 84.5191 149.414 84.8091C148.844 85.2291 148.484 85.8991 148.484 86.6591V87.8091C148.484 88.1291 148.744 88.3892 149.064 88.3892M151.954 87.2391H149.644V86.6591C149.644 86.0191 150.164 85.5092 150.794 85.5092C151.424 85.5092 151.954 86.0291 151.954 86.6591V87.2391ZM150.224 83.7692C150.224 83.4492 150.484 83.1891 150.804 83.1891C151.124 83.1891 151.384 83.4492 151.384 83.7692C151.384 84.0892 151.124 84.3491 150.804 84.3491C150.484 84.3491 150.224 84.0892 150.224 83.7692Z" fill="#181716"/>
<path d="M182.162 84.8169C182.382 84.5269 182.522 84.167 182.522 83.777C182.522 82.817 181.742 82.0469 180.792 82.0469C179.842 82.0469 179.062 82.827 179.062 83.777C179.062 84.167 179.202 84.5269 179.422 84.8169C178.862 85.2369 178.492 85.9069 178.492 86.6669V87.8169C178.492 88.1369 178.752 88.397 179.072 88.397H182.532C182.852 88.397 183.112 88.1369 183.112 87.8169V86.6669C183.112 85.9069 182.742 85.2469 182.182 84.8169M180.232 83.777C180.232 83.457 180.492 83.1969 180.812 83.1969C181.132 83.1969 181.392 83.457 181.392 83.777C181.392 84.097 181.132 84.3569 180.812 84.3569C180.492 84.3569 180.232 84.097 180.232 83.777ZM181.962 87.2369H179.652V86.6569C179.652 86.0169 180.172 85.507 180.812 85.507C181.452 85.507 181.972 86.0269 181.972 86.6569V87.2369H181.962Z" fill="#181716"/>
<path d="M165.775 88.3828C159.725 88.3828 154.805 93.3028 154.805 99.3528C154.805 105.403 159.725 110.323 165.775 110.323C171.825 110.323 176.745 105.403 176.745 99.3528C176.745 93.3028 171.825 88.3828 165.775 88.3828ZM165.775 109.173C160.365 109.173 155.955 104.773 155.955 99.3528C155.955 93.9328 160.355 89.5327 165.775 89.5327C171.195 89.5327 175.595 93.9328 175.595 99.3528C175.595 104.773 171.195 109.173 165.775 109.173Z" fill="#181716"/>
<path d="M180.216 99.3698C180.216 91.4098 173.736 84.9297 165.776 84.9297C157.816 84.9297 151.336 91.4098 151.336 99.3698C151.336 107.33 157.816 113.81 165.776 113.81C173.736 113.81 180.216 107.33 180.216 99.3698ZM165.776 112.65C158.456 112.65 152.496 106.69 152.496 99.3698C152.496 92.0498 158.456 86.0897 165.776 86.0897C173.096 86.0897 179.056 92.0498 179.056 99.3698C179.056 106.69 173.096 112.65 165.776 112.65Z" fill="#181716"/>
<path d="M151.615 107.17C150.305 104.79 149.605 102.1 149.605 99.3597C149.605 96.8397 150.165 94.4297 151.275 92.1897L150.235 91.6797C149.045 94.0797 148.445 96.6697 148.445 99.3597C148.445 102.29 149.185 105.18 150.595 107.72L151.605 107.16L151.615 107.17Z" fill="#181716"/>
<path d="M175.502 113.693L174.852 112.743C172.172 114.563 169.032 115.533 165.772 115.533C161.902 115.533 158.162 114.143 155.242 111.633L154.492 112.513C157.632 115.213 161.642 116.693 165.782 116.693C169.272 116.693 172.632 115.663 175.512 113.703" fill="#181716"/>
<path d="M180.274 92.1975C181.384 94.4375 181.944 96.8476 181.944 99.3676C181.944 101.888 181.364 104.358 180.234 106.618L181.264 107.138C182.484 104.718 183.094 102.098 183.094 99.3676C183.094 96.6376 182.494 94.0875 181.304 91.6875L180.274 92.1975Z" fill="#181716"/>
<path d="M155.741 86.6869C158.621 84.4069 162.091 83.1969 165.781 83.1969C169.471 83.1969 172.781 84.3569 175.631 86.5469L176.331 85.637C173.281 83.287 169.631 82.0469 165.781 82.0469C161.931 82.0469 158.111 83.3369 155.031 85.7869L155.751 86.6869H155.741Z" fill="#181716"/>
<path d="M16.4844 91.6078H21.0844V92.3778C21.0844 92.8778 21.0244 93.3478 21.0244 93.3478H21.0844C22.1144 91.9578 23.8544 91.2578 25.6844 91.2578C29.8144 91.2578 32.5244 94.4978 32.5244 99.2178C32.5244 103.938 29.4844 107.148 25.4444 107.148C24.0244 107.148 22.6744 106.648 21.5844 105.708H21.5244C21.5244 105.708 21.5844 106.238 21.5844 107.008V112.698H16.4844V91.6078ZM24.4144 102.928C26.0044 102.928 27.3943 101.628 27.3943 99.2977C27.3943 96.9677 26.1844 95.5577 24.4144 95.5577C22.8844 95.5577 21.4344 96.6777 21.4344 99.2977C21.4344 101.128 22.4044 102.928 24.4144 102.928Z" fill="#181716"/>
<path d="M41.4568 91.25C45.9368 91.25 48.4769 94.38 48.4769 98.59C48.4769 99.12 48.4169 99.6499 48.3569 100.18H38.7668C39.1468 102.04 40.6869 102.89 42.3069 102.89C43.8069 102.89 45.2569 102.18 46.4969 101.36L48.3869 104.93C46.7369 106.35 44.2269 107.14 41.8969 107.14C36.4669 107.14 33.5469 103.22 33.5469 99.1799C33.5469 94.7299 36.5569 91.25 41.4469 91.25M43.4269 97.27C43.4269 96.03 42.6269 95 41.3369 95C39.8669 95 39.1569 96.06 38.8869 97.27H43.4269Z" fill="#181716"/>
<path d="M50.3828 91.606H55.2828V94.1759C55.2828 94.6759 55.2228 95.116 55.2228 95.116H55.2828C55.9328 93.046 57.8528 91.3359 60.1228 91.3359C60.3328 91.3359 60.5328 91.366 60.7128 91.396V96.4059C60.5328 96.3459 60.0328 96.3159 59.6828 96.3159C56.8528 96.3159 55.4928 98.116 55.4928 100.886V106.786H50.3928V91.5959L50.3828 91.606Z" fill="#181716"/>
<path d="M63.3053 95.8459H61.4453V91.866H63.3053V91.246C63.3053 86.256 67.8153 85.5859 70.2653 85.5859C70.7953 85.5859 71.2653 85.5859 71.7953 85.6759V89.986C71.6753 89.956 71.3553 89.9259 70.9653 89.9259C69.9653 89.9259 68.3953 90.106 68.3953 91.396V91.866H71.1953V95.8459H68.3953V106.786H63.2953V95.8459H63.3053ZM73.4853 85.6959H78.5853V100.506C78.5853 101.946 78.8553 102.456 80.0053 102.456C80.1553 102.456 80.3853 102.456 80.6253 102.426V106.846C80.2753 106.876 79.7453 106.936 79.0953 106.936C76.3853 106.936 73.4953 106.286 73.4953 101.186V85.7059L73.4853 85.6959Z" fill="#181716"/>
<path d="M82.1138 91.6038H87.2137V100.514C87.2137 101.934 87.7737 102.514 88.8337 102.514C91.0137 102.514 92.0438 100.594 92.0438 98.3237V91.5938H97.1437V106.784H92.2438V105.454C92.2438 104.954 92.3038 104.514 92.3038 104.514H92.2438C91.4138 106.134 89.5338 107.134 87.4938 107.134C84.4838 107.134 82.0938 105.724 82.0938 101.444V91.5938L82.1138 91.6038Z" fill="#181716"/>
<path d="M106.887 91.25C111.367 91.25 113.907 94.38 113.907 98.59C113.907 99.12 113.847 99.6499 113.787 100.18H104.197C104.577 102.04 106.117 102.89 107.737 102.89C109.237 102.89 110.687 102.18 111.927 101.36L113.817 104.93C112.167 106.35 109.657 107.14 107.327 107.14C101.897 107.14 98.9766 103.22 98.9766 99.1799C98.9766 94.7299 101.987 91.25 106.877 91.25M108.857 97.27C108.857 96.03 108.057 95 106.767 95C105.297 95 104.587 96.06 104.317 97.27H108.857Z" fill="#181716"/>
<path d="M115.812 91.6078H120.712V92.9377C120.712 93.4377 120.652 93.8778 120.652 93.8778H120.712C121.422 92.6978 122.862 91.2578 125.552 91.2578C128.622 91.2578 131.012 92.6778 131.012 96.9478V106.798H125.912V97.8878C125.912 96.4678 125.352 95.8778 124.232 95.8778C121.962 95.8778 120.932 97.7677 120.932 99.9177V106.788H115.832V91.5978L115.812 91.6078Z" fill="#181716"/>
<path d="M141.142 91.25C143.262 91.25 145.682 91.9299 147.192 93.5499L145.042 96.97C144.162 96.12 142.802 95.5 141.472 95.5C139.052 95.5 137.842 97.33 137.842 99.13C137.842 100.93 139.082 102.9 141.642 102.9C143.112 102.9 144.712 102.02 145.802 101.07L147.662 104.64C146.162 106.17 143.682 107.15 141.142 107.15C135.712 107.15 132.672 103.37 132.672 99.1899C132.672 95.0099 135.682 91.26 141.142 91.26" fill="#181716"/>
<path d="M165.707 91.25C170.187 91.25 172.727 94.38 172.727 98.59C172.727 99.12 172.667 99.6499 172.607 100.18H163.017C163.397 102.04 164.937 102.89 166.557 102.89C168.057 102.89 169.507 102.18 170.747 101.36L172.637 104.93C170.987 106.35 168.477 107.14 166.147 107.14C160.717 107.14 157.797 103.22 157.797 99.1799C157.797 94.7299 160.807 91.25 165.697 91.25M167.677 97.27C167.677 96.03 166.877 95 165.587 95C164.117 95 163.407 96.06 163.137 97.27H167.677Z" fill="#181716"/>
</svg>
