<svg width="284" height="285" viewBox="0 0 284 285" fill="none" xmlns="http://www.w3.org/2000/svg">
<path d="M142.187 284.296C220.462 284.296 283.917 220.841 283.917 142.566C283.917 64.2906 220.462 0.835938 142.187 0.835938C63.9117 0.835938 0.457031 64.2906 0.457031 142.566C0.457031 220.841 63.9117 284.296 142.187 284.296Z" fill="#1D1D1B"/>
<path d="M207.936 187.072C207.936 187.072 207.886 187.072 207.856 187.042C207.826 187.012 207.816 186.992 207.816 186.972V184.952C207.816 184.952 207.816 184.912 207.856 184.882C207.886 184.852 207.906 184.852 207.936 184.852H210.106C210.106 184.852 210.156 184.852 210.186 184.882C210.216 184.912 210.226 184.932 210.226 184.952V186.972C210.226 186.972 210.226 187.012 210.186 187.042C210.156 187.072 210.136 187.072 210.106 187.072H207.936Z" fill="#52AE32"/>
<path d="M215.987 187.074C215.927 187.074 215.897 187.054 215.877 187.034C215.847 186.994 215.827 186.964 215.827 186.924V185.494H214.387C214.327 185.494 214.297 185.484 214.257 185.444C214.217 185.404 214.207 185.374 214.207 185.344V175.884C214.207 175.884 214.207 175.824 214.257 175.784C214.297 175.744 214.327 175.734 214.387 175.734H215.727V174.404C215.727 174.354 215.737 174.314 215.777 174.284C215.817 174.244 215.847 174.234 215.887 174.234H222.237C222.297 174.234 222.327 174.254 222.347 174.274C222.377 174.314 222.397 174.344 222.397 174.404V175.834H223.837C223.897 175.834 223.937 175.844 223.977 175.884C224.007 175.904 224.017 175.934 224.017 175.984V177.374C224.017 177.434 223.997 177.454 223.977 177.474C223.937 177.504 223.897 177.524 223.837 177.524H222.437C222.437 177.524 222.357 177.514 222.317 177.474C222.287 177.454 222.277 177.424 222.277 177.374V176.034H216.057V185.274H222.167V183.934C222.167 183.934 222.167 183.874 222.217 183.834C222.257 183.794 222.287 183.784 222.347 183.784H223.827C223.887 183.784 223.917 183.794 223.957 183.834C223.997 183.874 224.007 183.904 224.007 183.934V185.434C224.007 185.434 224.007 185.494 223.957 185.534C223.917 185.574 223.887 185.584 223.827 185.584H222.507V186.924C222.507 186.924 222.507 186.984 222.457 187.024C222.417 187.064 222.387 187.074 222.347 187.074H215.977H215.987Z" fill="#52AE32"/>
<path d="M228.215 187.074C228.155 187.074 228.125 187.064 228.085 187.024C228.045 186.984 228.035 186.954 228.035 186.924V174.404C228.035 174.354 228.045 174.324 228.085 174.284C228.125 174.244 228.155 174.234 228.215 174.234H237.665C237.725 174.234 237.755 174.244 237.795 174.284C237.835 174.324 237.845 174.354 237.845 174.404V186.924C237.845 186.924 237.845 186.984 237.795 187.024C237.755 187.064 237.725 187.074 237.665 187.074H228.215ZM229.985 185.164H235.905V176.134H229.985V185.164Z" fill="#52AE32"/>
<path d="M250.017 187.074C249.957 187.074 249.927 187.064 249.887 187.024C249.847 186.984 249.837 186.954 249.837 186.924V177.744H248.537V178.964C248.537 179.024 248.527 179.054 248.487 179.094C248.457 179.124 248.437 179.134 248.377 179.134H245.257C245.257 179.134 245.187 179.134 245.147 179.084C245.107 179.044 245.097 179.014 245.097 178.964V177.634H243.727V186.924C243.727 186.924 243.727 186.984 243.677 187.024C243.637 187.064 243.607 187.074 243.547 187.074H242.047C241.987 187.074 241.957 187.064 241.917 187.024C241.877 186.984 241.867 186.954 241.867 186.924V174.404C241.867 174.354 241.877 174.314 241.917 174.284C241.957 174.244 241.987 174.234 242.047 174.234H243.547C243.607 174.234 243.637 174.244 243.677 174.284C243.717 174.324 243.727 174.354 243.727 174.404V175.734H245.067C245.127 175.734 245.157 175.754 245.177 175.774C245.207 175.814 245.227 175.844 245.227 175.884V177.314H248.217V175.884C248.217 175.884 248.217 175.824 248.267 175.784C248.307 175.744 248.337 175.734 248.377 175.734H249.837V174.404C249.837 174.354 249.847 174.324 249.887 174.284C249.927 174.244 249.957 174.234 250.017 174.234H251.497C251.557 174.234 251.587 174.244 251.627 174.284C251.667 174.324 251.677 174.354 251.677 174.404V186.924C251.677 186.924 251.677 186.984 251.627 187.024C251.587 187.064 251.557 187.074 251.497 187.074H250.017Z" fill="#52AE32"/>
<path d="M78.3483 149.636C77.7783 149.636 77.3183 149.176 77.3283 148.606V143.076C77.3383 142.506 77.7983 142.046 78.3683 142.056H83.8483V136.806C83.8583 136.236 84.3183 135.776 84.8883 135.786H90.3683V130.536C90.3783 129.966 90.8383 129.506 91.4083 129.516H96.8883V124.266C96.8983 123.696 97.3583 123.236 97.9283 123.246H103.408V117.996C103.418 117.426 103.878 116.966 104.448 116.976H109.928V111.726C109.938 111.156 110.398 110.696 110.968 110.706H116.448V105.456C116.458 104.886 116.918 104.426 117.488 104.436H122.368V99.1764C122.378 98.6064 122.838 98.1464 123.408 98.1564H128.938C129.508 98.1664 129.968 98.6264 129.958 99.1964V104.726C129.948 105.296 129.488 105.756 128.918 105.746H124.038V111.006C124.028 111.576 123.568 112.036 122.998 112.026H117.518V117.276C117.508 117.846 117.048 118.306 116.478 118.296H110.998V123.546C110.988 124.116 110.528 124.576 109.958 124.566H104.478V129.816C104.468 130.386 104.008 130.846 103.438 130.836H97.9583V136.086C97.9483 136.656 97.4883 137.116 96.9183 137.106H91.4383V142.356C91.4283 142.926 90.9683 143.386 90.3983 143.376H84.9183V148.626C84.9083 149.196 84.4483 149.656 83.8783 149.646H78.3483V149.636Z" fill="#52AE32"/>
<path d="M33.4069 149.543C32.8369 149.543 32.3769 149.083 32.3869 148.513V142.983C32.3969 142.413 32.8569 141.953 33.4269 141.963H38.9069V136.713C38.9169 136.143 39.3769 135.683 39.9469 135.693H45.4269V130.443C45.4369 129.873 45.8969 129.413 46.4669 129.423H51.9469V124.173C51.9569 123.603 52.4169 123.143 52.9869 123.153H58.4669V117.903C58.4769 117.333 58.9369 116.873 59.5069 116.883H64.9869V111.633C64.9969 111.063 65.4569 110.603 66.0269 110.613H71.5069V105.363C71.5169 104.793 71.9769 104.333 72.5469 104.343H77.4269V99.0827C77.4369 98.5127 77.8969 98.0527 78.4669 98.0627H83.9969C84.5669 98.0727 85.0269 98.5327 85.0169 99.1027V104.633C85.0069 105.203 84.5469 105.663 83.9769 105.653H79.0969V110.913C79.0869 111.483 78.6269 111.943 78.0569 111.933H72.5769V117.183C72.5669 117.753 72.1069 118.213 71.5369 118.203H66.0569V123.453C66.0469 124.023 65.5869 124.483 65.0169 124.473H59.5369V129.723C59.5269 130.293 59.0669 130.753 58.4969 130.743H53.0169V135.993C53.0069 136.563 52.5469 137.023 51.9769 137.013H46.4969V142.263C46.4869 142.833 46.0269 143.293 45.4569 143.283H39.9769V148.533C39.9669 149.103 39.5069 149.563 38.9369 149.553H33.4069V149.543Z" fill="#52AE32"/>
<path d="M35.9886 185.855C35.9386 185.855 35.8986 185.845 35.8586 185.805C35.8186 185.765 35.8086 185.735 35.8086 185.705V173.545C35.8086 173.495 35.8186 173.465 35.8586 173.425C35.8986 173.385 35.9286 173.375 35.9886 173.375H43.6186C43.6786 173.375 43.6986 173.395 43.7286 173.415C43.7586 173.445 43.7786 173.485 43.7786 173.535V174.925H45.1786C45.2386 174.925 45.2786 174.935 45.3086 174.975C45.3386 174.995 45.3486 175.025 45.3486 175.075V179.615C45.3486 179.665 45.3386 179.695 45.3086 179.715C45.2686 179.745 45.2286 179.765 45.1786 179.765H43.8986V181.155C43.8986 181.205 43.8886 181.235 43.8486 181.275C43.8086 181.315 43.7786 181.325 43.7386 181.325H37.6286V185.705C37.6286 185.705 37.6286 185.765 37.5786 185.805C37.5386 185.845 37.5086 185.855 37.4486 185.855H35.9886ZM37.7086 179.375H43.5686V175.125H37.7086V179.375Z" fill="white"/>
<path d="M57.1277 185.816C57.1277 185.816 57.0577 185.816 57.0177 185.766C56.9777 185.726 56.9677 185.696 56.9677 185.666V184.276H55.5677C55.5077 184.276 55.4877 184.256 55.4577 184.236C55.4277 184.196 55.4077 184.176 55.4077 184.126V182.726H53.8877C53.8877 182.726 53.8077 182.716 53.7677 182.676C53.7377 182.656 53.7277 182.626 53.7277 182.576V181.376H50.9177V185.666C50.9177 185.666 50.9177 185.726 50.8677 185.766C50.8277 185.806 50.7977 185.816 50.7377 185.816H49.2777C49.2277 185.816 49.1877 185.806 49.1477 185.766C49.1077 185.726 49.0977 185.696 49.0977 185.666V173.506C49.0977 173.456 49.1077 173.426 49.1477 173.386C49.1877 173.346 49.2177 173.336 49.2777 173.336H56.9077C56.9677 173.336 56.9877 173.356 57.0177 173.376C57.0477 173.406 57.0677 173.446 57.0677 173.496V174.886H58.4677C58.5277 174.886 58.5677 174.896 58.5977 174.936C58.6277 174.956 58.6377 174.986 58.6377 175.036V179.576C58.6377 179.626 58.6277 179.656 58.5977 179.676C58.5577 179.706 58.5177 179.726 58.4677 179.726H57.1877V181.116C57.1877 181.166 57.1777 181.196 57.1377 181.236C57.0977 181.276 57.0677 181.286 57.0277 181.286H55.5877V182.606H56.9077C56.9677 182.606 56.9877 182.626 57.0177 182.646C57.0477 182.676 57.0677 182.706 57.0677 182.756V184.146H58.4677C58.5177 184.146 58.5577 184.156 58.5977 184.196C58.6377 184.226 58.6477 184.266 58.6477 184.316V185.666C58.6477 185.666 58.6477 185.726 58.5977 185.766C58.5577 185.806 58.5277 185.816 58.4677 185.816H57.1077H57.1277ZM51.0177 179.336H56.8777V175.086H51.0177V179.336Z" fill="white"/>
<path d="M62.7386 185.816C62.6886 185.816 62.6486 185.806 62.6086 185.766C62.5686 185.726 62.5586 185.696 62.5586 185.666V173.506C62.5586 173.456 62.5686 173.426 62.6086 173.386C62.6486 173.346 62.6786 173.336 62.7386 173.336H71.9286C71.9786 173.336 72.0186 173.346 72.0586 173.386C72.0886 173.416 72.1086 173.456 72.1086 173.506V185.666C72.1086 185.666 72.1086 185.726 72.0586 185.766C72.0186 185.806 71.9886 185.816 71.9286 185.816H62.7386ZM64.4586 183.966H70.2086V175.196H64.4586V183.966Z" fill="white"/>
<path d="M77.74 185.81C77.68 185.81 77.66 185.79 77.63 185.77C77.6 185.73 77.58 185.71 77.58 185.66V184.27H76.18C76.13 184.27 76.09 184.26 76.05 184.22C76.01 184.18 76 184.15 76 184.12V174.93C76 174.93 76 174.87 76.05 174.83C76.09 174.79 76.12 174.78 76.18 174.78H77.48V173.49C77.48 173.44 77.49 173.41 77.53 173.37C77.57 173.33 77.6 173.32 77.64 173.32H83.81C83.87 173.32 83.89 173.34 83.92 173.36C83.95 173.39 83.97 173.43 83.97 173.48V174.87H85.37C85.43 174.87 85.47 174.88 85.5 174.92C85.53 174.94 85.54 174.97 85.54 175.02V177.21C85.54 177.26 85.53 177.29 85.5 177.31C85.46 177.34 85.42 177.36 85.37 177.36H84.01C84.01 177.36 83.93 177.35 83.89 177.31C83.86 177.29 83.85 177.26 83.85 177.21V175.07H77.81V184.04H83.65V181.26H80.86C80.86 181.26 80.79 181.26 80.75 181.21C80.71 181.18 80.7 181.14 80.7 181.09V179.65C80.7 179.6 80.71 179.57 80.75 179.53C80.79 179.49 80.82 179.48 80.86 179.48H85.37C85.42 179.48 85.46 179.49 85.5 179.53C85.53 179.56 85.55 179.6 85.55 179.65V184.18C85.55 184.18 85.55 184.24 85.5 184.28C85.46 184.32 85.43 184.33 85.37 184.33H84.09V185.63C84.09 185.63 84.09 185.69 84.04 185.73C84 185.77 83.97 185.78 83.93 185.78H77.74V185.81Z" fill="white"/>
<path d="M97.448 185.816C97.448 185.816 97.378 185.816 97.338 185.766C97.298 185.726 97.288 185.696 97.288 185.666V184.276H95.888C95.828 184.276 95.808 184.256 95.778 184.236C95.748 184.196 95.728 184.176 95.728 184.126V182.726H94.208C94.208 182.726 94.128 182.716 94.088 182.676C94.058 182.656 94.048 182.626 94.048 182.576V181.376H91.238V185.666C91.238 185.666 91.238 185.726 91.188 185.766C91.148 185.806 91.118 185.816 91.058 185.816H89.598C89.548 185.816 89.508 185.806 89.468 185.766C89.428 185.726 89.418 185.696 89.418 185.666V173.506C89.418 173.456 89.428 173.426 89.468 173.386C89.508 173.346 89.538 173.336 89.598 173.336H97.228C97.288 173.336 97.308 173.356 97.338 173.376C97.368 173.406 97.388 173.446 97.388 173.496V174.886H98.788C98.848 174.886 98.888 174.896 98.918 174.936C98.948 174.956 98.958 174.986 98.958 175.036V179.576C98.958 179.626 98.948 179.656 98.918 179.676C98.878 179.706 98.838 179.726 98.788 179.726H97.508V181.116C97.508 181.166 97.498 181.196 97.458 181.236C97.418 181.276 97.388 181.286 97.348 181.286H95.908V182.606H97.228C97.288 182.606 97.308 182.626 97.338 182.646C97.368 182.676 97.388 182.706 97.388 182.756V184.146H98.788C98.838 184.146 98.878 184.156 98.918 184.196C98.958 184.226 98.968 184.266 98.968 184.316V185.666C98.968 185.666 98.968 185.726 98.918 185.766C98.878 185.806 98.848 185.816 98.788 185.816H97.428H97.448ZM91.338 179.336H97.198V175.086H91.338V179.336Z" fill="white"/>
<path d="M110.807 185.81C110.757 185.81 110.717 185.8 110.677 185.76C110.637 185.72 110.627 185.69 110.627 185.66V181.37H104.687V185.66C104.687 185.66 104.687 185.72 104.637 185.76C104.597 185.8 104.567 185.81 104.507 185.81H103.047C102.997 185.81 102.957 185.8 102.917 185.76C102.877 185.72 102.867 185.69 102.867 185.66V174.93C102.867 174.93 102.867 174.87 102.917 174.83C102.957 174.79 102.987 174.78 103.047 174.78H104.347V173.49C104.347 173.44 104.357 173.41 104.397 173.37C104.437 173.33 104.467 173.32 104.507 173.32H110.677C110.737 173.32 110.767 173.34 110.787 173.36C110.817 173.39 110.837 173.43 110.837 173.48V174.87H112.237C112.297 174.87 112.337 174.88 112.367 174.92C112.397 174.94 112.407 174.97 112.407 175.02V185.65C112.407 185.65 112.407 185.71 112.357 185.75C112.317 185.79 112.287 185.8 112.227 185.8H110.787L110.807 185.81ZM104.777 179.33H110.637V175.08H104.777V179.33Z" fill="white"/>
<path d="M124.249 185.81C124.199 185.81 124.159 185.8 124.119 185.76C124.079 185.72 124.069 185.69 124.069 185.66V176.74H122.809V177.93C122.809 177.98 122.799 178.02 122.759 178.05C122.729 178.08 122.709 178.09 122.649 178.09H119.619C119.619 178.09 119.549 178.09 119.509 178.04C119.469 178 119.459 177.97 119.459 177.92V176.63H118.129V185.65C118.129 185.65 118.129 185.71 118.079 185.75C118.039 185.79 118.009 185.8 117.949 185.8H116.489C116.439 185.8 116.399 185.79 116.359 185.75C116.319 185.71 116.309 185.68 116.309 185.65V173.49C116.309 173.44 116.319 173.41 116.359 173.37C116.399 173.33 116.429 173.32 116.489 173.32H117.949C117.999 173.32 118.039 173.33 118.079 173.37C118.119 173.4 118.129 173.44 118.129 173.49V174.78H119.429C119.489 174.78 119.509 174.8 119.539 174.82C119.569 174.85 119.589 174.88 119.589 174.93V176.32H122.499V174.93C122.499 174.93 122.499 174.87 122.549 174.83C122.589 174.79 122.619 174.78 122.659 174.78H124.079V173.49C124.079 173.44 124.089 173.41 124.129 173.37C124.169 173.33 124.199 173.32 124.259 173.32H125.699C125.749 173.32 125.789 173.33 125.829 173.37C125.859 173.4 125.879 173.44 125.879 173.49V185.65C125.879 185.65 125.879 185.71 125.829 185.75C125.789 185.79 125.759 185.8 125.699 185.8H124.259L124.249 185.81Z" fill="white"/>
<path d="M137.69 185.81C137.64 185.81 137.6 185.8 137.56 185.76C137.52 185.72 137.51 185.69 137.51 185.66V176.74H136.25V177.93C136.25 177.98 136.24 178.02 136.2 178.05C136.17 178.08 136.15 178.09 136.09 178.09H133.06C133.06 178.09 132.99 178.09 132.95 178.04C132.91 178 132.9 177.97 132.9 177.92V176.63H131.57V185.65C131.57 185.65 131.57 185.71 131.52 185.75C131.48 185.79 131.45 185.8 131.39 185.8H129.93C129.88 185.8 129.84 185.79 129.8 185.75C129.76 185.71 129.75 185.68 129.75 185.65V173.49C129.75 173.44 129.76 173.41 129.8 173.37C129.84 173.33 129.87 173.32 129.93 173.32H131.39C131.44 173.32 131.48 173.33 131.52 173.37C131.56 173.4 131.57 173.44 131.57 173.49V174.78H132.87C132.93 174.78 132.95 174.8 132.98 174.82C133.01 174.85 133.03 174.88 133.03 174.93V176.32H135.94V174.93C135.94 174.93 135.94 174.87 135.99 174.83C136.03 174.79 136.06 174.78 136.1 174.78H137.52V173.49C137.52 173.44 137.53 173.41 137.57 173.37C137.61 173.33 137.64 173.32 137.7 173.32H139.14C139.19 173.32 139.23 173.33 139.27 173.37C139.3 173.4 139.32 173.44 139.32 173.49V185.65C139.32 185.65 139.32 185.71 139.27 185.75C139.23 185.79 139.2 185.8 139.14 185.8H137.7L137.69 185.81Z" fill="white"/>
<path d="M151.307 185.81C151.257 185.81 151.217 185.8 151.177 185.76C151.137 185.72 151.127 185.69 151.127 185.66V181.37H145.187V185.66C145.187 185.66 145.187 185.72 145.137 185.76C145.097 185.8 145.067 185.81 145.007 185.81H143.547C143.497 185.81 143.457 185.8 143.417 185.76C143.377 185.72 143.367 185.69 143.367 185.66V174.93C143.367 174.93 143.367 174.87 143.417 174.83C143.457 174.79 143.487 174.78 143.547 174.78H144.847V173.49C144.847 173.44 144.857 173.41 144.897 173.37C144.937 173.33 144.967 173.32 145.007 173.32H151.177C151.237 173.32 151.257 173.34 151.287 173.36C151.317 173.39 151.337 173.43 151.337 173.48V174.87H152.737C152.797 174.87 152.837 174.88 152.867 174.92C152.897 174.94 152.907 174.97 152.907 175.02V185.65C152.907 185.65 152.907 185.71 152.857 185.75C152.817 185.79 152.787 185.8 152.727 185.8H151.287L151.307 185.81ZM145.277 179.33H151.137V175.08H145.277V179.33Z" fill="white"/>
<path d="M159.458 185.81C159.458 185.81 159.388 185.81 159.348 185.76C159.308 185.72 159.298 185.69 159.298 185.66V175.08H156.418C156.418 175.08 156.338 175.07 156.298 175.03C156.268 175.01 156.258 174.98 156.258 174.93V173.49C156.258 173.44 156.268 173.41 156.308 173.37C156.348 173.33 156.378 173.32 156.418 173.32H164.058C164.058 173.32 164.128 173.32 164.168 173.37C164.208 173.41 164.218 173.44 164.218 173.49V174.93C164.218 174.98 164.208 175.01 164.178 175.03C164.138 175.06 164.108 175.08 164.058 175.08H161.178V185.66C161.178 185.66 161.178 185.72 161.128 185.76C161.088 185.8 161.058 185.81 161.018 185.81H159.438H159.458Z" fill="white"/>
<path d="M167.707 185.816C167.707 185.816 167.637 185.816 167.597 185.766C167.557 185.726 167.547 185.696 167.547 185.666V184.216C167.547 184.216 167.547 184.156 167.597 184.116C167.637 184.076 167.667 184.066 167.707 184.066H170.497V175.096H167.707C167.707 175.096 167.627 175.086 167.587 175.046C167.557 175.026 167.547 174.996 167.547 174.946V173.506C167.547 173.456 167.557 173.426 167.597 173.386C167.637 173.346 167.667 173.336 167.707 173.336H175.347C175.347 173.336 175.417 173.336 175.457 173.386C175.487 173.416 175.507 173.456 175.507 173.506V174.946C175.507 174.996 175.497 175.026 175.467 175.046C175.427 175.076 175.397 175.096 175.347 175.096H172.567V184.066H175.347C175.347 184.066 175.417 184.066 175.457 184.116C175.497 184.156 175.507 184.186 175.507 184.216V185.666C175.507 185.666 175.507 185.726 175.457 185.766C175.417 185.806 175.387 185.816 175.347 185.816H167.707Z" fill="white"/>
<path d="M180.939 185.81C180.879 185.81 180.859 185.79 180.829 185.77C180.799 185.73 180.779 185.71 180.779 185.66V184.27H179.379C179.329 184.27 179.289 184.26 179.249 184.22C179.209 184.18 179.199 184.15 179.199 184.12V174.93C179.199 174.93 179.199 174.87 179.249 174.83C179.289 174.79 179.319 174.78 179.379 174.78H180.679V173.49C180.679 173.44 180.689 173.41 180.729 173.37C180.769 173.33 180.799 173.32 180.839 173.32H187.009C187.069 173.32 187.089 173.34 187.119 173.36C187.149 173.39 187.169 173.43 187.169 173.48V174.87H188.569C188.629 174.87 188.669 174.88 188.699 174.92C188.729 174.94 188.739 174.97 188.739 175.02V176.37C188.739 176.42 188.729 176.45 188.699 176.47C188.659 176.5 188.619 176.52 188.569 176.52H187.209C187.209 176.52 187.129 176.51 187.089 176.47C187.059 176.45 187.049 176.42 187.049 176.37V175.07H181.009V184.04H186.949V182.74C186.949 182.74 186.949 182.68 186.999 182.64C187.039 182.6 187.069 182.59 187.129 182.59H188.569C188.619 182.59 188.659 182.6 188.699 182.64C188.739 182.68 188.749 182.71 188.749 182.74V184.19C188.749 184.19 188.749 184.25 188.699 184.29C188.659 184.32 188.629 184.34 188.569 184.34H187.289V185.64C187.289 185.64 187.289 185.7 187.239 185.74C187.199 185.78 187.169 185.79 187.129 185.79H180.939V185.81Z" fill="white"/>
<path d="M200.397 185.81C200.347 185.81 200.307 185.8 200.267 185.76C200.227 185.72 200.217 185.69 200.217 185.66V181.37H194.277V185.66C194.277 185.66 194.277 185.72 194.227 185.76C194.187 185.8 194.157 185.81 194.097 185.81H192.637C192.587 185.81 192.547 185.8 192.507 185.76C192.467 185.72 192.457 185.69 192.457 185.66V174.93C192.457 174.93 192.457 174.87 192.507 174.83C192.547 174.79 192.577 174.78 192.637 174.78H193.937V173.49C193.937 173.44 193.947 173.41 193.987 173.37C194.027 173.33 194.057 173.32 194.097 173.32H200.267C200.327 173.32 200.347 173.34 200.377 173.36C200.407 173.39 200.427 173.43 200.427 173.48V174.87H201.827C201.887 174.87 201.927 174.88 201.957 174.92C201.987 174.94 201.997 174.97 201.997 175.02V185.65C201.997 185.65 201.997 185.71 201.947 185.75C201.907 185.79 201.877 185.8 201.817 185.8H200.377L200.397 185.81ZM194.367 179.33H200.227V175.08H194.367V179.33Z" fill="white"/>
<path d="M158.19 149.515C157.97 149.515 157.83 149.455 157.69 149.315C157.53 149.155 157.5 149.045 157.5 148.915L157.6 100.295C157.6 100.085 157.65 99.965 157.79 99.825C157.93 99.685 158.08 99.625 158.29 99.625L188.78 99.685C189.01 99.685 189.12 99.745 189.22 99.855C189.35 99.995 189.4 100.135 189.4 100.345V105.895H195C195.23 105.905 195.39 105.965 195.53 106.095C195.63 106.185 195.69 106.285 195.69 106.505L195.65 124.675C195.65 124.885 195.59 124.985 195.49 125.085C195.35 125.215 195.19 125.275 194.96 125.275H189.83V130.815C189.82 131.025 189.77 131.145 189.63 131.285C189.46 131.445 189.34 131.485 189.19 131.485L164.75 131.435L164.71 148.935C164.71 149.065 164.68 149.175 164.52 149.335C164.38 149.475 164.23 149.535 164.02 149.535H158.19V149.515ZM165.1 123.615L188.51 123.665L188.55 106.695L165.14 106.645L165.1 123.615Z" fill="white"/>
<path d="M217.609 149.452C217.379 149.452 217.269 149.392 217.169 149.282C217.039 149.142 216.989 149.023 216.989 148.853V143.302H211.389C211.169 143.292 211.029 143.232 210.889 143.092C210.729 142.932 210.699 142.822 210.699 142.692L210.779 105.962C210.779 105.832 210.809 105.722 210.969 105.562C211.109 105.422 211.259 105.362 211.469 105.362H216.669V100.222C216.679 100.022 216.729 99.8925 216.869 99.7525C217.039 99.5925 217.159 99.5625 217.309 99.5625L241.969 99.6125C242.199 99.6125 242.309 99.6725 242.409 99.7825C242.539 99.9225 242.589 100.062 242.589 100.282V105.832H248.189C248.419 105.842 248.579 105.902 248.719 106.032C248.819 106.122 248.879 106.222 248.879 106.442L248.859 115.192C248.859 115.402 248.799 115.502 248.699 115.602C248.559 115.732 248.399 115.792 248.169 115.792H242.749C242.559 115.782 242.429 115.722 242.289 115.592C242.189 115.492 242.129 115.402 242.129 115.182L242.149 106.632L217.989 106.582L217.919 142.452L241.259 142.502L241.279 131.412L230.119 131.392C229.969 131.392 229.849 131.362 229.679 131.192C229.539 131.052 229.489 130.932 229.489 130.722V124.982C229.499 124.782 229.549 124.652 229.689 124.512C229.859 124.352 229.979 124.312 230.129 124.312L248.149 124.352C248.369 124.352 248.509 124.412 248.649 124.552C248.789 124.692 248.839 124.812 248.839 125.022L248.799 143.122C248.799 143.252 248.769 143.362 248.609 143.522C248.469 143.662 248.329 143.713 248.109 143.713H242.979V148.912C242.969 149.042 242.939 149.152 242.779 149.312C242.609 149.472 242.489 149.512 242.339 149.512L217.609 149.463V149.452Z" fill="white"/>
</svg>
