<svg width="199" height="199" viewBox="0 0 199 199" fill="none" xmlns="http://www.w3.org/2000/svg">
<path d="M198.772 99.3663C198.772 44.5763 154.352 0.15625 99.5615 0.15625C44.7715 0.15625 0.351562 44.5763 0.351562 99.3663C0.351562 154.156 44.7715 198.576 99.5615 198.576C154.352 198.576 198.772 154.156 198.772 99.3663Z" fill="white"/>
<path d="M19.1613 114.474C18.9213 114.564 18.6012 114.644 18.2112 114.724C17.8212 114.794 17.3812 114.834 16.9012 114.834C15.9712 114.834 15.3012 114.654 14.8912 114.314C14.4812 113.964 14.2812 113.384 14.2812 112.574V89.3037C14.2812 88.7937 14.4212 88.3938 14.7112 88.1038C15.0012 87.8138 15.3913 87.6037 15.9113 87.4537C16.8413 87.1237 17.9512 86.8938 19.2512 86.7738C20.5412 86.6538 21.8412 86.5938 23.1312 86.5938C27.0412 86.5938 29.9512 87.3837 31.8612 88.9637C33.7712 90.5437 34.7312 92.7638 34.7312 95.6138C34.7312 97.6038 34.2111 99.2937 33.1711 100.694C32.1311 102.094 30.6512 103.134 28.7312 103.824C29.4512 104.724 30.1612 105.624 30.8512 106.504C31.5412 107.394 32.2012 108.234 32.8112 109.034C33.4212 109.834 33.9812 110.554 34.4812 111.204C34.9812 111.854 35.3812 112.384 35.6812 112.804C35.5312 113.494 35.2012 114.024 34.6912 114.384C34.1812 114.744 33.6212 114.924 33.0212 114.924C32.3012 114.924 31.7312 114.754 31.3112 114.404C30.8912 114.054 30.4711 113.584 30.0511 112.984L24.2312 104.594H19.1812V114.474H19.1613ZM23.4912 100.714C25.4412 100.714 26.9912 100.294 28.1312 99.4537C29.2712 98.6137 29.8412 97.3338 29.8412 95.6238C29.8412 93.9138 29.2612 92.6737 28.1012 91.8337C26.9412 90.9937 25.2412 90.5737 22.9812 90.5737C22.2912 90.5737 21.6012 90.6037 20.9312 90.6637C20.2512 90.7237 19.6412 90.8038 19.1012 90.8938V100.724H23.4812L23.4912 100.714Z" fill="#149A80"/>
<path d="M51.0032 91.1597V114.48C50.7932 114.57 50.4831 114.65 50.0831 114.73C49.6731 114.8 49.2531 114.84 48.7931 114.84C47.8631 114.84 47.2031 114.67 46.8131 114.32C46.4231 113.97 46.2231 113.39 46.2231 112.58V91.1498H38.2432C38.0932 90.9398 37.9632 90.6697 37.8632 90.3397C37.7532 90.0097 37.7031 89.6297 37.7031 89.2097C37.7031 88.5497 37.8631 88.0497 38.1731 87.6997C38.4931 87.3497 38.9131 87.1797 39.4631 87.1797H59.0831C59.2031 87.3597 59.3131 87.6097 59.4231 87.9497C59.5231 88.2797 59.5831 88.6398 59.5831 89.0298C59.5831 90.4398 58.9931 91.1498 57.8231 91.1498H51.0132L51.0032 91.1597Z" fill="#149A80"/>
<path d="M83.8105 94.1372C83.8105 95.4572 83.4806 96.6371 82.8206 97.6771C82.1606 98.7171 81.1106 99.5372 79.6606 100.137C81.4106 100.707 82.7105 101.577 83.5605 102.757C84.4205 103.927 84.8406 105.297 84.8406 106.857C84.8406 109.687 83.8305 111.767 81.8005 113.107C79.7705 114.447 76.8606 115.117 73.0706 115.117C71.9006 115.117 70.6606 115.057 69.3506 114.937C68.0406 114.817 66.8306 114.587 65.7206 114.257C64.3406 113.867 63.6406 113.067 63.6406 111.867V89.3171C63.6406 88.8071 63.7806 88.4072 64.0706 88.1272C64.3506 87.8372 64.7506 87.6272 65.2606 87.4772C66.2806 87.1472 67.4205 86.9171 68.6705 86.7971C69.9205 86.6771 71.2606 86.6172 72.7106 86.6172C76.2306 86.6172 78.9606 87.2372 80.9006 88.4672C82.8406 89.6972 83.8105 91.5972 83.8105 94.1472M68.3806 98.6172H73.7506C75.4606 98.6172 76.7606 98.2372 77.6306 97.4872C78.5006 96.7372 78.9406 95.7171 78.9406 94.4171C78.9406 91.7671 76.8606 90.4471 72.7206 90.4471C71.8506 90.4471 71.0506 90.4771 70.3306 90.5371C69.6106 90.5971 68.9606 90.6772 68.3906 90.7672V98.6172H68.3806ZM79.9305 106.737C79.9305 105.357 79.4206 104.267 78.4006 103.467C77.3806 102.667 75.9006 102.267 73.9806 102.267H68.3906V110.837C69.0206 110.987 69.7706 111.097 70.6506 111.177C71.5206 111.247 72.3906 111.287 73.2706 111.287C75.4106 111.287 77.0506 110.917 78.2106 110.187C79.3706 109.447 79.9506 108.297 79.9506 106.737" fill="#149A80"/>
<path d="M99.8137 111.052C101.654 111.052 103.004 110.672 103.884 109.912C104.764 109.152 105.194 108.173 105.194 106.983C105.194 105.933 104.854 105.083 104.184 104.443C103.514 103.803 102.444 103.263 100.994 102.823L97.7137 101.812C96.6937 101.493 95.7637 101.123 94.9337 100.693C94.1037 100.273 93.3937 99.7725 92.8137 99.2025C92.2337 98.6325 91.7838 97.9625 91.4838 97.1925C91.1738 96.4225 91.0238 95.5226 91.0238 94.5026C91.0238 92.2026 91.8737 90.3825 93.5837 89.0525C95.2837 87.7225 97.6038 87.0625 100.514 87.0625C101.704 87.0625 102.814 87.1625 103.834 87.3525C104.854 87.5425 105.734 87.8026 106.484 88.1426C107.224 88.4826 107.814 88.8725 108.234 89.3225C108.654 89.7725 108.864 90.2625 108.864 90.7925C108.864 91.2925 108.744 91.7225 108.494 92.0825C108.244 92.4425 107.944 92.7425 107.594 92.9825C106.864 92.4325 105.914 91.9525 104.724 91.5625C103.544 91.1725 102.244 90.9725 100.814 90.9725C99.2137 90.9725 97.9737 91.2925 97.0938 91.9325C96.2237 92.5725 95.7838 93.4326 95.7838 94.5126C95.7838 95.3826 96.0937 96.0926 96.7037 96.6326C97.3137 97.1726 98.3238 97.6425 99.7238 98.0525L102.264 98.7925C104.714 99.5225 106.614 100.522 107.974 101.792C109.334 103.062 110.014 104.793 110.014 106.973C110.014 108.143 109.784 109.212 109.334 110.182C108.884 111.162 108.234 112.003 107.384 112.693C106.534 113.393 105.484 113.933 104.214 114.312C102.944 114.692 101.504 114.883 99.9038 114.883C98.5638 114.883 97.3338 114.762 96.2338 114.532C95.1238 114.302 94.1738 113.993 93.3638 113.613C92.5638 113.233 91.9438 112.792 91.5038 112.302C91.0638 111.802 90.8438 111.283 90.8438 110.723C90.8438 110.143 91.0138 109.643 91.3738 109.233C91.7238 108.823 92.1337 108.522 92.5938 108.312C93.2937 108.952 94.2537 109.562 95.4637 110.152C96.6737 110.732 98.1237 111.023 99.8137 111.023" fill="#757575"/>
<path d="M122.022 93.2188C124.732 93.2188 126.892 93.8088 128.492 94.9888C130.092 96.1688 130.902 98.0287 130.902 100.569V110.759C130.902 111.429 130.752 111.949 130.442 112.309C130.132 112.679 129.722 113.019 129.202 113.339C128.442 113.779 127.462 114.159 126.272 114.479C125.082 114.799 123.692 114.959 122.112 114.959C119.282 114.959 117.072 114.399 115.482 113.299C113.892 112.189 113.102 110.559 113.102 108.399C113.102 106.479 113.722 104.999 114.962 103.979C116.202 102.959 117.982 102.329 120.322 102.099L126.402 101.489V100.529C126.402 99.2488 125.982 98.3188 125.152 97.7288C124.322 97.1488 123.162 96.8488 121.672 96.8488C120.502 96.8488 119.382 97.0087 118.302 97.3287C117.222 97.6487 116.262 98.0187 115.412 98.4187C115.122 98.1887 114.872 97.8987 114.672 97.5687C114.472 97.2387 114.362 96.8587 114.362 96.4487C114.362 95.9587 114.482 95.5488 114.732 95.2288C114.982 94.9088 115.362 94.6288 115.892 94.3988C116.712 93.9888 117.642 93.6888 118.692 93.4988C119.742 93.3088 120.852 93.2188 122.022 93.2188ZM122.112 111.369C123.132 111.369 124.022 111.269 124.782 111.059C125.542 110.859 126.082 110.639 126.402 110.409V104.849L121.632 105.329C120.292 105.469 119.282 105.769 118.612 106.229C117.942 106.679 117.602 107.379 117.602 108.309C117.602 109.239 117.962 110.019 118.692 110.559C119.422 111.099 120.562 111.369 122.102 111.369" fill="#757575"/>
<path d="M145.104 114.903C144.174 114.903 143.294 114.803 142.484 114.623C141.664 114.433 140.964 114.193 140.384 113.903V122.123C140.184 122.213 139.894 122.293 139.534 122.363C139.164 122.433 138.764 122.473 138.334 122.473C137.484 122.473 136.864 122.313 136.454 121.993C136.044 121.673 135.844 121.123 135.844 120.333V97.7131C135.844 97.0731 135.964 96.5531 136.194 96.1631C136.424 95.7731 136.864 95.3832 137.504 95.0032C138.324 94.5332 139.314 94.1232 140.504 93.7532C141.684 93.3932 143.024 93.2031 144.504 93.2031C145.984 93.2031 147.434 93.4131 148.744 93.8331C150.054 94.2531 151.194 94.9031 152.154 95.7831C153.114 96.6631 153.874 97.7732 154.424 99.1332C154.974 100.493 155.254 102.103 155.254 103.963C155.254 105.823 154.994 107.393 154.484 108.753C153.974 110.113 153.274 111.243 152.384 112.163C151.494 113.083 150.434 113.763 149.194 114.223C147.954 114.673 146.594 114.903 145.104 114.903ZM144.404 111.183C146.294 111.183 147.804 110.613 148.904 109.453C150.014 108.303 150.564 106.473 150.564 103.963C150.564 102.683 150.404 101.583 150.084 100.683C149.764 99.7831 149.334 99.0431 148.794 98.4731C148.254 97.9031 147.614 97.4932 146.874 97.2432C146.134 96.9932 145.334 96.8732 144.494 96.8732C143.564 96.8732 142.764 96.9831 142.114 97.2031C141.454 97.4231 140.884 97.6731 140.384 97.9731V110.003C140.884 110.353 141.464 110.633 142.134 110.853C142.804 111.073 143.564 111.183 144.414 111.183" fill="#757575"/>
<path d="M162.968 106.389C163.378 108.049 164.168 109.279 165.348 110.079C166.528 110.879 168.038 111.279 169.878 111.279C171.098 111.279 172.228 111.089 173.248 110.709C174.268 110.329 175.088 109.919 175.698 109.489C176.518 109.959 176.918 110.609 176.918 111.459C176.918 111.959 176.728 112.409 176.348 112.839C175.968 113.259 175.448 113.629 174.798 113.929C174.138 114.239 173.368 114.479 172.478 114.649C171.588 114.819 170.638 114.909 169.618 114.909C167.928 114.909 166.388 114.669 165.008 114.209C163.618 113.749 162.428 113.049 161.438 112.109C160.448 111.179 159.678 110.029 159.138 108.649C158.598 107.279 158.328 105.689 158.328 103.879C158.328 102.069 158.588 100.589 159.118 99.2688C159.648 97.9488 160.358 96.8287 161.258 95.9487C162.158 95.0587 163.228 94.3787 164.448 93.9187C165.668 93.4487 166.988 93.2188 168.388 93.2188C169.788 93.2188 171.068 93.4488 172.218 93.8988C173.368 94.3488 174.358 94.9788 175.188 95.7788C176.018 96.5788 176.658 97.5388 177.118 98.6488C177.568 99.7588 177.798 100.969 177.798 102.279C177.798 103.009 177.618 103.539 177.268 103.879C176.918 104.219 176.408 104.439 175.738 104.559L162.968 106.399V106.389ZM168.388 96.7688C166.788 96.7688 165.448 97.3088 164.388 98.3888C163.328 99.4688 162.768 101.009 162.708 103.029L173.468 101.499C173.348 100.189 172.868 99.0688 172.028 98.1488C171.178 97.2288 169.968 96.7688 168.398 96.7688" fill="#757575"/>
<path d="M186.702 83.5499C186.702 85.3699 185.222 86.85 183.402 86.85C181.582 86.85 180.102 85.3799 180.102 83.5499C180.102 81.7199 181.572 80.25 183.402 80.25C185.232 80.25 186.702 81.7299 186.702 83.5499Z" fill="#149A80"/>
</svg>
