<svg width="284" height="285" viewBox="0 0 284 285" fill="none" xmlns="http://www.w3.org/2000/svg">
<path d="M283.511 142.55C283.511 64.2703 220.051 0.820312 141.781 0.820312C63.5108 0.820312 0.0507812 64.2703 0.0507812 142.55C0.0507812 220.83 63.5008 284.28 141.781 284.28C220.061 284.28 283.511 220.83 283.511 142.55Z" fill="white"/>
<path fill-rule="evenodd" clip-rule="evenodd" d="M114.609 179.24C114.169 179.76 113.639 180.2 113.059 180.57C112.319 181.04 111.529 181.44 110.709 181.75C109.729 182.12 108.719 182.41 107.679 182.61C106.499 182.84 105.299 182.95 104.099 182.95C101.859 182.98 99.6194 182.62 97.4994 181.9C95.6194 181.26 93.8994 180.23 92.4394 178.89C91.0094 177.55 89.8994 175.92 89.1794 174.11C88.3794 172.07 87.9794 169.9 88.0094 167.71C87.9894 165.62 88.3794 163.55 89.1594 161.61C89.8894 159.8 91.0094 158.16 92.4194 156.81C93.8894 155.43 95.6294 154.36 97.5194 153.67C99.6594 152.9 101.919 152.52 104.189 152.56C106.229 152.51 108.259 152.81 110.209 153.42C111.549 153.84 112.839 154.45 114.019 155.21V162.53C112.989 161.09 111.649 159.88 110.099 159C109.229 158.51 108.309 158.12 107.339 157.84C106.319 157.54 105.249 157.39 104.189 157.4C102.699 157.38 101.219 157.63 99.8295 158.16C98.5995 158.62 97.4694 159.34 96.5294 160.26C95.6094 161.19 94.8995 162.3 94.4595 163.52C93.9595 164.88 93.7194 166.31 93.7394 167.75C93.7394 169.12 93.9494 170.48 94.3994 171.77C95.2394 174.26 97.1295 176.26 99.5795 177.24C101.009 177.81 102.529 178.1 104.069 178.1C105.269 178.11 106.479 177.97 107.639 177.68C108.669 177.42 109.669 177.04 110.599 176.54C111.459 176.09 112.249 175.52 112.949 174.86C113.599 174.24 114.159 173.54 114.599 172.75V179.23L114.609 179.24Z" fill="#1F4F5F"/>
<path fill-rule="evenodd" clip-rule="evenodd" d="M138.591 169.733H124.941V177.643H140.621V182.493H119.641V153.023H140.161V157.863H124.941V164.893H138.591V169.733Z" fill="#1F4F5F"/>
<path fill-rule="evenodd" clip-rule="evenodd" d="M166.32 157.863H155.05L154.96 159.253C154.76 162.813 154.5 165.873 154.16 168.433C153.89 170.603 153.5 172.763 153 174.893C152.67 176.343 152.17 177.763 151.52 179.103C151.08 180.003 150.49 180.823 149.76 181.523C149.2 182.043 148.53 182.423 147.79 182.613C147.1 182.783 146.4 182.863 145.69 182.863C144.87 182.903 144.07 182.753 143.32 182.443V177.143C143.53 177.223 143.75 177.283 143.98 177.313C144.18 177.343 144.39 177.353 144.6 177.353C144.95 177.353 145.3 177.293 145.64 177.183C146.06 177.023 146.42 176.753 146.7 176.403C147.13 175.863 147.47 175.243 147.7 174.593C148.08 173.543 148.38 172.463 148.59 171.373C148.87 170.033 149.13 168.353 149.35 166.363C149.57 164.373 149.76 161.953 149.9 159.123L150.19 153.023H171.63V182.493H166.34V157.873L166.32 157.863Z" fill="#1F4F5F"/>
<path fill-rule="evenodd" clip-rule="evenodd" d="M198.599 157.863H187.329L187.249 159.253C187.049 162.813 186.789 165.873 186.449 168.433C186.179 170.603 185.789 172.763 185.279 174.893C184.949 176.343 184.459 177.763 183.799 179.103C183.359 180.003 182.759 180.823 182.039 181.523C181.479 182.043 180.809 182.423 180.069 182.613C179.389 182.783 178.679 182.863 177.979 182.863C177.169 182.903 176.359 182.753 175.609 182.443V177.143C175.819 177.223 176.039 177.283 176.259 177.313C176.469 177.343 176.669 177.353 176.869 177.353C177.219 177.353 177.569 177.293 177.909 177.183C178.329 177.023 178.689 176.753 178.969 176.403C179.399 175.863 179.739 175.243 179.959 174.593C180.339 173.543 180.639 172.463 180.849 171.373C181.139 170.033 181.389 168.353 181.619 166.363C181.849 164.373 182.029 161.953 182.169 159.123L182.469 153.023H203.909V182.493H198.609V157.873L198.599 157.863Z" fill="#1F4F5F"/>
<path fill-rule="evenodd" clip-rule="evenodd" d="M230.11 169.733H216.47V177.643H232.14V182.493H211.18V153.023H231.67V157.863H216.47V164.893H230.11V169.733Z" fill="#1F4F5F"/>
<path fill-rule="evenodd" clip-rule="evenodd" d="M243.329 157.863V168.473H248.289C250.769 168.473 252.639 168.043 253.879 167.183C255.119 166.323 255.739 164.893 255.739 162.873C255.739 161.053 255.159 159.763 253.999 159.003C252.839 158.243 250.959 157.863 248.369 157.863H243.329ZM243.329 173.313V182.493H238.039V153.023H247.909C252.599 153.023 255.989 153.863 258.099 155.523C260.199 157.193 261.249 159.683 261.259 162.993C261.259 166.443 260.129 169.033 257.869 170.743C255.609 172.453 252.289 173.313 247.909 173.313H243.339H243.329Z" fill="#1F4F5F"/>
<path d="M104.32 137.11C106.27 137.12 108.2 136.64 109.92 135.7L111.36 134.92L115.56 138.02C112.79 141 108.71 142.63 104.03 142.63C99.3495 142.63 95.4696 141.04 92.5496 138.17C89.6296 135.3 88.0195 131.32 88.0195 126.99C88.0195 122.66 89.6596 118.73 92.5696 115.97C95.4896 113.2 99.5696 111.68 104.07 111.68C108.22 111.68 111.85 112.95 114.57 115.34L114.88 115.6L110.23 119.04C108.51 117.81 106.44 117.16 104.33 117.19C98.4796 117.19 94.2395 121.38 94.2395 127.15C94.2395 132.92 98.4796 137.11 104.33 137.11" fill="#23A039"/>
<path fill-rule="evenodd" clip-rule="evenodd" d="M135.443 123.822H127.552V117.082H140.152L146.943 112.062H121.062V142.222H134.603C142.203 142.222 146.552 138.772 146.552 132.752C146.552 126.992 142.613 123.822 135.443 123.822ZM134.312 137.202H127.542V128.842H134.312C138.432 128.842 140.343 130.242 140.343 133.022C140.343 135.802 138.303 137.202 134.312 137.202Z" fill="#23A039"/>
<path d="M175.32 112.07L168.53 117.09H159.08V124.46H172.94V129.49H159.08V137.21H175.32V142.23H152.59V112.07H175.32Z" fill="#23A039"/>
<path fill-rule="evenodd" clip-rule="evenodd" d="M181.359 112.07H193.739C201.639 112.07 206.539 116.21 206.539 122.87C206.539 129.53 201.629 133.69 193.739 133.69H187.859V142.24H181.369V112.07H181.359ZM187.849 128.67H193.599C197.759 128.67 200.039 126.62 200.039 122.88C200.039 119.14 197.749 117.09 193.599 117.09H187.849V128.67Z" fill="#23A039"/>
<path d="M67.1525 111.938C68.3325 113.477 69.3425 115.158 70.1525 116.948L47.3425 133.868L37.8125 127.857V120.628L47.3425 126.637L67.1525 111.938Z" fill="#23A039"/>
<mask id="mask0_186_2921" style="mask-type:luminance" maskUnits="userSpaceOnUse" x="22" y="126" width="12" height="20">
<path d="M22.3125 127.354C22.3125 134.314 25.1125 140.614 29.6425 145.174L33.7325 141.054C30.2525 137.544 28.0925 132.694 28.0925 127.354C28.0925 127.034 28.0925 126.704 28.1125 126.384L22.3425 126.094C22.3225 126.514 22.3125 126.934 22.3125 127.354Z" fill="white"/>
</mask>
<g mask="url(#mask0_186_2921)">
<path d="M32.5229 122.628L16.4023 128.242L23.5651 148.811L39.6856 143.197L32.5229 122.628Z" fill="url(#paint0_linear_186_2921)"/>
</g>
<mask id="mask1_186_2921" style="mask-type:luminance" maskUnits="userSpaceOnUse" x="29" y="102" width="20" height="12">
<path d="M29.6406 109.544L33.7307 113.664C37.2207 110.154 42.0307 107.984 47.3407 107.984C47.6607 107.984 47.9807 107.994 48.3007 108.014L48.5907 102.194C48.1807 102.174 47.7607 102.164 47.3407 102.164C40.4307 102.164 34.1706 104.984 29.6406 109.544Z" fill="white"/>
</mask>
<g mask="url(#mask1_186_2921)">
<path d="M46.2558 95.9867L25.8672 103.703L32.0509 120.042L52.4395 112.326L46.2558 95.9867Z" fill="url(#paint1_linear_186_2921)"/>
</g>
<mask id="mask2_186_2921" style="mask-type:luminance" maskUnits="userSpaceOnUse" x="46" y="141" width="20" height="12">
<path d="M47.3398 146.729C47.0198 146.729 46.6998 146.729 46.3798 146.699L46.0898 152.509C46.5098 152.529 46.9198 152.539 47.3398 152.539C54.2498 152.539 60.5098 149.719 65.0398 145.159L60.9498 141.039C57.4598 144.549 52.6498 146.719 47.3398 146.719" fill="white"/>
</mask>
<g mask="url(#mask2_186_2921)">
<path d="M64.1406 137.11L43.6406 141.711L47.0088 156.718L67.5088 152.117L64.1406 137.11Z" fill="url(#paint2_linear_186_2921)"/>
</g>
<mask id="mask3_186_2921" style="mask-type:luminance" maskUnits="userSpaceOnUse" x="47" y="102" width="17" height="10">
<path d="M47.3516 107.968C51.3716 107.968 55.1115 109.218 58.2015 111.348L63.0715 107.738C58.7715 104.238 53.3016 102.148 47.3516 102.148V107.968Z" fill="white"/>
</mask>
<g mask="url(#mask3_186_2921)">
<path d="M48.7197 97.7664L44.793 110.578L61.7446 115.774L65.6714 102.962L48.7197 97.7664Z" fill="url(#paint3_linear_186_2921)"/>
</g>
<path d="M72.38 127.348C72.38 125.808 72.2401 124.298 71.9801 122.828L66.5901 126.828C66.5901 126.998 66.5901 127.168 66.5901 127.348C66.5901 133.038 64.14 138.168 60.25 141.708L64.14 146.028C69.2 141.418 72.38 134.758 72.38 127.338" fill="#23A039"/>
<mask id="mask4_186_2921" style="mask-type:luminance" maskUnits="userSpaceOnUse" x="28" y="140" width="20" height="13">
<path d="M28.7795 144.262C33.3595 149.352 39.9796 152.562 47.3396 152.562V146.742C41.6896 146.742 36.5996 144.272 33.0696 140.352L28.7695 144.262H28.7795Z" fill="white"/>
</mask>
<g mask="url(#mask4_186_2921)">
<path d="M30.9777 134.281L24.75 151.062L45.0474 158.595L51.2751 141.813L30.9777 134.281Z" fill="url(#paint4_linear_186_2921)"/>
</g>
<mask id="mask5_186_2921" style="mask-type:luminance" maskUnits="userSpaceOnUse" x="22" y="108" width="13" height="20">
<path d="M22.3108 127.352H28.0908C28.0908 121.662 30.5408 116.542 34.4308 112.992L30.5408 108.672C25.4808 113.282 22.3008 119.952 22.3008 127.362" fill="white"/>
</mask>
<g mask="url(#mask5_186_2921)">
<path d="M24.002 104.646L16.1328 124.977L32.9658 131.492L40.835 111.162L24.002 104.646Z" fill="url(#paint5_linear_186_2921)"/>
</g>
<defs>
<linearGradient id="paint0_linear_186_2921" x1="26.9852" y1="145.909" x2="20.592" y2="127.551" gradientUnits="userSpaceOnUse">
<stop stop-color="#F2E612"/>
<stop offset="0.14" stop-color="#F2E612"/>
<stop offset="0.3" stop-color="#E7E116"/>
<stop offset="0.58" stop-color="#C8D425"/>
<stop offset="0.89" stop-color="#A0C639"/>
<stop offset="1" stop-color="#A0C639"/>
</linearGradient>
<linearGradient id="paint1_linear_186_2921" x1="31.2856" y1="110.471" x2="47.5871" y2="104.302" gradientUnits="userSpaceOnUse">
<stop stop-color="#18A8E0"/>
<stop offset="0.06" stop-color="#18A8E0"/>
<stop offset="0.27" stop-color="#2C9AD5"/>
<stop offset="0.54" stop-color="#448CCB"/>
<stop offset="0.92" stop-color="#3D87C8"/>
<stop offset="1" stop-color="#3D87C8"/>
</linearGradient>
<linearGradient id="paint2_linear_186_2921" x1="44.3721" y1="142.792" x2="62.7841" y2="138.659" gradientUnits="userSpaceOnUse">
<stop stop-color="#A0C639"/>
<stop offset="0.12" stop-color="#A0C639"/>
<stop offset="0.28" stop-color="#85BD37"/>
<stop offset="0.4" stop-color="#78B937"/>
<stop offset="0.61" stop-color="#55AF37"/>
<stop offset="0.87" stop-color="#23A039"/>
<stop offset="1" stop-color="#23A039"/>
</linearGradient>
<linearGradient id="paint3_linear_186_2921" x1="43.924" y1="112.282" x2="59.6805" y2="117.111" gradientUnits="userSpaceOnUse">
<stop stop-color="#3D87C8"/>
<stop offset="0.06" stop-color="#3D87C8"/>
<stop offset="0.32" stop-color="#3387C8"/>
<stop offset="0.78" stop-color="#1889CA"/>
<stop offset="0.79" stop-color="#188ACB"/>
<stop offset="1" stop-color="#188ACB"/>
</linearGradient>
<linearGradient id="paint4_linear_186_2921" x1="28.8955" y1="146.931" x2="46.0522" y2="153.298" gradientUnits="userSpaceOnUse">
<stop stop-color="#F2E612"/>
<stop offset="0.13" stop-color="#F2E612"/>
<stop offset="0.3" stop-color="#EBE215"/>
<stop offset="0.53" stop-color="#D8DB1B"/>
<stop offset="0.8" stop-color="#B9CF2B"/>
<stop offset="0.98" stop-color="#A0C639"/>
<stop offset="1" stop-color="#A0C639"/>
</linearGradient>
<linearGradient id="paint5_linear_186_2921" x1="21.0958" y1="126.641" x2="28.0518" y2="108.671" gradientUnits="userSpaceOnUse">
<stop stop-color="#A0C639"/>
<stop offset="0.07" stop-color="#A0C639"/>
<stop offset="0.26" stop-color="#81BE5E"/>
<stop offset="0.4" stop-color="#6FBA73"/>
<stop offset="0.68" stop-color="#42B0AB"/>
<stop offset="0.92" stop-color="#18A8E0"/>
<stop offset="1" stop-color="#18A8E0"/>
</linearGradient>
</defs>
</svg>
