<svg width="579" height="284" viewBox="0 0 579 284" fill="none" xmlns="http://www.w3.org/2000/svg">
<path d="M20.1428 1.80469H37.9228L57.1928 64.8647H44.9328L40.8628 51.7247H17.1328L13.1428 64.8647H0.882812L20.1528 1.80469H20.1428ZM37.4428 40.6047L28.9028 12.9747L20.4928 40.6047H37.4428Z" fill="white"/>
<path d="M65.0703 1.80469H85.4803C85.9803 1.80469 87.0003 1.82469 88.5403 1.84469C90.0903 1.87469 91.5803 1.97469 93.0103 2.15469C98.0903 2.76469 102.39 4.53469 105.93 7.45469C109.46 10.3747 112.15 14.0847 113.99 18.5747C115.83 23.0747 116.75 27.9947 116.75 33.3347C116.75 38.6747 115.83 43.5947 113.99 48.0947C112.15 52.5947 109.46 56.2947 105.93 59.2147C102.4 62.1347 98.0903 63.9047 93.0103 64.5147C91.5803 64.6847 90.0903 64.7947 88.5403 64.8247C86.9903 64.8547 85.9703 64.8647 85.4803 64.8647H65.0703V1.80469ZM85.4803 53.6547C86.2703 53.6547 87.3303 53.6347 88.6803 53.5947C90.0203 53.5547 91.2303 53.4247 92.3103 53.2247C95.0503 52.6747 97.2903 51.3847 99.0303 49.3747C100.77 47.3547 102.05 44.9347 102.88 42.1047C103.71 39.2747 104.13 36.3547 104.13 33.3447C104.13 30.3347 103.7 27.2047 102.84 24.3647C101.98 21.5347 100.67 19.1347 98.9203 17.1847C97.1703 15.2347 94.9603 13.9847 92.3103 13.4647C91.2303 13.2347 90.0203 13.1047 88.6803 13.0747C87.3403 13.0447 86.2703 13.0347 85.4803 13.0347H77.1603V53.6747H85.4803V53.6547Z" fill="white"/>
<path d="M121.547 1.80469H133.807L149.577 53.6547L165.597 1.80469H177.857L158.597 64.8647H140.817L121.547 1.80469Z" fill="white"/>
<path d="M184.43 1.80469H225.59V12.9247H196.34V26.4147H220.34V37.5347H196.34V53.7347H225.59V64.8647H184.43V1.80469Z" fill="white"/>
<path d="M236.104 1.80688H262.724C263.334 1.80688 264.164 1.82688 265.204 1.87688C266.234 1.91688 267.164 2.01688 267.984 2.15688C273.644 3.03688 277.774 5.33687 280.374 9.07687C282.974 12.8169 284.274 17.3369 284.274 22.6469C284.274 26.9369 283.424 30.7369 281.714 34.0569C280.004 37.3669 277.354 39.8469 273.764 41.4769L285.144 64.8569H271.654L261.274 43.4869H248.004V64.8569H236.094V1.79688L236.104 1.80688ZM262.204 32.3669C262.814 32.3669 263.484 32.3369 264.214 32.2769C264.944 32.2169 265.614 32.0969 266.224 31.9269C267.834 31.4869 269.074 30.7569 269.944 29.7169C270.824 28.6769 271.424 27.5269 271.764 26.2569C272.094 24.9869 272.264 23.7869 272.264 22.6469C272.264 21.5069 272.094 20.3069 271.764 19.0369C271.424 17.7669 270.824 16.6169 269.944 15.5769C269.064 14.5369 267.824 13.8069 266.224 13.3669C265.614 13.1869 264.944 13.0769 264.214 13.0169C263.484 12.9569 262.814 12.9269 262.204 12.9269H248.014V32.3669H262.204Z" fill="white"/>
<path d="M309.411 12.9247H289.531V1.80469H341.201V12.9247H321.321V64.8647H309.411V12.9247Z" fill="white"/>
<path d="M360.988 1.80469H349.078V64.8647H360.988V1.80469Z" fill="white"/>
<path d="M385.312 63.7086C381.562 62.0586 378.482 59.6986 376.072 56.6186C373.662 53.5386 372.142 49.8686 371.492 45.6086L383.932 43.7686C384.812 47.3886 386.622 50.1786 389.362 52.1286C392.102 54.0886 395.232 55.0586 398.732 55.0586C400.682 55.0586 402.582 54.7486 404.422 54.1386C406.262 53.5286 407.772 52.6186 408.952 51.4286C410.132 50.2286 410.722 48.7586 410.722 47.0086C410.722 45.7286 410.312 44.5386 409.492 43.4386C408.672 42.3486 407.042 41.4286 404.592 40.6986L388.212 35.8786C386.982 35.5286 385.562 35.0286 383.942 34.3886C382.322 33.7486 380.752 32.8286 379.232 31.6286C377.712 30.4286 376.452 28.8486 375.442 26.8786C374.432 24.9086 373.932 22.4186 373.932 19.4086C373.932 15.1786 375.002 11.6586 377.132 8.85856C379.262 6.05856 382.112 3.96856 385.672 2.59856C389.232 1.22856 393.172 0.55856 397.492 0.57856C404.032 0.66856 409.492 2.28856 413.872 5.43856C418.252 8.58856 421.202 13.1286 422.722 19.0586L409.852 21.2486C409.152 18.1786 407.602 15.8486 405.212 14.2386C402.822 12.6386 400.192 11.7886 397.332 11.6986C395.462 11.6386 393.702 11.8986 392.052 12.4686C390.402 13.0386 389.062 13.8686 388.022 14.9386C386.982 16.0186 386.472 17.2986 386.472 18.7886C386.472 20.1586 386.892 21.2786 387.742 22.1386C388.592 22.9986 389.652 23.6886 390.942 24.2186C392.222 24.7486 393.542 25.1786 394.882 25.5286L405.832 28.5086C407.462 28.9486 409.272 29.5286 411.262 30.2386C413.252 30.9586 415.152 31.9486 416.972 33.2186C418.792 34.4886 420.302 36.1586 421.482 38.2286C422.662 40.2986 423.252 42.9286 423.252 46.1086C423.252 49.4986 422.542 52.4486 421.132 54.9786C419.712 57.5086 417.812 59.5886 415.412 61.2386C413.022 62.8886 410.312 64.1186 407.292 64.9386C404.272 65.7586 401.152 66.1686 397.942 66.1686C393.272 66.1686 389.062 65.3386 385.312 63.6986" fill="white"/>
<path d="M445.668 1.80469H433.758V64.8647H445.668V1.80469Z" fill="white"/>
<path d="M458.812 1.80469H470.892L498.312 43.8447V1.80469H510.392V64.8647H498.312L470.892 22.8247V64.8647H458.812V1.80469Z" fill="white"/>
<path d="M537.578 64.0578C533.988 62.6378 530.808 60.5478 528.058 57.7778C525.298 55.0078 523.128 51.5778 521.538 47.4878C519.948 43.3978 519.148 38.6878 519.148 33.3478C519.148 26.3678 520.488 20.4378 523.158 15.5478C525.828 10.6578 529.418 6.92781 533.928 4.35781C538.438 1.78781 543.438 0.507812 548.928 0.507812C557.048 0.507812 563.418 2.38781 568.068 6.15781C572.708 9.92781 575.818 15.2478 577.398 22.1378L565.228 23.8878C564.088 20.2078 562.228 17.2678 559.648 15.0678C557.068 12.8678 553.758 11.7478 549.728 11.7178C543.748 11.6278 539.258 13.5678 536.258 17.5378C533.268 21.5078 531.768 26.7778 531.768 33.3478C531.768 39.9178 533.258 45.1378 536.258 49.0278C539.248 52.9078 543.738 54.8978 549.728 54.9878C553.818 55.0778 557.298 53.9678 560.168 51.6578C563.048 49.3478 564.958 45.7078 565.928 40.7078H555.948V31.5078H578.628C578.688 31.8878 578.728 32.5578 578.758 33.5178C578.788 34.4778 578.798 35.0378 578.798 35.1778C578.798 41.2178 577.568 46.5778 575.118 51.2478C572.668 55.9178 569.208 59.5778 564.738 62.2178C560.268 64.8578 554.998 66.1778 548.928 66.1778C544.958 66.1778 541.178 65.4678 537.588 64.0578" fill="white"/>
<path d="M19.88 105.888H0V94.7578H51.67V105.888H31.79V157.818H19.88V105.888Z" fill="white"/>
<path d="M58.6663 94.7678H85.2863C85.8963 94.7678 86.7263 94.7878 87.7663 94.8378C88.7963 94.8778 89.7262 94.9778 90.5462 95.1178C96.2062 95.9978 100.336 98.2978 102.936 102.038C105.536 105.778 106.836 110.298 106.836 115.608C106.836 119.898 105.986 123.698 104.276 127.018C102.566 130.328 99.9162 132.808 96.3262 134.438L107.706 157.818H94.2162L83.8363 136.448H70.5663V157.818H58.6562V94.7578L58.6663 94.7678ZM84.7663 125.328C85.3763 125.328 86.0462 125.298 86.7762 125.238C87.5062 125.178 88.1763 125.058 88.7863 124.888C90.3863 124.448 91.6363 123.718 92.5063 122.678C93.3863 121.638 93.9862 120.488 94.3262 119.218C94.6662 117.948 94.8262 116.748 94.8262 115.608C94.8262 114.468 94.6562 113.268 94.3262 111.998C93.9862 110.728 93.3863 109.578 92.5063 108.538C91.6263 107.498 90.3863 106.768 88.7863 106.328C88.1763 106.148 87.5062 106.038 86.7762 105.978C86.0462 105.918 85.3763 105.888 84.7663 105.888H70.5762V125.328H84.7663Z" fill="white"/>
<path d="M132.237 94.7578H150.017L169.287 157.818H157.027L152.957 144.678H129.227L125.237 157.818H112.977L132.247 94.7578H132.237ZM149.537 133.558L140.997 105.928L132.587 133.558H149.537Z" fill="white"/>
<path d="M189.949 94.7656H178.039V157.826H189.949V94.7656Z" fill="white"/>
<path d="M203.961 94.7578H215.871V146.698H243.021V157.818H203.961V94.7578Z" fill="white"/>
<path d="M267.977 94.7578H278.657L299.507 136.628L320.347 94.7578H331.027V157.818H319.907V120.158L301.607 157.818H297.397L279.097 120.158V157.818H267.977V94.7578Z" fill="white"/>
<path d="M358.18 94.7578H375.96L395.23 157.818H382.97L378.9 144.678H355.17L351.19 157.818H338.93L358.2 94.7578H358.18ZM375.48 133.558L366.94 105.928L358.53 133.558H375.48Z" fill="white"/>
<path d="M403.109 94.7678H429.729C430.339 94.7678 431.169 94.7878 432.209 94.8378C433.239 94.8778 434.169 94.9778 434.989 95.1178C440.649 95.9978 444.779 98.2978 447.379 102.038C449.979 105.778 451.279 110.298 451.279 115.608C451.279 120.918 449.969 125.408 447.339 129.158C444.709 132.908 440.599 135.218 434.989 136.098C434.169 136.218 433.239 136.298 432.189 136.358C431.139 136.418 430.319 136.448 429.739 136.448H415.029V157.818H403.119V94.7578L403.109 94.7678ZM429.209 125.328C429.819 125.328 430.489 125.298 431.219 125.238C431.949 125.178 432.619 125.058 433.229 124.888C434.839 124.448 436.079 123.718 436.949 122.678C437.829 121.638 438.429 120.488 438.769 119.218C439.099 117.948 439.269 116.748 439.269 115.608C439.269 114.468 439.099 113.268 438.769 111.998C438.429 110.728 437.829 109.578 436.949 108.538C436.069 107.498 434.829 106.768 433.229 106.328C432.619 106.148 431.949 106.038 431.219 105.978C430.489 105.918 429.819 105.888 429.209 105.888H415.019V125.328H429.209Z" fill="white"/>
<path d="M5.56625 274.434L47.4362 236.424C51.1462 233.094 53.5763 229.894 54.7063 226.844C55.8463 223.784 56.4163 220.514 56.4163 217.014C56.4163 213.054 55.4663 209.444 53.5663 206.194C51.6663 202.944 49.1063 200.364 45.8763 198.444C42.6463 196.524 39.0363 195.564 35.0263 195.564C31.0163 195.564 27.2663 196.554 24.0163 198.534C20.7663 200.514 18.2063 203.134 16.3363 206.374C14.4563 209.624 13.5163 213.164 13.5163 217.004H6.17625C6.17625 211.654 7.46625 206.814 10.0363 202.484C12.6063 198.164 16.0763 194.734 20.4463 192.204C24.8063 189.674 29.6863 188.414 35.0863 188.414C40.4863 188.414 45.4062 189.714 49.7262 192.304C54.0462 194.894 57.4763 198.364 60.0063 202.704C62.5363 207.044 63.7962 211.834 63.7962 217.064C63.7962 222.294 62.8463 227.114 60.9463 230.884C59.0463 234.664 56.0163 238.424 51.8363 242.174L16.4762 274.244H63.7863V281.394H5.40625L5.53625 274.434H5.56625Z" fill="white"/>
<path d="M93.2378 279.44C88.8978 276.87 85.4378 273.41 82.8678 269.07C80.2978 264.73 79.0078 259.9 79.0078 254.59V217.15C79.0078 211.8 80.2978 206.96 82.8678 202.63C85.4378 198.31 88.8978 194.86 93.2378 192.29C97.5778 189.72 102.408 188.43 107.718 188.43C113.028 188.43 117.908 189.72 122.228 192.29C126.548 194.86 129.998 198.31 132.568 202.63C135.138 206.95 136.428 211.79 136.428 217.15V254.59C136.428 259.9 135.138 264.73 132.568 269.07C129.998 273.41 126.548 276.87 122.228 279.44C117.908 282.01 113.068 283.3 107.718 283.3C102.368 283.3 97.5778 282.01 93.2378 279.44ZM118.478 273.24C121.728 271.3 124.308 268.72 126.228 265.49C128.148 262.26 129.108 258.69 129.108 254.77V216.88C129.108 212.96 128.148 209.39 126.228 206.16C124.308 202.93 121.728 200.36 118.478 198.44C115.228 196.52 111.648 195.56 107.728 195.56C103.808 195.56 100.228 196.52 97.0078 198.44C93.7878 200.36 91.1978 202.93 89.2578 206.16C87.3178 209.39 86.3478 212.96 86.3478 216.88V254.77C86.3478 258.69 87.3178 262.26 89.2578 265.49C91.1978 268.72 93.7778 271.3 97.0078 273.24C100.238 275.18 103.808 276.15 107.728 276.15C111.648 276.15 115.228 275.18 118.478 273.24Z" fill="white"/>
<path d="M151.738 274.434L193.608 236.424C197.318 233.094 199.738 229.894 200.878 226.844C202.018 223.784 202.588 220.514 202.588 217.014C202.588 213.054 201.638 209.444 199.738 206.194C197.838 202.944 195.278 200.364 192.058 198.444C188.828 196.524 185.218 195.564 181.208 195.564C177.198 195.564 173.448 196.554 170.198 198.534C166.948 200.514 164.388 203.134 162.518 206.374C160.638 209.624 159.698 213.164 159.698 217.004H152.358C152.358 211.654 153.648 206.814 156.218 202.484C158.788 198.164 162.258 194.734 166.618 192.204C170.978 189.674 175.858 188.414 181.258 188.414C186.658 188.414 191.578 189.714 195.898 192.304C200.218 194.894 203.648 198.364 206.178 202.704C208.708 207.044 209.968 211.834 209.968 217.064C209.968 222.294 209.018 227.114 207.118 230.884C205.218 234.664 202.188 238.424 198.008 242.174L162.648 274.244H209.958V281.394H151.578L151.708 274.434H151.738Z" fill="white"/>
<path d="M266.031 262.93H222.641V255.79L253.571 190.32H261.731L230.801 255.79H266.031V228.27H273.371V255.79H283.811V262.93H273.371V281.4H266.031V262.93Z" fill="white"/>
</svg>
