<svg width="200" height="199" viewBox="0 0 200 199" fill="none" xmlns="http://www.w3.org/2000/svg">
<path d="M199.154 99.3663C199.154 44.5763 154.734 0.15625 99.9443 0.15625C45.1543 0.15625 0.734375 44.5763 0.734375 99.3663C0.734375 154.156 45.1543 198.576 99.9443 198.576C154.734 198.576 199.154 154.156 199.154 99.3663Z" fill="white"/>
<path d="M82.8705 101.249C82.8705 102.859 82.6505 104.429 81.9005 105.879C80.6905 108.199 78.7405 109.389 76.1505 109.519C74.3905 109.609 72.7604 109.189 71.3604 108.059C70.0604 107.009 69.2704 105.609 68.9404 103.989C68.4704 101.709 68.4704 99.4292 69.3204 97.2292C70.4904 94.2092 73.2105 92.7992 76.1305 92.9392C79.4305 93.0892 81.9305 95.2691 82.6405 98.7891C82.7105 99.1191 82.7604 99.4592 82.7904 99.7992C82.8304 100.279 82.8405 100.759 82.8705 101.249ZM78.6004 101.229C78.5504 100.599 78.5304 99.9592 78.4504 99.3292C78.3504 98.5692 78.1205 97.8592 77.6605 97.2192C76.7705 95.9992 74.5304 96.0092 73.7304 97.3592C73.4704 97.8092 73.2705 98.3092 73.1505 98.8192C72.8605 100.099 72.9005 101.399 73.0005 102.699C73.0605 103.469 73.2504 104.209 73.6104 104.909C74.4504 106.529 76.9504 106.619 77.8504 104.959C78.0104 104.669 78.1404 104.369 78.2404 104.049C78.5404 103.139 78.5804 102.189 78.6004 101.229Z" fill="#0B0904"/>
<path d="M88.9856 103.974V109.294H84.7656V108.994C84.7656 104.384 84.7656 99.7738 84.7656 95.1538C84.7656 93.9138 85.5356 93.1339 86.7656 93.1339C88.5156 93.1339 90.2756 93.0938 92.0256 93.1838C93.7856 93.2738 95.3356 93.9239 96.4656 95.3539C98.0856 97.4039 97.9156 100.574 96.1056 102.304C95.1356 103.234 93.9556 103.724 92.6456 103.854C91.5456 103.964 90.4256 103.934 89.3256 103.974C89.2256 103.974 89.1156 103.974 88.9856 103.974ZM88.9856 100.594C89.8856 100.594 90.7756 100.624 91.6556 100.594C92.5556 100.554 93.1156 100.004 93.2556 99.1439C93.2956 98.9039 93.2856 98.6638 93.2756 98.4238C93.2056 97.4038 92.5956 96.6438 91.6456 96.5638C90.7656 96.4838 89.8856 96.5438 88.9956 96.5438V100.604L88.9856 100.594Z" fill="#0B0904"/>
<path d="M66.0938 109.295H61.8638V92.5453H56.3438C56.3837 91.8453 56.3438 91.1554 56.4938 90.4954C56.6638 89.6854 57.4038 89.1953 58.2738 89.1953C59.5838 89.1953 60.8837 89.1953 62.1937 89.1953H71.6238V92.5254H66.0938V109.295Z" fill="#0B0904"/>
<path d="M46.223 82.8672C46.513 82.9272 46.803 82.9771 47.083 83.0571C49.463 83.7071 51.063 85.8171 51.073 88.3171C51.073 92.5671 51.073 96.8271 51.073 101.077C51.073 104.137 51.073 107.197 51.073 110.267C51.073 112.937 49.313 115.117 46.693 115.597C45.843 115.757 44.953 115.697 44.043 115.747V89.5771H16.553C16.053 85.7071 18.353 83.3671 21.293 82.9171C21.333 82.9171 21.3631 82.8872 21.4031 82.8672H46.223Z" fill="#3860AB"/>
<path d="M19.3139 115.853C19.1639 115.813 19.0139 115.773 18.8639 115.723C17.6439 115.343 16.7639 114.593 16.4539 113.323C16.1439 112.053 16.4939 110.942 17.4339 110.042C20.0239 107.562 22.6239 105.113 25.2239 102.643C25.4339 102.443 25.654 102.233 25.914 101.983H16.534V95.5625H37.6939V115.672H30.9839V106.662C30.7839 106.842 30.6339 106.983 30.4939 107.123C28.0039 109.493 25.4939 111.843 23.0239 114.233C22.2339 114.993 21.424 115.683 20.284 115.843H19.3139V115.853Z" fill="#3860AB"/>
<path d="M122.433 109.315H120.793C119.933 109.315 119.073 109.315 118.213 109.315C118.023 109.315 117.933 109.245 117.853 109.085C117.013 107.375 116.153 105.675 115.313 103.975C115.233 103.805 115.133 103.745 114.943 103.745C114.473 103.755 113.993 103.745 113.493 103.745V109.285H109.273V109.005C109.273 104.375 109.273 99.745 109.273 95.115C109.273 93.895 110.033 93.125 111.243 93.125C113.013 93.125 114.793 93.1249 116.553 93.1749C117.743 93.2149 118.883 93.535 119.893 94.215C120.953 94.935 121.573 95.9249 121.763 97.1849C121.883 97.9849 121.853 98.7749 121.683 99.5549C121.423 100.765 120.743 101.685 119.703 102.345C119.543 102.455 119.363 102.545 119.183 102.655C119.223 102.745 119.263 102.825 119.303 102.915C120.283 104.825 121.273 106.725 122.253 108.635C122.343 108.815 122.363 109.035 122.433 109.285M113.503 100.365C114.323 100.365 115.113 100.385 115.913 100.365C116.893 100.335 117.473 99.805 117.613 98.835C117.643 98.605 117.643 98.365 117.623 98.135C117.553 97.235 117.063 96.605 116.183 96.525C115.303 96.445 114.403 96.505 113.503 96.505V100.355V100.365Z" fill="#3860AB"/>
<path d="M138.408 109.317H136.328C135.618 109.317 134.918 109.297 134.208 109.317C133.948 109.317 133.858 109.237 133.788 108.997C133.558 108.187 133.287 107.397 133.047 106.587C132.997 106.417 132.918 106.367 132.748 106.367C131.268 106.367 129.798 106.367 128.318 106.367C128.148 106.367 128.068 106.417 128.018 106.587C127.768 107.427 127.508 108.257 127.238 109.097C127.208 109.177 127.117 109.287 127.047 109.287C125.607 109.297 124.168 109.287 122.688 109.287C122.717 109.187 122.738 109.107 122.768 109.027C124.688 103.797 126.598 98.5671 128.518 93.3271C128.578 93.1571 128.658 93.1172 128.828 93.1172C129.968 93.1172 131.098 93.1172 132.238 93.1172C132.418 93.1172 132.487 93.1772 132.547 93.3372C134.477 98.5872 136.418 103.827 138.348 109.067C138.368 109.127 138.388 109.197 138.408 109.287M131.927 102.977C131.457 101.477 131.007 100.017 130.547 98.5471H130.498C130.048 100.017 129.588 101.487 129.128 102.977H131.918H131.927Z" fill="#3860AB"/>
<path d="M179.301 103.574H183.471C183.501 104.104 183.411 104.604 183.291 105.104C182.801 107.014 181.591 108.304 179.771 109.004C178.101 109.644 176.381 109.734 174.661 109.254C172.371 108.624 171.001 107.054 170.321 104.834C169.831 103.254 169.831 101.624 169.921 99.9938C169.981 98.7838 170.241 97.6138 170.791 96.5338C171.901 94.3338 173.691 93.1538 176.141 92.9538C177.341 92.8538 178.521 92.9838 179.651 93.4138C181.811 94.2438 183.031 95.8538 183.431 98.1038C183.481 98.3938 183.511 98.6839 183.551 99.0039H179.341C179.311 98.7339 179.301 98.4538 179.251 98.1838C179.061 97.0238 178.441 96.4438 177.261 96.3538C176.921 96.3238 176.581 96.3238 176.241 96.3638C175.491 96.4738 174.981 96.9138 174.671 97.6038C174.371 98.2838 174.241 99.0138 174.211 99.7438C174.161 101.134 174.101 102.524 174.351 103.894C174.411 104.204 174.501 104.504 174.601 104.794C174.871 105.524 175.401 105.964 176.171 106.084C176.731 106.174 177.281 106.154 177.821 106.004C178.671 105.764 179.101 105.164 179.231 104.324C179.271 104.084 179.281 103.844 179.311 103.574" fill="#3860AB"/>
<path d="M100.977 92.5375H95.5273C95.5273 91.9175 95.4773 91.3176 95.5373 90.7276C95.6273 89.8676 96.3873 89.2376 97.2573 89.2076C97.6073 89.1976 97.9572 89.2076 98.3072 89.2076C102.337 89.2076 106.367 89.2076 110.387 89.2076H110.727V92.5475H105.197V109.308H100.967V92.5475L100.977 92.5375Z" fill="#3860AB"/>
<path d="M162.143 93.1484V96.4984H155.453V99.6984H160.913V103.048H155.433V109.298H151.203V109.008C151.203 104.388 151.203 99.7684 151.203 95.1484C151.203 93.9184 151.973 93.1484 153.193 93.1484C156.083 93.1484 158.973 93.1484 161.863 93.1484H162.133H162.143Z" fill="#3860AB"/>
<path d="M149.891 93.1484V96.4984H143.201V99.6984H148.671V103.038H143.201V109.298H138.961V109.008C138.961 104.398 138.961 99.7883 138.961 95.1783C138.961 93.9183 139.721 93.1484 140.981 93.1484C143.851 93.1484 146.731 93.1484 149.601 93.1484H149.901H149.891Z" fill="#3860AB"/>
<path d="M167.864 109.298H163.664V108.998C163.664 104.368 163.664 99.7384 163.664 95.1184C163.664 93.9184 164.424 93.1484 165.614 93.1484C166.354 93.1484 167.094 93.1484 167.854 93.1484V109.308L167.864 109.298Z" fill="#3860AB"/>
</svg>
