<svg width="199" height="199" viewBox="0 0 199 199" fill="none" xmlns="http://www.w3.org/2000/svg">
<path d="M198.623 99.3663C198.623 44.5763 154.203 0.15625 99.4131 0.15625C44.6231 0.15625 0.203125 44.5763 0.203125 99.3663C0.203125 154.156 44.6231 198.576 99.4131 198.576C154.203 198.576 198.623 154.156 198.623 99.3663Z" fill="white"/>
<path d="M52.6403 148.814H44.5803L49.9404 143.914C50.6204 143.374 51.1604 142.874 51.5604 142.404C51.9704 141.924 52.2804 141.464 52.4904 141.044C52.7004 140.604 52.8403 140.164 52.9003 139.734C52.9603 139.294 52.9904 138.824 52.9904 138.344C52.9904 137.594 52.8404 136.834 52.5604 136.084C52.2904 135.314 51.8603 134.614 51.2803 133.994C50.7003 133.354 49.9703 132.844 49.0803 132.454C48.1903 132.044 47.1403 131.844 45.9203 131.844C44.9103 131.844 43.9804 132.014 43.1104 132.364C42.2404 132.694 41.4803 133.144 40.8203 133.724C40.1803 134.304 39.6703 134.984 39.2803 135.754C38.8903 136.524 38.6704 137.354 38.6104 138.224C38.5904 138.454 38.6604 138.644 38.8104 138.804C38.9804 138.944 39.1803 139.004 39.3903 139.004H41.6804C41.8504 139.004 42.0303 138.944 42.2003 138.834C42.3703 138.694 42.4904 138.504 42.5504 138.254C42.7604 137.444 43.1103 136.774 43.5903 136.254C44.0903 135.734 44.8804 135.474 45.9404 135.474C47.0604 135.474 47.8603 135.754 48.3503 136.314C48.8303 136.854 49.0703 137.524 49.0703 138.314C49.0703 138.724 48.9804 139.164 48.8104 139.644C48.6504 140.124 48.2903 140.604 47.7103 141.064L39.1003 148.514C38.9603 148.614 38.8004 148.784 38.6104 149.034C38.4204 149.264 38.3203 149.544 38.3203 149.874V151.644C38.3203 151.854 38.4004 152.044 38.5504 152.194C38.7004 152.344 38.8903 152.424 39.1003 152.424H52.6403C52.8503 152.424 53.0404 152.344 53.1904 152.194C53.3504 152.044 53.4203 151.854 53.4203 151.644V149.584C53.4203 149.374 53.3404 149.184 53.1904 149.034C53.0404 148.884 52.8503 148.804 52.6403 148.804" fill="#00A436"/>
<path d="M73.0504 148.818H63.4803V132.928C63.4803 132.718 63.4004 132.528 63.2504 132.378C63.1004 132.228 62.9103 132.148 62.7003 132.148H60.3503C60.1403 132.148 59.9504 132.228 59.8004 132.378C59.6504 132.528 59.5703 132.718 59.5703 132.928V151.658C59.5703 151.868 59.6504 152.058 59.8004 152.208C59.9504 152.358 60.1403 152.438 60.3503 152.438H73.0504C73.2604 152.438 73.4503 152.358 73.6003 152.208C73.7503 152.058 73.8303 151.868 73.8303 151.658V149.598C73.8303 149.388 73.7503 149.198 73.6003 149.048C73.4503 148.898 73.2604 148.818 73.0504 148.818Z" fill="#00A436"/>
<path d="M92.6763 148.816H83.0762V144.006H91.8063C92.0163 144.006 92.2063 143.926 92.3563 143.776C92.5163 143.626 92.5862 143.436 92.5862 143.226V141.166C92.5862 140.956 92.5063 140.766 92.3563 140.616C92.2063 140.466 92.0163 140.386 91.8063 140.386H83.0762V135.776H92.4363C92.6463 135.776 92.8363 135.696 92.9863 135.546C93.1463 135.396 93.2162 135.206 93.2162 134.996V132.936C93.2162 132.726 93.1363 132.536 92.9863 132.386C92.8363 132.236 92.6463 132.156 92.4363 132.156H79.9363C79.7263 132.156 79.5363 132.236 79.3863 132.386C79.2363 132.536 79.1562 132.726 79.1562 132.936V151.666C79.1562 151.876 79.2363 152.066 79.3863 152.216C79.5463 152.366 79.7263 152.446 79.9363 152.446H92.6663C92.8763 152.446 93.0662 152.366 93.2162 152.216C93.3762 152.066 93.4463 151.876 93.4463 151.666V149.606C93.4463 149.396 93.3662 149.206 93.2162 149.056C93.0662 148.906 92.8763 148.826 92.6663 148.826" fill="#00A436"/>
<path d="M110.257 133.128C110.137 132.798 110.007 132.558 109.857 132.408C109.697 132.238 109.467 132.148 109.157 132.148H105.967C105.657 132.148 105.427 132.238 105.267 132.408C105.107 132.558 104.977 132.808 104.857 133.128L97.7566 151.448C97.7366 151.508 97.7266 151.578 97.7266 151.648C97.7266 151.858 97.8065 152.048 97.9565 152.198C98.1065 152.348 98.2966 152.428 98.5066 152.428H100.597C100.987 152.428 101.257 152.348 101.407 152.198C101.557 152.028 101.667 151.858 101.727 151.708L102.977 148.488H112.137L113.387 151.708C113.447 151.858 113.547 152.028 113.707 152.198C113.857 152.348 114.127 152.428 114.517 152.428H116.607C116.817 152.428 117.007 152.348 117.157 152.198C117.307 152.038 117.387 151.858 117.387 151.648C117.387 151.568 117.387 151.498 117.357 151.448L110.257 133.128ZM104.377 144.868L107.567 136.608L110.757 144.868H104.377Z" fill="#00A436"/>
<path d="M138.496 136.833C138.126 135.843 137.586 135.003 136.876 134.313C136.176 133.613 135.296 133.083 134.236 132.713C133.196 132.323 131.956 132.133 130.526 132.133H123.366C123.156 132.133 122.966 132.213 122.816 132.363C122.666 132.513 122.586 132.703 122.586 132.913V151.643C122.586 151.853 122.666 152.043 122.816 152.193C122.976 152.343 123.156 152.423 123.366 152.423H130.676C132.066 152.423 133.276 152.243 134.296 151.873C135.336 151.483 136.206 150.943 136.906 150.253C137.606 149.563 138.136 148.713 138.496 147.733C138.886 146.743 139.116 145.643 139.196 144.423C139.276 142.993 139.276 141.563 139.196 140.133C139.116 138.913 138.886 137.813 138.496 136.823M135.276 144.423C135.236 145.043 135.116 145.623 134.896 146.163C134.706 146.703 134.416 147.163 134.026 147.553C133.636 147.943 133.156 148.253 132.576 148.483C131.996 148.693 131.306 148.803 130.516 148.803H126.486V135.753H130.376C131.206 135.753 131.926 135.873 132.526 136.103C133.126 136.313 133.616 136.623 134.006 137.033C134.416 137.423 134.716 137.883 134.906 138.423C135.116 138.943 135.246 139.513 135.286 140.133C135.366 141.563 135.366 142.993 135.286 144.423" fill="#00A436"/>
<path d="M160.101 144.5C159.861 143.9 159.471 143.37 158.951 142.92C158.441 142.45 157.781 142.06 156.951 141.74C156.141 141.4 155.181 141.11 154.051 140.87C153.021 140.65 152.151 140.45 151.461 140.28C150.771 140.11 150.201 139.93 149.771 139.75C149.361 139.54 149.061 139.31 148.871 139.05C148.701 138.77 148.621 138.41 148.621 137.98C148.621 137.62 148.711 137.31 148.901 137.02C149.091 136.74 149.341 136.5 149.661 136.32C150.001 136.11 150.381 135.96 150.811 135.87C151.261 135.76 151.731 135.7 152.221 135.7C153.341 135.7 154.191 135.88 154.751 136.24C155.331 136.58 155.761 136.98 156.041 137.45C156.171 137.66 156.311 137.83 156.461 137.96C156.631 138.07 156.871 138.13 157.191 138.13H159.161C159.371 138.13 159.541 138.06 159.691 137.93C159.861 137.78 159.931 137.59 159.921 137.37C159.881 136.83 159.691 136.25 159.361 135.65C159.041 135.03 158.561 134.47 157.931 133.96C157.291 133.45 156.501 133.03 155.541 132.69C154.581 132.35 153.481 132.18 152.221 132.18C151.171 132.18 150.181 132.33 149.271 132.63C148.371 132.91 147.591 133.31 146.931 133.81C146.271 134.32 145.761 134.93 145.381 135.64C145.001 136.35 144.821 137.13 144.821 137.97C144.821 138.81 144.931 139.55 145.161 140.16C145.391 140.76 145.721 141.29 146.171 141.74C146.641 142.19 147.221 142.57 147.911 142.89C148.621 143.19 149.451 143.45 150.391 143.68C151.421 143.94 152.331 144.16 153.121 144.33C153.911 144.5 154.561 144.68 155.091 144.87C155.631 145.06 156.041 145.28 156.301 145.54C156.561 145.8 156.691 146.14 156.691 146.55C156.691 146.96 156.571 147.35 156.331 147.65C156.091 147.93 155.771 148.18 155.371 148.38C154.981 148.57 154.521 148.71 153.991 148.8C153.461 148.88 152.921 148.91 152.361 148.91C151.651 148.91 151.051 148.85 150.561 148.74C150.091 148.61 149.701 148.45 149.381 148.26C149.061 148.07 148.811 147.86 148.621 147.61C148.431 147.37 148.271 147.12 148.141 146.88C148.031 146.65 147.891 146.49 147.721 146.37C147.551 146.26 147.311 146.2 146.991 146.2H145.021C144.811 146.2 144.631 146.27 144.461 146.42C144.311 146.55 144.241 146.73 144.261 146.96C144.321 147.78 144.571 148.54 145.021 149.21C145.471 149.88 146.061 150.47 146.791 150.95C147.541 151.42 148.391 151.79 149.351 152.05C150.311 152.29 151.311 152.42 152.361 152.42C153.621 152.42 154.751 152.27 155.771 151.97C156.781 151.67 157.641 151.27 158.331 150.76C159.021 150.23 159.561 149.62 159.931 148.9C160.311 148.17 160.491 147.38 160.491 146.54C160.491 145.77 160.361 145.09 160.101 144.49" fill="#00A436"/>
<path d="M137.11 88.4556V47.5056C137.11 38.0056 129.38 30.2656 119.87 30.2656H78.9197C69.4097 30.2656 61.6797 37.9956 61.6797 47.5056V88.4556C61.6797 97.9656 69.4097 105.696 78.9197 105.696H119.87C129.37 105.696 137.11 97.9656 137.11 88.4556ZM130.83 76.1456H97.0297C95.9897 76.1456 95.1396 76.9855 95.1396 78.0355C95.1396 79.0855 95.9797 79.9255 97.0297 79.9255H130.83V88.4556C130.83 94.4956 125.92 99.4055 119.88 99.4055H78.9297C72.8897 99.4055 67.9797 94.4956 67.9797 88.4556V59.8055H101.77C102.81 59.8055 103.66 58.9655 103.66 57.9155C103.66 56.8655 102.82 56.0355 101.77 56.0355H67.9797V47.5056C67.9797 41.4656 72.8897 36.5555 78.9297 36.5555H119.88C125.92 36.5555 130.83 41.4656 130.83 47.5056V76.1456Z" fill="#00A436"/>
</svg>
